<svg width="61" height="71" viewBox="0 0 61 71" fill="none" xmlns="http://www.w3.org/2000/svg">
<g id="Logo">
<circle id="Ellipse 93" opacity="0.2" cx="38.5" cy="22.5" r="22.5" fill="url(#paint0_linear_2321_155)"/>
<g id="megaphone">
<path id="Vector" d="M21.9673 24.4083C21.593 24.034 21.0648 23.8549 20.5407 23.9387C20.0182 24.0169 19.5633 24.3391 19.3159 24.8071L8.82724 44.6206L3.1101 50.3369C1.35142 52.0972 0.813474 54.5965 1.43524 56.8378C-0.622933 59.4518 -0.476444 63.2467 1.93249 65.6588C3.23299 66.9577 4.9404 67.6071 6.64781 67.6071C8.10619 67.6071 9.5483 67.1034 10.7528 66.1553C11.3379 66.318 11.9353 66.4287 12.5391 66.4287C13.7086 66.4279 14.8691 66.0999 15.9076 65.4904L20.2013 69.7825C21.0127 70.5947 22.0796 71 23.1466 71C24.2135 71 25.2812 70.5947 26.0934 69.7825C27.7178 68.1581 27.7178 65.5148 26.0934 63.8904L21.9681 59.7651L22.97 58.7633L42.7834 48.273C43.2506 48.0256 43.5728 47.5707 43.6526 47.0474C43.7307 46.5249 43.5566 45.9951 43.1822 45.6216L21.9673 24.4083ZM4.29015 63.3012C3.4218 62.432 3.14672 61.2023 3.43889 60.0923L7.49826 64.1516C6.38901 64.4438 5.15932 64.1695 4.29015 63.3012ZM10.1831 62.1228L5.46776 57.4074C4.16889 56.1086 4.16889 53.9934 5.46776 52.6937L10.1831 47.9784L19.6121 57.4074L14.8968 62.1219C13.5979 63.4224 11.4836 63.4233 10.1831 62.1228ZM23.7366 66.2472C23.9457 66.4564 23.9775 66.7062 23.9775 66.8365C23.9775 66.9667 23.9457 67.2165 23.7374 67.4249C23.4184 67.7422 22.8788 67.7463 22.5582 67.4257L18.432 63.3012L19.6113 62.1219L23.7366 66.2472ZM22.2766 55.359L12.2323 45.3131L21.2064 28.3611L39.2303 46.3833L22.2766 55.359ZM28.3152 26.0002V22.6667C28.3152 21.7463 29.0607 21 29.9819 21C30.9032 21 31.6486 21.7463 31.6486 22.6667V26.0002C31.6486 26.9206 30.9032 27.6669 29.9819 27.6669C29.0607 27.6669 28.3152 26.9206 28.3152 26.0002ZM46.6491 37.6664C46.6491 38.5868 45.9036 39.3331 44.9824 39.3331H41.649C40.7277 39.3331 39.9822 38.5868 39.9822 37.6664C39.9822 36.746 40.7277 35.9997 41.649 35.9997H44.9824C45.9036 35.9997 46.6491 36.746 46.6491 37.6664ZM35.4704 32.1779C34.8193 31.5269 34.8193 30.4722 35.4704 29.8211L38.8038 26.4876C39.4549 25.8366 40.5096 25.8366 41.1607 26.4876C41.8117 27.1387 41.8117 28.1934 41.1607 28.8445L37.8272 32.1779C37.5017 32.5035 37.0752 32.6662 36.6488 32.6662C36.2223 32.6662 35.7959 32.5035 35.4704 32.1779Z" fill="#1C3048"/>
</g>
</g>
<defs>
<linearGradient id="paint0_linear_2321_155" x1="61.3071" y1="6.85256e-06" x2="14.5074" y2="1.60992" gradientUnits="userSpaceOnUse">
<stop stop-color="#5961F8"/>
<stop offset="1" stop-color="#15D8C5"/>
<stop offset="1" stop-color="#15D8C5"/>
</linearGradient>
</defs>
</svg>
