<svg width="62" height="70" viewBox="0 0 62 70" fill="none" xmlns="http://www.w3.org/2000/svg">
<circle opacity="0.2" cx="39.5" cy="22.5" r="22.5" fill="url(#paint0_linear_2321_119)"/>
<g clip-path="url(#clip0_2321_119)">
<path d="M44.5573 26.4535L23.0542 19.2407C21.0195 18.5582 18.8093 19.6584 18.1269 21.693L17.8432 22.5387C17.7031 22.9565 16.0625 29.2684 16.0625 30.5184C17.8432 31.0732 19.2162 23.4642 19.3565 23.0462L19.6401 22.2005C20.0427 21.0001 21.3464 20.3511 22.5468 20.7538L44.0499 27.9665C45.2502 28.3692 45.8991 29.673 45.4965 30.8733L35.4918 60.7035C35.3516 61.1213 35.5768 61.5736 35.9947 61.7139C36.0788 61.7421 36.1643 61.7555 36.2485 61.7555C36.582 61.7555 36.893 61.5447 37.005 61.2111L47.0097 31.381C47.692 29.3465 46.592 27.1359 44.5573 26.4535Z" fill="#1C3048" stroke="#1C3048" stroke-width="1.25003"/>
<path d="M31.3495 29.7966H8.66918C6.52324 29.7966 4.77734 31.5425 4.77734 33.6886V65.152C4.77734 67.298 6.52324 69.044 8.66918 69.044H31.3496C33.4956 69.044 35.2415 67.298 35.2415 65.152V33.6886C35.2414 31.5425 33.4956 29.7966 31.3495 29.7966ZM33.6453 65.152C33.6453 66.418 32.6154 67.4479 31.3495 67.4479H8.66918C7.40322 67.4479 6.37338 66.4179 6.37338 65.152V33.6886C6.37338 32.4226 7.40333 31.3926 8.66918 31.3926H31.3496C32.6156 31.3926 33.6455 32.4227 33.6455 33.6886V65.152H33.6453Z" fill="#1C3048" stroke="#1C3048" stroke-width="1.25003"/>
<path d="M31.7055 51.824H8.1945C7.75378 51.824 7.39648 52.1813 7.39648 52.622C7.39648 53.0628 7.75378 53.4201 8.1945 53.4201H31.7056C32.1463 53.4201 32.5036 53.0628 32.5036 52.622C32.5035 52.1813 32.1462 51.824 31.7055 51.824Z" fill="#1C3048" stroke="#1C3048" stroke-width="1.25003"/>
<path d="M28.0137 56.6676H18.132C17.6913 56.6676 17.334 57.0249 17.334 57.4657C17.334 57.9064 17.6913 58.2637 18.132 58.2637H28.0137C28.4545 58.2637 28.8118 57.9064 28.8118 57.4657C28.8118 57.0249 28.4545 56.6676 28.0137 56.6676Z" fill="#1C3048" stroke="#1C3048" stroke-width="1.25003"/>
<path d="M27.9294 62.0029H11.8586C11.4178 62.0029 11.0605 62.3602 11.0605 62.8009C11.0605 63.2417 11.4178 63.599 11.8586 63.599H27.9294C28.3702 63.599 28.7274 63.2417 28.7274 62.8009C28.7274 62.3602 28.3702 62.0029 27.9294 62.0029Z" fill="#1C3048" stroke="#1C3048" stroke-width="1.25003"/>
<path d="M28.6411 39.0533C28.5472 38.7644 28.2975 38.5538 27.997 38.5102L22.8761 37.7661L20.586 33.1255C20.4515 32.8531 20.1742 32.6806 19.8704 32.6806C19.5667 32.6806 19.2893 32.8531 19.1548 33.1255L16.8646 37.7661L11.7437 38.5102C11.4431 38.5538 11.1934 38.7644 11.0996 39.0533C11.0058 39.3422 11.0841 39.6592 11.3015 39.8713L15.0071 43.4834L14.1323 48.584C14.081 48.8833 14.2041 49.1859 14.4498 49.3645C14.5888 49.4654 14.7535 49.5168 14.9189 49.5168C15.0458 49.5168 15.1733 49.4865 15.2901 49.4253L19.8704 47.017L24.4506 49.4253C24.7195 49.5666 25.0453 49.543 25.291 49.3645C25.5368 49.1859 25.6598 48.8833 25.6084 48.584L24.7337 43.4834L28.4392 39.8713C28.6566 39.6592 28.7349 39.3422 28.6411 39.0533ZM23.3193 42.6334C23.1312 42.8168 23.0453 43.0809 23.0898 43.3398L23.7621 47.2601L20.2417 45.4091C20.0091 45.287 19.7314 45.287 19.499 45.4091L15.9785 47.2601L16.6509 43.3398C16.6952 43.0809 16.6095 42.8168 16.4214 42.6334L13.5733 39.8571L17.5093 39.285C17.7692 39.2473 17.9938 39.0841 18.1101 38.8485L19.8703 35.2816L21.6305 38.8485C21.7466 39.084 21.9714 39.2473 22.2313 39.285L26.1673 39.8571L23.3193 42.6334Z" fill="#1C3048" stroke="#1C3048" stroke-width="1.25003"/>
</g>
<defs>
<linearGradient id="paint0_linear_2321_119" x1="62.3071" y1="6.85256e-06" x2="15.5074" y2="1.60992" gradientUnits="userSpaceOnUse">
<stop stop-color="#5961F8"/>
<stop offset="1" stop-color="#15D8C5"/>
<stop offset="1" stop-color="#15D8C5"/>
</linearGradient>
<clipPath id="clip0_2321_119">
<rect width="50" height="50.0027" fill="white" transform="translate(0.617188 19.0445)"/>
</clipPath>
</defs>
</svg>
