<svg width="61" height="71" viewBox="0 0 61 71" fill="none" xmlns="http://www.w3.org/2000/svg">
<circle opacity="0.2" cx="38.5" cy="22.5" r="22.5" fill="url(#paint0_linear_2321_133)"/>
<mask id="path-2-outside-1_2321_133" maskUnits="userSpaceOnUse" x="0.162109" y="22.5538" width="50" height="47" fill="black">
<rect fill="white" x="0.162109" y="22.5538" width="50" height="47"/>
<path d="M34.7695 42.8399C38.5372 42.8399 41.613 39.7734 41.613 35.9964C41.613 32.2193 38.5465 29.1528 34.7695 29.1528C31.086 29.078 27.8699 32.3128 27.926 35.9964C27.9353 39.7734 31.0018 42.8399 34.7695 42.8399ZM31.7965 30.9946C35.5548 28.6573 40.6874 31.5743 40.6033 36.0057C40.6033 39.2218 37.9856 41.8302 34.7788 41.8302C28.8796 41.7928 26.7574 34.0331 31.7965 30.9946ZM32.3574 37.8475C33.0212 38.4552 33.872 38.7918 34.7788 38.7918C35.6857 38.7918 36.5552 38.4459 37.2189 37.8288C37.4246 37.6418 37.7425 37.6512 37.9388 37.8569C38.1258 38.0625 38.1165 38.3804 37.9108 38.5767C37.06 39.3714 35.9475 39.8108 34.7788 39.8108C33.6289 39.8108 32.5257 39.3808 31.675 38.6048C31.4693 38.4178 31.4599 38.0906 31.6469 37.8849C31.8245 37.6699 32.1518 37.6512 32.3574 37.8475ZM33 35.5C34 35.5 34.5 33.5 33 33C30.9152 33.0561 30.9152 35.4439 33 35.5ZM37.3311 35.8468C39.416 35.7907 39.416 32.7335 37.3311 32.6775C35.2369 32.7335 35.2463 35.7907 37.3311 35.8468ZM37.3311 33.6872C38.0791 33.6965 38.0791 34.809 37.3311 34.8277C36.5832 34.8184 36.5832 33.7059 37.3311 33.6872ZM38.3595 47.4677C35.9381 47.4584 33.5448 48.3185 31.703 49.8611L31.1047 47.1405C30.7961 45.7195 29.7865 44.5695 28.4215 44.0647L24.579 42.6623C22.9429 42.1294 22.756 41.8209 22.4101 42.8399L21.7089 40.8486C23.4291 39.5771 24.5136 37.4642 24.6164 35.1924C25.5981 34.1827 27.4211 30.658 25.2428 27.9375C25.0465 25.0766 22.1389 23.506 19.8952 24.3287C17.9506 22.8796 14.7906 23.4686 13.5939 26.0489C9.7234 26.9745 8.37714 31.649 11.3875 34.9399C11.4156 37.3146 12.5188 39.5397 14.3044 40.8579L13.5939 42.8493C13.4911 42.5127 13.3415 42.092 12.9021 42.1855C12.7431 42.2135 11.9672 42.4847 11.5091 42.6436L7.59182 44.074C6.20816 44.5695 5.20781 45.7195 4.89929 47.1499L1.24381 63.7913C1.01944 64.801 1.26251 65.8481 1.9076 66.6615C2.56203 67.4748 3.53433 67.9423 4.57207 67.9423H31.4319C32.1985 67.9423 32.9277 67.6899 33.5167 67.2318C40.3041 70.9247 48.9426 65.7079 48.8398 57.9481C48.8398 52.1703 44.1372 47.4677 38.3595 47.4677ZM11.2473 28.9191C12.0233 27.5728 13.4724 27.1241 14.0614 26.9838C14.2203 26.9464 14.3512 26.8343 14.4166 26.6847C15.3328 24.3848 18.0347 24.0389 19.4838 25.301C19.624 25.4132 19.8204 25.4412 19.998 25.3758C20.2224 25.2823 21.391 24.8616 22.569 25.4693C23.5506 25.9835 24.1864 27.0119 24.2331 28.1618C24.2331 28.274 24.2799 28.3769 24.3453 28.461C25.9907 30.3215 25.0278 33.0795 24.0929 34.2201C22.756 33.4815 21.6621 32.397 20.9516 31.0788C20.8581 30.9105 20.6898 30.8076 20.5028 30.8076C19.7549 30.8918 19.0163 31.0881 18.2965 31.0788C17.3616 31.1348 16.4454 30.9011 15.5198 30.7515C15.3235 30.7328 15.1365 30.817 15.0337 30.9946C14.267 32.2941 13.2667 33.3412 12.0326 34.164C10.705 32.612 10.3591 30.4711 11.2473 28.9191ZM12.4066 35.2111C13.7996 34.3509 14.9402 33.229 15.819 31.8547C17.24 32.1726 18.7078 32.1726 20.1382 31.9108C20.9049 33.3038 22.5596 34.6782 23.5974 35.1737C23.0364 42.9895 13.0143 43.0082 12.4066 35.2111ZM21.6715 43.887C19.9232 45.9345 16.249 45.8504 14.3512 43.9992C14.267 43.7935 14.4634 43.4663 14.5382 43.2513C14.7532 42.6343 14.9682 42.0266 15.1832 41.4095C16.9222 42.3164 19.0911 42.3164 20.8301 41.4095C21.0918 42.2416 21.4565 43.055 21.6715 43.887ZM31.4225 66.8111C29.4125 66.9793 27.3931 67.0167 25.3831 66.9045C25.3831 65.4835 25.3737 64.0624 25.3737 62.6414C25.3737 62.3702 25.3363 62.0337 25.0932 61.9121C24.6445 61.7064 24.3547 62.3983 24.364 62.8938C24.364 64.24 24.3734 65.5863 24.3734 66.9232C19.8297 66.9232 15.2954 66.9232 10.7518 66.9232C10.7518 65.577 10.7611 64.2307 10.7611 62.8844C10.7611 62.3983 10.4713 61.6971 10.0319 61.9028C9.77949 62.015 9.7421 62.3515 9.7421 62.632C9.7421 64.0718 9.73275 65.5022 9.73275 66.9419C8.42388 66.6054 7.04957 66.9793 5.70331 67.0167C3.16037 67.0728 1.62712 65.6892 2.4031 63.1556C3.19776 59.5468 4.00178 55.938 4.79645 52.3293C5.97443 45.467 6.18946 45.4951 12.631 43.3167C14.9869 47.4303 21.0077 47.4303 23.373 43.3261C27.309 44.8687 30.1417 44.5134 30.6279 49.618C30.7775 50.2725 30.6559 50.9269 30.1698 51.4037C26.3927 56.0689 27.524 63.3799 32.5351 66.6802C32.1611 66.7456 31.7871 66.783 31.4225 66.8111ZM38.3595 67.3533C32.0489 67.5309 27.4866 61.052 29.3283 55.1247C32.3387 46.4019 44.2307 46.3272 47.3533 55.0125C49.2979 60.9492 44.7262 67.5216 38.3595 67.3533ZM43.9316 59.1728H32.7968C32.4696 59.1635 32.2079 59.5187 32.3107 59.8273C34.1618 65.7359 42.5572 65.7359 44.4177 59.8273C44.5205 59.5187 44.2588 59.1635 43.9316 59.1728ZM38.3595 63.2677C36.2466 63.2677 34.3862 62.0524 33.5261 60.1825H43.193C42.3329 62.0617 40.4631 63.2677 38.3595 63.2677ZM32.1331 55.2088C32.1331 53.9934 33.1241 53.0118 34.3301 53.0118C35.5361 53.0118 36.5271 54.0028 36.5271 55.2088C36.5271 55.4893 36.3027 55.7137 36.0223 55.7137C35.7418 55.7137 35.5174 55.4893 35.5174 55.2088C35.48 53.6382 33.1802 53.6382 33.1428 55.2088C33.1428 55.8726 32.1424 55.8632 32.1331 55.2088ZM44.586 55.2088C44.586 55.8726 43.5763 55.8726 43.5763 55.2088C43.5389 53.6382 41.239 53.6382 41.2016 55.2088C41.2016 55.8726 40.1919 55.8726 40.1919 55.2088C40.2761 52.2919 44.4925 52.3012 44.586 55.2088ZM30.3006 26.2827C30.9644 26.2827 31.5067 26.8249 31.5067 27.4887C31.5067 28.1525 32.5164 28.1525 32.5164 27.4887C32.5164 26.8249 33.0586 26.2827 33.7224 26.2827C34.3862 26.2827 34.3862 25.273 33.7224 25.273C33.0586 25.273 32.5164 24.7307 32.5164 24.0669C32.5164 23.4031 31.5067 23.4031 31.5067 24.0669C31.5067 24.7307 30.9644 25.273 30.3006 25.273C29.6369 25.2636 29.6369 26.2733 30.3006 26.2827ZM32.0115 25.4693C32.105 25.5815 32.2079 25.6843 32.3107 25.7685C32.1985 25.8619 32.0957 25.9648 32.0115 26.0676C31.918 25.9554 31.8152 25.8526 31.7124 25.7685C31.8152 25.6843 31.918 25.5815 32.0115 25.4693ZM41.3232 43.1952C42.5666 43.1952 43.5763 44.2049 43.5763 45.4483C43.5763 46.1121 44.586 46.1121 44.586 45.4483C44.586 44.2049 45.5957 43.1952 46.8391 43.1952C47.5029 43.1952 47.5029 42.1855 46.8391 42.1855C45.5957 42.1855 44.586 41.1758 44.586 39.9324C44.586 39.2686 43.5763 39.2686 43.5763 39.9324C43.5763 41.1758 42.5666 42.1855 41.3232 42.1855C40.6594 42.1855 40.6594 43.1859 41.3232 43.1952ZM44.0811 41.6713C44.3429 42.0827 44.6888 42.4286 45.0908 42.681C44.6795 42.9428 44.3336 43.2887 44.0811 43.6907C43.8194 43.2793 43.4735 42.9334 43.0714 42.681C43.4735 42.4286 43.8194 42.0827 44.0811 41.6713ZM2.75836 35.8468C4.00178 35.8468 5.01148 36.8565 5.01148 38.0999C5.01148 38.7637 6.02118 38.7637 6.02118 38.0999C6.02118 36.8565 7.03087 35.8468 8.2743 35.8468C8.93808 35.8468 8.93808 34.8371 8.2743 34.8371C7.03087 34.8371 6.02118 33.8274 6.02118 32.584C6.02118 31.9202 5.01148 31.9202 5.01148 32.584C5.01148 33.8274 4.00178 34.8371 2.75836 34.8371C2.09458 34.8371 2.09458 35.8375 2.75836 35.8468ZM5.51633 34.3229C5.7781 34.7343 6.12402 35.0802 6.52602 35.3326C6.11467 35.5944 5.76875 35.9403 5.51633 36.3423C5.25455 35.9309 4.90864 35.585 4.50663 35.3326C4.90864 35.0802 5.25455 34.7343 5.51633 34.3229Z"/>
</mask>
<path d="M34.7695 42.8399C38.5372 42.8399 41.613 39.7734 41.613 35.9964C41.613 32.2193 38.5465 29.1528 34.7695 29.1528C31.086 29.078 27.8699 32.3128 27.926 35.9964C27.9353 39.7734 31.0018 42.8399 34.7695 42.8399ZM31.7965 30.9946C35.5548 28.6573 40.6874 31.5743 40.6033 36.0057C40.6033 39.2218 37.9856 41.8302 34.7788 41.8302C28.8796 41.7928 26.7574 34.0331 31.7965 30.9946ZM32.3574 37.8475C33.0212 38.4552 33.872 38.7918 34.7788 38.7918C35.6857 38.7918 36.5552 38.4459 37.2189 37.8288C37.4246 37.6418 37.7425 37.6512 37.9388 37.8569C38.1258 38.0625 38.1165 38.3804 37.9108 38.5767C37.06 39.3714 35.9475 39.8108 34.7788 39.8108C33.6289 39.8108 32.5257 39.3808 31.675 38.6048C31.4693 38.4178 31.4599 38.0906 31.6469 37.8849C31.8245 37.6699 32.1518 37.6512 32.3574 37.8475ZM33 35.5C34 35.5 34.5 33.5 33 33C30.9152 33.0561 30.9152 35.4439 33 35.5ZM37.3311 35.8468C39.416 35.7907 39.416 32.7335 37.3311 32.6775C35.2369 32.7335 35.2463 35.7907 37.3311 35.8468ZM37.3311 33.6872C38.0791 33.6965 38.0791 34.809 37.3311 34.8277C36.5832 34.8184 36.5832 33.7059 37.3311 33.6872ZM38.3595 47.4677C35.9381 47.4584 33.5448 48.3185 31.703 49.8611L31.1047 47.1405C30.7961 45.7195 29.7865 44.5695 28.4215 44.0647L24.579 42.6623C22.9429 42.1294 22.756 41.8209 22.4101 42.8399L21.7089 40.8486C23.4291 39.5771 24.5136 37.4642 24.6164 35.1924C25.5981 34.1827 27.4211 30.658 25.2428 27.9375C25.0465 25.0766 22.1389 23.506 19.8952 24.3287C17.9506 22.8796 14.7906 23.4686 13.5939 26.0489C9.7234 26.9745 8.37714 31.649 11.3875 34.9399C11.4156 37.3146 12.5188 39.5397 14.3044 40.8579L13.5939 42.8493C13.4911 42.5127 13.3415 42.092 12.9021 42.1855C12.7431 42.2135 11.9672 42.4847 11.5091 42.6436L7.59182 44.074C6.20816 44.5695 5.20781 45.7195 4.89929 47.1499L1.24381 63.7913C1.01944 64.801 1.26251 65.8481 1.9076 66.6615C2.56203 67.4748 3.53433 67.9423 4.57207 67.9423H31.4319C32.1985 67.9423 32.9277 67.6899 33.5167 67.2318C40.3041 70.9247 48.9426 65.7079 48.8398 57.9481C48.8398 52.1703 44.1372 47.4677 38.3595 47.4677ZM11.2473 28.9191C12.0233 27.5728 13.4724 27.1241 14.0614 26.9838C14.2203 26.9464 14.3512 26.8343 14.4166 26.6847C15.3328 24.3848 18.0347 24.0389 19.4838 25.301C19.624 25.4132 19.8204 25.4412 19.998 25.3758C20.2224 25.2823 21.391 24.8616 22.569 25.4693C23.5506 25.9835 24.1864 27.0119 24.2331 28.1618C24.2331 28.274 24.2799 28.3769 24.3453 28.461C25.9907 30.3215 25.0278 33.0795 24.0929 34.2201C22.756 33.4815 21.6621 32.397 20.9516 31.0788C20.8581 30.9105 20.6898 30.8076 20.5028 30.8076C19.7549 30.8918 19.0163 31.0881 18.2965 31.0788C17.3616 31.1348 16.4454 30.9011 15.5198 30.7515C15.3235 30.7328 15.1365 30.817 15.0337 30.9946C14.267 32.2941 13.2667 33.3412 12.0326 34.164C10.705 32.612 10.3591 30.4711 11.2473 28.9191ZM12.4066 35.2111C13.7996 34.3509 14.9402 33.229 15.819 31.8547C17.24 32.1726 18.7078 32.1726 20.1382 31.9108C20.9049 33.3038 22.5596 34.6782 23.5974 35.1737C23.0364 42.9895 13.0143 43.0082 12.4066 35.2111ZM21.6715 43.887C19.9232 45.9345 16.249 45.8504 14.3512 43.9992C14.267 43.7935 14.4634 43.4663 14.5382 43.2513C14.7532 42.6343 14.9682 42.0266 15.1832 41.4095C16.9222 42.3164 19.0911 42.3164 20.8301 41.4095C21.0918 42.2416 21.4565 43.055 21.6715 43.887ZM31.4225 66.8111C29.4125 66.9793 27.3931 67.0167 25.3831 66.9045C25.3831 65.4835 25.3737 64.0624 25.3737 62.6414C25.3737 62.3702 25.3363 62.0337 25.0932 61.9121C24.6445 61.7064 24.3547 62.3983 24.364 62.8938C24.364 64.24 24.3734 65.5863 24.3734 66.9232C19.8297 66.9232 15.2954 66.9232 10.7518 66.9232C10.7518 65.577 10.7611 64.2307 10.7611 62.8844C10.7611 62.3983 10.4713 61.6971 10.0319 61.9028C9.77949 62.015 9.7421 62.3515 9.7421 62.632C9.7421 64.0718 9.73275 65.5022 9.73275 66.9419C8.42388 66.6054 7.04957 66.9793 5.70331 67.0167C3.16037 67.0728 1.62712 65.6892 2.4031 63.1556C3.19776 59.5468 4.00178 55.938 4.79645 52.3293C5.97443 45.467 6.18946 45.4951 12.631 43.3167C14.9869 47.4303 21.0077 47.4303 23.373 43.3261C27.309 44.8687 30.1417 44.5134 30.6279 49.618C30.7775 50.2725 30.6559 50.9269 30.1698 51.4037C26.3927 56.0689 27.524 63.3799 32.5351 66.6802C32.1611 66.7456 31.7871 66.783 31.4225 66.8111ZM38.3595 67.3533C32.0489 67.5309 27.4866 61.052 29.3283 55.1247C32.3387 46.4019 44.2307 46.3272 47.3533 55.0125C49.2979 60.9492 44.7262 67.5216 38.3595 67.3533ZM43.9316 59.1728H32.7968C32.4696 59.1635 32.2079 59.5187 32.3107 59.8273C34.1618 65.7359 42.5572 65.7359 44.4177 59.8273C44.5205 59.5187 44.2588 59.1635 43.9316 59.1728ZM38.3595 63.2677C36.2466 63.2677 34.3862 62.0524 33.5261 60.1825H43.193C42.3329 62.0617 40.4631 63.2677 38.3595 63.2677ZM32.1331 55.2088C32.1331 53.9934 33.1241 53.0118 34.3301 53.0118C35.5361 53.0118 36.5271 54.0028 36.5271 55.2088C36.5271 55.4893 36.3027 55.7137 36.0223 55.7137C35.7418 55.7137 35.5174 55.4893 35.5174 55.2088C35.48 53.6382 33.1802 53.6382 33.1428 55.2088C33.1428 55.8726 32.1424 55.8632 32.1331 55.2088ZM44.586 55.2088C44.586 55.8726 43.5763 55.8726 43.5763 55.2088C43.5389 53.6382 41.239 53.6382 41.2016 55.2088C41.2016 55.8726 40.1919 55.8726 40.1919 55.2088C40.2761 52.2919 44.4925 52.3012 44.586 55.2088ZM30.3006 26.2827C30.9644 26.2827 31.5067 26.8249 31.5067 27.4887C31.5067 28.1525 32.5164 28.1525 32.5164 27.4887C32.5164 26.8249 33.0586 26.2827 33.7224 26.2827C34.3862 26.2827 34.3862 25.273 33.7224 25.273C33.0586 25.273 32.5164 24.7307 32.5164 24.0669C32.5164 23.4031 31.5067 23.4031 31.5067 24.0669C31.5067 24.7307 30.9644 25.273 30.3006 25.273C29.6369 25.2636 29.6369 26.2733 30.3006 26.2827ZM32.0115 25.4693C32.105 25.5815 32.2079 25.6843 32.3107 25.7685C32.1985 25.8619 32.0957 25.9648 32.0115 26.0676C31.918 25.9554 31.8152 25.8526 31.7124 25.7685C31.8152 25.6843 31.918 25.5815 32.0115 25.4693ZM41.3232 43.1952C42.5666 43.1952 43.5763 44.2049 43.5763 45.4483C43.5763 46.1121 44.586 46.1121 44.586 45.4483C44.586 44.2049 45.5957 43.1952 46.8391 43.1952C47.5029 43.1952 47.5029 42.1855 46.8391 42.1855C45.5957 42.1855 44.586 41.1758 44.586 39.9324C44.586 39.2686 43.5763 39.2686 43.5763 39.9324C43.5763 41.1758 42.5666 42.1855 41.3232 42.1855C40.6594 42.1855 40.6594 43.1859 41.3232 43.1952ZM44.0811 41.6713C44.3429 42.0827 44.6888 42.4286 45.0908 42.681C44.6795 42.9428 44.3336 43.2887 44.0811 43.6907C43.8194 43.2793 43.4735 42.9334 43.0714 42.681C43.4735 42.4286 43.8194 42.0827 44.0811 41.6713ZM2.75836 35.8468C4.00178 35.8468 5.01148 36.8565 5.01148 38.0999C5.01148 38.7637 6.02118 38.7637 6.02118 38.0999C6.02118 36.8565 7.03087 35.8468 8.2743 35.8468C8.93808 35.8468 8.93808 34.8371 8.2743 34.8371C7.03087 34.8371 6.02118 33.8274 6.02118 32.584C6.02118 31.9202 5.01148 31.9202 5.01148 32.584C5.01148 33.8274 4.00178 34.8371 2.75836 34.8371C2.09458 34.8371 2.09458 35.8375 2.75836 35.8468ZM5.51633 34.3229C5.7781 34.7343 6.12402 35.0802 6.52602 35.3326C6.11467 35.5944 5.76875 35.9403 5.51633 36.3423C5.25455 35.9309 4.90864 35.585 4.50663 35.3326C4.90864 35.0802 5.25455 34.7343 5.51633 34.3229Z" fill="#1C3048"/>
<path d="M34.7695 42.8399C38.5372 42.8399 41.613 39.7734 41.613 35.9964C41.613 32.2193 38.5465 29.1528 34.7695 29.1528C31.086 29.078 27.8699 32.3128 27.926 35.9964C27.9353 39.7734 31.0018 42.8399 34.7695 42.8399ZM31.7965 30.9946C35.5548 28.6573 40.6874 31.5743 40.6033 36.0057C40.6033 39.2218 37.9856 41.8302 34.7788 41.8302C28.8796 41.7928 26.7574 34.0331 31.7965 30.9946ZM32.3574 37.8475C33.0212 38.4552 33.872 38.7918 34.7788 38.7918C35.6857 38.7918 36.5552 38.4459 37.2189 37.8288C37.4246 37.6418 37.7425 37.6512 37.9388 37.8569C38.1258 38.0625 38.1165 38.3804 37.9108 38.5767C37.06 39.3714 35.9475 39.8108 34.7788 39.8108C33.6289 39.8108 32.5257 39.3808 31.675 38.6048C31.4693 38.4178 31.4599 38.0906 31.6469 37.8849C31.8245 37.6699 32.1518 37.6512 32.3574 37.8475ZM33 35.5C34 35.5 34.5 33.5 33 33C30.9152 33.0561 30.9152 35.4439 33 35.5ZM37.3311 35.8468C39.416 35.7907 39.416 32.7335 37.3311 32.6775C35.2369 32.7335 35.2463 35.7907 37.3311 35.8468ZM37.3311 33.6872C38.0791 33.6965 38.0791 34.809 37.3311 34.8277C36.5832 34.8184 36.5832 33.7059 37.3311 33.6872ZM38.3595 47.4677C35.9381 47.4584 33.5448 48.3185 31.703 49.8611L31.1047 47.1405C30.7961 45.7195 29.7865 44.5695 28.4215 44.0647L24.579 42.6623C22.9429 42.1294 22.756 41.8209 22.4101 42.8399L21.7089 40.8486C23.4291 39.5771 24.5136 37.4642 24.6164 35.1924C25.5981 34.1827 27.4211 30.658 25.2428 27.9375C25.0465 25.0766 22.1389 23.506 19.8952 24.3287C17.9506 22.8796 14.7906 23.4686 13.5939 26.0489C9.7234 26.9745 8.37714 31.649 11.3875 34.9399C11.4156 37.3146 12.5188 39.5397 14.3044 40.8579L13.5939 42.8493C13.4911 42.5127 13.3415 42.092 12.9021 42.1855C12.7431 42.2135 11.9672 42.4847 11.5091 42.6436L7.59182 44.074C6.20816 44.5695 5.20781 45.7195 4.89929 47.1499L1.24381 63.7913C1.01944 64.801 1.26251 65.8481 1.9076 66.6615C2.56203 67.4748 3.53433 67.9423 4.57207 67.9423H31.4319C32.1985 67.9423 32.9277 67.6899 33.5167 67.2318C40.3041 70.9247 48.9426 65.7079 48.8398 57.9481C48.8398 52.1703 44.1372 47.4677 38.3595 47.4677ZM11.2473 28.9191C12.0233 27.5728 13.4724 27.1241 14.0614 26.9838C14.2203 26.9464 14.3512 26.8343 14.4166 26.6847C15.3328 24.3848 18.0347 24.0389 19.4838 25.301C19.624 25.4132 19.8204 25.4412 19.998 25.3758C20.2224 25.2823 21.391 24.8616 22.569 25.4693C23.5506 25.9835 24.1864 27.0119 24.2331 28.1618C24.2331 28.274 24.2799 28.3769 24.3453 28.461C25.9907 30.3215 25.0278 33.0795 24.0929 34.2201C22.756 33.4815 21.6621 32.397 20.9516 31.0788C20.8581 30.9105 20.6898 30.8076 20.5028 30.8076C19.7549 30.8918 19.0163 31.0881 18.2965 31.0788C17.3616 31.1348 16.4454 30.9011 15.5198 30.7515C15.3235 30.7328 15.1365 30.817 15.0337 30.9946C14.267 32.2941 13.2667 33.3412 12.0326 34.164C10.705 32.612 10.3591 30.4711 11.2473 28.9191ZM12.4066 35.2111C13.7996 34.3509 14.9402 33.229 15.819 31.8547C17.24 32.1726 18.7078 32.1726 20.1382 31.9108C20.9049 33.3038 22.5596 34.6782 23.5974 35.1737C23.0364 42.9895 13.0143 43.0082 12.4066 35.2111ZM21.6715 43.887C19.9232 45.9345 16.249 45.8504 14.3512 43.9992C14.267 43.7935 14.4634 43.4663 14.5382 43.2513C14.7532 42.6343 14.9682 42.0266 15.1832 41.4095C16.9222 42.3164 19.0911 42.3164 20.8301 41.4095C21.0918 42.2416 21.4565 43.055 21.6715 43.887ZM31.4225 66.8111C29.4125 66.9793 27.3931 67.0167 25.3831 66.9045C25.3831 65.4835 25.3737 64.0624 25.3737 62.6414C25.3737 62.3702 25.3363 62.0337 25.0932 61.9121C24.6445 61.7064 24.3547 62.3983 24.364 62.8938C24.364 64.24 24.3734 65.5863 24.3734 66.9232C19.8297 66.9232 15.2954 66.9232 10.7518 66.9232C10.7518 65.577 10.7611 64.2307 10.7611 62.8844C10.7611 62.3983 10.4713 61.6971 10.0319 61.9028C9.77949 62.015 9.7421 62.3515 9.7421 62.632C9.7421 64.0718 9.73275 65.5022 9.73275 66.9419C8.42388 66.6054 7.04957 66.9793 5.70331 67.0167C3.16037 67.0728 1.62712 65.6892 2.4031 63.1556C3.19776 59.5468 4.00178 55.938 4.79645 52.3293C5.97443 45.467 6.18946 45.4951 12.631 43.3167C14.9869 47.4303 21.0077 47.4303 23.373 43.3261C27.309 44.8687 30.1417 44.5134 30.6279 49.618C30.7775 50.2725 30.6559 50.9269 30.1698 51.4037C26.3927 56.0689 27.524 63.3799 32.5351 66.6802C32.1611 66.7456 31.7871 66.783 31.4225 66.8111ZM38.3595 67.3533C32.0489 67.5309 27.4866 61.052 29.3283 55.1247C32.3387 46.4019 44.2307 46.3272 47.3533 55.0125C49.2979 60.9492 44.7262 67.5216 38.3595 67.3533ZM43.9316 59.1728H32.7968C32.4696 59.1635 32.2079 59.5187 32.3107 59.8273C34.1618 65.7359 42.5572 65.7359 44.4177 59.8273C44.5205 59.5187 44.2588 59.1635 43.9316 59.1728ZM38.3595 63.2677C36.2466 63.2677 34.3862 62.0524 33.5261 60.1825H43.193C42.3329 62.0617 40.4631 63.2677 38.3595 63.2677ZM32.1331 55.2088C32.1331 53.9934 33.1241 53.0118 34.3301 53.0118C35.5361 53.0118 36.5271 54.0028 36.5271 55.2088C36.5271 55.4893 36.3027 55.7137 36.0223 55.7137C35.7418 55.7137 35.5174 55.4893 35.5174 55.2088C35.48 53.6382 33.1802 53.6382 33.1428 55.2088C33.1428 55.8726 32.1424 55.8632 32.1331 55.2088ZM44.586 55.2088C44.586 55.8726 43.5763 55.8726 43.5763 55.2088C43.5389 53.6382 41.239 53.6382 41.2016 55.2088C41.2016 55.8726 40.1919 55.8726 40.1919 55.2088C40.2761 52.2919 44.4925 52.3012 44.586 55.2088ZM30.3006 26.2827C30.9644 26.2827 31.5067 26.8249 31.5067 27.4887C31.5067 28.1525 32.5164 28.1525 32.5164 27.4887C32.5164 26.8249 33.0586 26.2827 33.7224 26.2827C34.3862 26.2827 34.3862 25.273 33.7224 25.273C33.0586 25.273 32.5164 24.7307 32.5164 24.0669C32.5164 23.4031 31.5067 23.4031 31.5067 24.0669C31.5067 24.7307 30.9644 25.273 30.3006 25.273C29.6369 25.2636 29.6369 26.2733 30.3006 26.2827ZM32.0115 25.4693C32.105 25.5815 32.2079 25.6843 32.3107 25.7685C32.1985 25.8619 32.0957 25.9648 32.0115 26.0676C31.918 25.9554 31.8152 25.8526 31.7124 25.7685C31.8152 25.6843 31.918 25.5815 32.0115 25.4693ZM41.3232 43.1952C42.5666 43.1952 43.5763 44.2049 43.5763 45.4483C43.5763 46.1121 44.586 46.1121 44.586 45.4483C44.586 44.2049 45.5957 43.1952 46.8391 43.1952C47.5029 43.1952 47.5029 42.1855 46.8391 42.1855C45.5957 42.1855 44.586 41.1758 44.586 39.9324C44.586 39.2686 43.5763 39.2686 43.5763 39.9324C43.5763 41.1758 42.5666 42.1855 41.3232 42.1855C40.6594 42.1855 40.6594 43.1859 41.3232 43.1952ZM44.0811 41.6713C44.3429 42.0827 44.6888 42.4286 45.0908 42.681C44.6795 42.9428 44.3336 43.2887 44.0811 43.6907C43.8194 43.2793 43.4735 42.9334 43.0714 42.681C43.4735 42.4286 43.8194 42.0827 44.0811 41.6713ZM2.75836 35.8468C4.00178 35.8468 5.01148 36.8565 5.01148 38.0999C5.01148 38.7637 6.02118 38.7637 6.02118 38.0999C6.02118 36.8565 7.03087 35.8468 8.2743 35.8468C8.93808 35.8468 8.93808 34.8371 8.2743 34.8371C7.03087 34.8371 6.02118 33.8274 6.02118 32.584C6.02118 31.9202 5.01148 31.9202 5.01148 32.584C5.01148 33.8274 4.00178 34.8371 2.75836 34.8371C2.09458 34.8371 2.09458 35.8375 2.75836 35.8468ZM5.51633 34.3229C5.7781 34.7343 6.12402 35.0802 6.52602 35.3326C6.11467 35.5944 5.76875 35.9403 5.51633 36.3423C5.25455 35.9309 4.90864 35.585 4.50663 35.3326C4.90864 35.0802 5.25455 34.7343 5.51633 34.3229Z" stroke="#1C3048" stroke-width="1.4" mask="url(#path-2-outside-1_2321_133)"/>
<defs>
<linearGradient id="paint0_linear_2321_133" x1="61.3071" y1="6.85256e-06" x2="14.5074" y2="1.60992" gradientUnits="userSpaceOnUse">
<stop stop-color="#5961F8"/>
<stop offset="1" stop-color="#15D8C5"/>
<stop offset="1" stop-color="#15D8C5"/>
</linearGradient>
</defs>
</svg>
