<svg width="61" height="71" viewBox="0 0 61 71" fill="none" xmlns="http://www.w3.org/2000/svg">
<g id="Logo">
<circle id="Ellipse 93" opacity="0.2" cx="38.5" cy="22.5" r="22.5" fill="url(#paint0_linear_2321_218)"/>
<g id="g1431">
<path id="path1433" d="M0 68C0 69.6569 1.34315 71 3 71H33.2631C34.9199 71 36.2631 69.6569 36.2631 68V24C36.2631 22.3432 34.9199 21 33.2631 21H3C1.34315 21 0 22.3432 0 24V68ZM2.92969 26.9297C2.92969 25.2728 4.27283 23.9297 5.92969 23.9297H30.3334C31.9902 23.9297 33.3334 25.2728 33.3334 26.9297V65.0703C33.3334 66.7272 31.9903 68.0703 30.3334 68.0703H5.92969C4.27284 68.0703 2.92969 66.7272 2.92969 65.0703V26.9297Z" fill="#1C3048"/>
<g id="g1435">
<path id="path1437" d="M21.5947 30.7981L24.4459 34.3622L18.132 39.8868L11.8182 34.3622L14.6693 30.7981H21.5947ZM28.4848 34.7211L23.0028 27.8685H13.2612L7.7793 34.7211L18.132 43.7798L28.4848 34.7211Z" fill="#1C3048"/>
</g>
<path id="path1439" d="M13.6074 50.5898H28.5489V47.6602H13.6074V50.5898Z" fill="#1C3048"/>
<path id="path1441" d="M10.6771 47.6602H7.71484V50.5898H10.6771V47.6602Z" fill="#1C3048"/>
<path id="path1443" d="M10.6771 53.9102H7.71484V56.8398H10.6771V53.9102Z" fill="#1C3048"/>
<path id="path1445" d="M13.6074 56.8398H28.5489V53.9102H13.6074V56.8398Z" fill="#1C3048"/>
<path id="path1447" d="M13.6074 63.0898H28.5489V60.1602H13.6074V63.0898Z" fill="#1C3048"/>
<path id="path1449" d="M10.6771 60.1602H7.71484V63.0898H10.6771V60.1602Z" fill="#1C3048"/>
</g>
</g>
<defs>
<linearGradient id="paint0_linear_2321_218" x1="61.3071" y1="6.85256e-06" x2="14.5074" y2="1.60992" gradientUnits="userSpaceOnUse">
<stop stop-color="#5961F8"/>
<stop offset="1" stop-color="#15D8C5"/>
<stop offset="1" stop-color="#15D8C5"/>
</linearGradient>
</defs>
</svg>
