<svg width="61" height="71" viewBox="0 0 61 71" fill="none" xmlns="http://www.w3.org/2000/svg">
<g id="Logo">
<circle id="Ellipse 93" opacity="0.2" cx="38.5" cy="22.5" r="22.5" fill="url(#paint0_linear_2321_242)"/>
<g id="Layer 2">
<path id="Vector" d="M48.4375 50.6875C48.4347 47.6449 47.3223 44.7077 45.3088 42.4266C43.2952 40.1455 40.5188 38.6772 37.5 38.2969V31.9375C37.5 31.7118 37.4511 31.4888 37.3567 31.2838C37.2623 31.0788 37.1246 30.8967 36.9531 30.75L26.0156 21.375C25.7326 21.133 25.3724 21 25 21H5.875C4.31812 21.0041 2.82619 21.6244 1.7253 22.7253C0.62442 23.8262 0.0041242 25.3181 0 26.875V65.125C0.0041242 66.6819 0.62442 68.1738 1.7253 69.2747C2.82619 70.3756 4.31812 70.9959 5.875 71H31.625C33.1819 70.9959 34.6738 70.3756 35.7747 69.2747C36.8756 68.1738 37.4959 66.6819 37.5 65.125V63.0781C40.5188 62.6978 43.2952 61.2295 45.3088 58.9484C47.3223 56.6673 48.4347 53.7301 48.4375 50.6875ZM26.5625 25.9531L31.7187 30.375H26.5625V25.9531ZM31.625 67.875H5.875C5.51386 67.875 5.15627 67.8039 4.82262 67.6657C4.48898 67.5275 4.18582 67.3249 3.93046 67.0695C3.6751 66.8142 3.47253 66.511 3.33433 66.1774C3.19613 65.8437 3.125 65.4861 3.125 65.125V26.875C3.125 26.1457 3.41473 25.4462 3.93046 24.9305C4.44618 24.4147 5.14566 24.125 5.875 24.125H23.4375V31.9375C23.4375 32.3519 23.6021 32.7493 23.8951 33.0424C24.1882 33.3354 24.5856 33.5 25 33.5H34.375V38.2969C31.3721 38.6968 28.6166 40.1735 26.6209 42.4527C24.6251 44.7318 23.525 47.6581 23.525 50.6875C23.525 53.7169 24.6251 56.6432 26.6209 58.9223C28.6166 61.2015 31.3721 62.6782 34.375 63.0781V65.125C34.375 65.4861 34.3039 65.8437 34.1657 66.1774C34.0275 66.511 33.8249 66.8142 33.5695 67.0695C33.3142 67.3249 33.011 67.5275 32.6774 67.6657C32.3437 67.8039 31.9861 67.875 31.625 67.875ZM35.9375 60.0625C34.0833 60.0625 32.2707 59.5127 30.729 58.4825C29.1873 57.4524 27.9857 55.9882 27.2761 54.2752C26.5666 52.5621 26.3809 50.6771 26.7426 48.8585C27.1044 47.04 27.9973 45.3695 29.3084 44.0584C30.6195 42.7473 32.29 41.8544 34.1085 41.4926C35.9271 41.1309 37.8121 41.3166 39.5252 42.0261C41.2382 42.7357 42.7024 43.9373 43.7325 45.479C44.7627 47.0207 45.3125 48.8333 45.3125 50.6875C45.3125 53.1739 44.3248 55.5585 42.5666 57.3166C40.8085 59.0748 38.4239 60.0625 35.9375 60.0625Z" fill="#1C3048"/>
<path id="Vector_2" d="M40.625 49.125H37.5V46C37.5 45.5856 37.3354 45.1882 37.0424 44.8951C36.7493 44.6021 36.3519 44.4375 35.9375 44.4375C35.5231 44.4375 35.1257 44.6021 34.8326 44.8951C34.5396 45.1882 34.375 45.5856 34.375 46V49.125H31.25C30.8356 49.125 30.4382 49.2896 30.1451 49.5826C29.8521 49.8757 29.6875 50.2731 29.6875 50.6875C29.6875 51.1019 29.8521 51.4993 30.1451 51.7924C30.4382 52.0854 30.8356 52.25 31.25 52.25H34.375V55.375C34.375 55.7894 34.5396 56.1868 34.8326 56.4799C35.1257 56.7729 35.5231 56.9375 35.9375 56.9375C36.3519 56.9375 36.7493 56.7729 37.0424 56.4799C37.3354 56.1868 37.5 55.7894 37.5 55.375V52.25H40.625C41.0394 52.25 41.4368 52.0854 41.7299 51.7924C42.0229 51.4993 42.1875 51.1019 42.1875 50.6875C42.1875 50.2731 42.0229 49.8757 41.7299 49.5826C41.4368 49.2896 41.0394 49.125 40.625 49.125Z" fill="#1C3048"/>
<path id="Vector_3" d="M9.375 39.75H25C25.4144 39.75 25.8118 39.5854 26.1049 39.2924C26.3979 38.9993 26.5625 38.6019 26.5625 38.1875C26.5625 37.7731 26.3979 37.3757 26.1049 37.0826C25.8118 36.7896 25.4144 36.625 25 36.625H9.375C8.9606 36.625 8.56317 36.7896 8.27015 37.0826C7.97712 37.3757 7.8125 37.7731 7.8125 38.1875C7.8125 38.6019 7.97712 38.9993 8.27015 39.2924C8.56317 39.5854 8.9606 39.75 9.375 39.75Z" fill="#1C3048"/>
<path id="Vector_4" d="M18.75 42.875H9.375C8.9606 42.875 8.56317 43.0396 8.27015 43.3326C7.97712 43.6257 7.8125 44.0231 7.8125 44.4375C7.8125 44.8519 7.97712 45.2493 8.27015 45.5424C8.56317 45.8354 8.9606 46 9.375 46H18.75C19.1644 46 19.5618 45.8354 19.8549 45.5424C20.1479 45.2493 20.3125 44.8519 20.3125 44.4375C20.3125 44.0231 20.1479 43.6257 19.8549 43.3326C19.5618 43.0396 19.1644 42.875 18.75 42.875Z" fill="#1C3048"/>
<path id="Vector_5" d="M18.75 49.125H9.375C8.9606 49.125 8.56317 49.2896 8.27015 49.5826C7.97712 49.8757 7.8125 50.2731 7.8125 50.6875C7.8125 51.1019 7.97712 51.4993 8.27015 51.7924C8.56317 52.0854 8.9606 52.25 9.375 52.25H18.75C19.1644 52.25 19.5618 52.0854 19.8549 51.7924C20.1479 51.4993 20.3125 51.1019 20.3125 50.6875C20.3125 50.2731 20.1479 49.8757 19.8549 49.5826C19.5618 49.2896 19.1644 49.125 18.75 49.125Z" fill="#1C3048"/>
<path id="Vector_6" d="M18.75 55.375H9.375C8.9606 55.375 8.56317 55.5396 8.27015 55.8326C7.97712 56.1257 7.8125 56.5231 7.8125 56.9375C7.8125 57.3519 7.97712 57.7493 8.27015 58.0424C8.56317 58.3354 8.9606 58.5 9.375 58.5H18.75C19.1644 58.5 19.5618 58.3354 19.8549 58.0424C20.1479 57.7493 20.3125 57.3519 20.3125 56.9375C20.3125 56.5231 20.1479 56.1257 19.8549 55.8326C19.5618 55.5396 19.1644 55.375 18.75 55.375Z" fill="#1C3048"/>
</g>
</g>
<defs>
<linearGradient id="paint0_linear_2321_242" x1="61.3071" y1="6.85256e-06" x2="14.5074" y2="1.60992" gradientUnits="userSpaceOnUse">
<stop stop-color="#5961F8"/>
<stop offset="1" stop-color="#15D8C5"/>
<stop offset="1" stop-color="#15D8C5"/>
</linearGradient>
</defs>
</svg>
