<svg width="61" height="70" viewBox="0 0 61 70" fill="none" xmlns="http://www.w3.org/2000/svg">
<g id="Logo">
<circle id="Ellipse 93" opacity="0.2" cx="38.5" cy="22.5" r="22.5" fill="url(#paint0_linear_2321_232)"/>
<g id="Layer 2">
<path id="Vector" d="M41.2782 62.5351H8.72004C8.32319 62.5336 7.93869 62.3969 7.63003 62.1474C7.32138 61.898 7.10703 61.5507 7.02237 61.163L3.534 45.5118C3.35912 44.7336 3.41815 43.921 3.70364 43.1763C3.98914 42.4315 4.48839 41.7877 5.13865 41.3258C5.77728 40.848 6.5455 40.5745 7.3424 40.5413C8.13929 40.5081 8.92759 40.7167 9.60376 41.1397L14.5573 44.1165C14.6997 44.17 14.8567 44.17 14.9991 44.1165C15.0755 44.1021 15.1481 44.0719 15.2122 44.0279C15.2763 43.9838 15.3304 43.9269 15.3712 43.8606L21.4642 33.163C21.826 32.561 22.3374 32.0629 22.9486 31.717C23.5599 31.3712 24.2503 31.1895 24.9526 31.1895C25.6549 31.1895 26.3453 31.3712 26.9566 31.717C27.5678 32.0629 28.0792 32.561 28.441 33.163L34.534 43.8606C34.5748 43.9269 34.6289 43.9838 34.693 44.0279C34.7571 44.0719 34.8297 44.1021 34.9061 44.1165C35.0485 44.17 35.2055 44.17 35.348 44.1165L40.3014 41.1397C40.9787 40.7198 41.7664 40.513 42.5626 40.5462C43.3588 40.5794 44.1266 40.851 44.7666 41.3258C45.4168 41.7877 45.9161 42.4315 46.2016 43.1763C46.4871 43.921 46.5461 44.7336 46.3712 45.5118L42.8828 61.163C42.8021 61.5356 42.6015 61.8716 42.3117 62.1194C42.0219 62.3672 41.6589 62.5132 41.2782 62.5351ZM10.1154 59.0467H39.8828L43.0456 44.7444C43.0719 44.6376 43.066 44.5255 43.0288 44.4221C42.9915 44.3186 42.9246 44.2285 42.8363 44.163C42.7429 44.0913 42.6285 44.0525 42.5107 44.0525C42.393 44.0525 42.2786 44.0913 42.1852 44.163L37.2317 47.1165C36.7692 47.3972 36.2554 47.583 35.7204 47.6628C35.1853 47.7427 34.6397 47.7151 34.1154 47.5816C33.0577 47.292 32.1558 46.5989 31.6038 45.6513L25.5107 34.9537C25.2084 34.442 24.7898 34.442 24.4875 34.9537L18.3945 45.6281C17.8424 46.5757 16.9406 47.2687 15.8828 47.5583C15.3586 47.6918 14.8129 47.7194 14.2779 47.6396C13.7428 47.5597 13.229 47.374 12.7666 47.0932L7.81307 44.1397C7.71966 44.0681 7.60522 44.0292 7.48748 44.0292C7.36975 44.0292 7.25531 44.0681 7.1619 44.1397C7.07364 44.2052 7.00669 44.2954 6.96945 44.3988C6.93222 44.5022 6.92636 44.6144 6.9526 44.7211L10.1154 59.0467Z" fill="#1C3048"/>
<path id="Vector_2" d="M24.9988 28.814C26.6043 28.814 27.9058 27.5125 27.9058 25.907C27.9058 24.3015 26.6043 23 24.9988 23C23.3933 23 22.0918 24.3015 22.0918 25.907C22.0918 27.5125 23.3933 28.814 24.9988 28.814Z" fill="#1C3048"/>
<path id="Vector_3" d="M2.90698 40.4416C4.51246 40.4416 5.81395 39.1401 5.81395 37.5347C5.81395 35.9292 4.51246 34.6277 2.90698 34.6277C1.3015 34.6277 0 35.9292 0 37.5347C0 39.1401 1.3015 40.4416 2.90698 40.4416Z" fill="#1C3048"/>
<path id="Vector_4" d="M47.0945 40.4419C48.7 40.4419 50.0015 39.1404 50.0015 37.5349C50.0015 35.9294 48.7 34.6279 47.0945 34.6279C45.489 34.6279 44.1875 35.9294 44.1875 37.5349C44.1875 39.1404 45.489 40.4419 47.0945 40.4419Z" fill="#1C3048"/>
<path id="Vector_5" d="M38.1395 69.5116H11.8604C10.8929 69.5131 9.95656 69.1697 9.21926 68.5432C8.48197 67.9168 7.99199 67.0481 7.83719 66.093L6.99998 61.0698C6.95843 60.8188 6.97229 60.5618 7.04059 60.3167C7.10888 60.0717 7.22996 59.8445 7.39532 59.6512C7.55755 59.4583 7.76067 59.304 7.98995 59.1994C8.21924 59.0948 8.46893 59.0426 8.72091 59.0465H41.279C41.531 59.0426 41.7807 59.0948 42.01 59.1994C42.2393 59.304 42.4424 59.4583 42.6046 59.6512C42.77 59.8445 42.8911 60.0717 42.9594 60.3167C43.0277 60.5618 43.0415 60.8188 43 61.0698L42.1628 66.093C42.008 67.0481 41.518 67.9168 40.7807 68.5432C40.0434 69.1697 39.107 69.5131 38.1395 69.5116ZM10.7674 62.5349L11.279 65.5349C11.3013 65.6725 11.3723 65.7975 11.479 65.8871C11.5857 65.9767 11.7211 66.0251 11.8604 66.0233H38.1395C38.2789 66.0251 38.4142 65.9767 38.5209 65.8871C38.6277 65.7975 38.6986 65.6725 38.7209 65.5349L39.2325 62.5349H10.7674Z" fill="#1C3048"/>
</g>
</g>
<defs>
<linearGradient id="paint0_linear_2321_232" x1="61.3071" y1="6.85256e-06" x2="14.5074" y2="1.60992" gradientUnits="userSpaceOnUse">
<stop stop-color="#5961F8"/>
<stop offset="1" stop-color="#15D8C5"/>
<stop offset="1" stop-color="#15D8C5"/>
</linearGradient>
</defs>
</svg>
