<svg width="16" height="20" viewBox="0 0 16 20" fill="none" xmlns="http://www.w3.org/2000/svg">
<path fill-rule="evenodd" clip-rule="evenodd" d="M12.0554 9.98938C10.9624 11.0824 9.48015 11.6962 7.93453 11.6962C6.39116 11.6891 4.91304 11.0729 3.82171 9.98153C2.73037 8.8902 2.11412 7.41209 2.10683 5.86871C2.10683 4.32309 2.72085 2.84067 3.81367 1.74785C4.90668 0.655032 6.38891 0.0410156 7.93453 0.0410156C9.48015 0.0410156 10.9624 0.655032 12.0554 1.74785C13.1482 2.84067 13.7622 4.32309 13.7622 5.86871C13.7622 7.41414 13.1482 8.89657 12.0554 9.98938ZM11.7377 12.1611C11.8404 12.041 11.99 11.9713 12.148 11.9696C13.1518 11.9767 14.1108 12.3861 14.8102 13.1062C15.5095 13.8261 15.8911 14.7966 15.869 15.8V19.4937C15.869 19.6389 15.8114 19.778 15.7087 19.8807C15.6061 19.9832 15.4669 20.041 15.3218 20.041H0.547357C0.402222 20.041 0.263068 19.9832 0.160388 19.8807C0.0577043 19.778 9.95002e-05 19.6389 9.95002e-05 19.4937V15.8C-0.00722618 14.7867 0.390228 13.8125 1.10431 13.0933C1.81821 12.3741 2.78984 11.9696 3.80318 11.9696C3.96122 11.9713 4.11085 12.041 4.21353 12.1611C5.19957 13.2689 6.61578 13.8972 8.09877 13.8848C9.49553 13.8287 10.8092 13.2062 11.7377 12.1611Z" fill="url(#paint0_linear_503_134)"/>
<defs>
<linearGradient id="paint0_linear_503_134" x1="15.9782" y1="0.0410187" x2="-0.533622" y2="0.491731" gradientUnits="userSpaceOnUse">
<stop stop-color="#21C2CE"/>
<stop offset="1" stop-color="#15D8C5"/>
<stop offset="1" stop-color="#15D7C5"/>
</linearGradient>
</defs>
</svg>
