<svg width="20" height="20" viewBox="0 0 20 20" fill="none" xmlns="http://www.w3.org/2000/svg">
<g clip-path="url(#clip0_27_9381)">
<g clip-path="url(#clip1_27_9381)">
<path d="M9.93317 11.6962C11.4788 11.6962 12.961 11.0824 14.054 9.98938C15.1468 8.89657 15.7609 7.41414 15.7609 5.86871C15.7609 4.32309 15.1468 2.84067 14.054 1.74785C12.961 0.655032 11.4788 0.0410156 9.93317 0.0410156C8.38754 0.0410156 6.90531 0.655032 5.8123 1.74785C4.71948 2.84067 4.10547 4.32309 4.10547 5.86871C4.11276 7.41209 4.72901 8.8902 5.82035 9.98153C6.91168 11.0729 8.38979 11.6891 9.93317 11.6962Z" fill="#D5D8E3"/>
<path d="M14.148 11.9697C13.99 11.9714 13.8404 12.0412 13.7377 12.1612C12.8092 13.2064 11.4955 13.8288 10.0988 13.8849C8.61578 13.8973 7.19957 13.2691 6.21353 12.1612C6.11085 12.0412 5.96122 11.9714 5.80318 11.9697C4.78984 11.9697 3.81821 12.3743 3.10431 13.0934C2.39023 13.8126 1.99277 14.7868 2.0001 15.8001V19.4939C2.0001 19.639 2.0577 19.7782 2.16039 19.8808C2.26307 19.9833 2.40222 20.0411 2.54736 20.0411H17.3218C17.4669 20.0411 17.6061 19.9833 17.7087 19.8808C17.8114 19.7782 17.869 19.639 17.869 19.4939V15.8001C17.8911 14.7967 17.5095 13.8262 16.8102 13.1063C16.1108 12.3862 15.1518 11.9768 14.148 11.9697Z" fill="#ABB2C7"/>
</g>
</g>
<defs>
<clipPath id="clip0_27_9381">
<rect width="20" height="20" fill="white"/>
</clipPath>
<clipPath id="clip1_27_9381">
<rect width="20" height="20" fill="white"/>
</clipPath>
</defs>
</svg>
