<svg width="61" height="71" viewBox="0 0 61 71" fill="none" xmlns="http://www.w3.org/2000/svg">
<g id="Logo">
<circle id="Ellipse 93" opacity="0.2" cx="38.5" cy="22.5" r="22.5" fill="url(#paint0_linear_2321_168)"/>
<g id="Group 35826">
<g id="g653">
<g id="Clip path group">
<mask id="mask0_2321_168" style="mask-type:luminance" maskUnits="userSpaceOnUse" x="0" y="21" width="50" height="50">
<g id="clipPath659">
<path id="path657" d="M0 21H50V71H0V21Z" fill="white"/>
</g>
</mask>
<g mask="url(#mask0_2321_168)">
<g id="g655">
<g id="g661">
<path id="path663" d="M42.3242 43.6838H46.7098" stroke="#1C3048" stroke-width="3" stroke-miterlimit="10" stroke-linecap="round" stroke-linejoin="round"/>
</g>
<g id="g665">
<path id="path667" d="M25 26.3621V21.9765" stroke="#1C3048" stroke-width="3" stroke-miterlimit="10" stroke-linecap="round" stroke-linejoin="round"/>
</g>
</g>
</g>
</g>
</g>
<g id="g669">
<path id="path671" d="M12.7554 31.4361L9.6543 28.335" stroke="#1C3048" stroke-width="3" stroke-miterlimit="10" stroke-linecap="round" stroke-linejoin="round"/>
</g>
<g id="g673">
<g id="Clip path group_2">
<mask id="mask1_2321_168" style="mask-type:luminance" maskUnits="userSpaceOnUse" x="0" y="21" width="50" height="50">
<g id="clipPath679">
<path id="path677" d="M0 21H50V71H0V21Z" fill="white"/>
</g>
</mask>
<g mask="url(#mask1_2321_168)">
<g id="g675">
<g id="g681">
<path id="path683" d="M7.67851 43.684H3.29297" stroke="#1C3048" stroke-width="3" stroke-miterlimit="10" stroke-linecap="round" stroke-linejoin="round"/>
</g>
</g>
</g>
</g>
</g>
<g id="g685">
<path id="path687" d="M12.7554 55.9337L9.6543 59.0348" stroke="#1C3048" stroke-width="3" stroke-miterlimit="10" stroke-linecap="round" stroke-linejoin="round"/>
</g>
<g id="g689">
<path id="path691" d="M37.25 55.9337L40.3511 59.0348" stroke="#1C3048" stroke-width="3" stroke-miterlimit="10" stroke-linecap="round" stroke-linejoin="round"/>
</g>
<g id="g693">
<path id="path695" d="M37.25 31.4361L40.3511 28.335" stroke="#1C3048" stroke-width="3" stroke-miterlimit="10" stroke-linecap="round" stroke-linejoin="round"/>
</g>
<g id="g697">
<g id="Clip path group_3">
<mask id="mask2_2321_168" style="mask-type:luminance" maskUnits="userSpaceOnUse" x="0" y="21" width="50" height="50">
<g id="clipPath703">
<path id="path701" d="M0 21H50V71H0V21Z" fill="white"/>
</g>
</mask>
<g mask="url(#mask2_2321_168)">
<g id="g699">
<g id="g705">
<path id="path707" d="M37.9374 43.6844C37.9374 36.4179 31.9462 30.5506 24.634 30.753C17.6229 30.947 12.0911 36.6206 12.0645 43.6342C12.0516 47.0459 13.3595 50.1515 15.506 52.4698C17.0532 54.141 17.9393 56.3176 17.9393 58.5952L17.8826 64.5112C17.8744 65.3677 18.5664 66.0665 19.423 66.0665H30.5786C31.4352 66.0665 32.1273 65.3675 32.1189 64.5109L32.0625 58.7324C32.0625 56.4259 32.9012 54.1832 34.4726 52.4949C36.6222 50.1853 37.9374 47.0886 37.9374 43.6844Z" stroke="#1C3048" stroke-width="3" stroke-miterlimit="10" stroke-linecap="round" stroke-linejoin="round"/>
</g>
<g id="g709">
<path id="path711" d="M32.0959 61.9584H17.9082" stroke="#1C3048" stroke-width="3" stroke-miterlimit="10" stroke-linecap="round" stroke-linejoin="round"/>
</g>
<g id="g713">
<path id="path715" d="M21.0957 57.8507H17.9082" stroke="#1C3048" stroke-width="3" stroke-miterlimit="10" stroke-linecap="round" stroke-linejoin="round"/>
</g>
<g id="g717">
<path id="path719" d="M32.0957 57.8507H28.9082" stroke="#1C3048" stroke-width="3" stroke-miterlimit="10" stroke-linecap="round" stroke-linejoin="round"/>
</g>
<g id="g721">
<path id="path723" d="M25.9785 57.8507C25.9785 58.3901 25.5412 58.8273 25.002 58.8273C24.4626 58.8273 24.0254 58.3901 24.0254 57.8507C24.0254 57.3115 24.4626 56.8741 25.002 56.8741C25.5412 56.8741 25.9785 57.3115 25.9785 57.8507Z" fill="#1C3048"/>
</g>
<g id="g725">
<path id="path727" d="M28.9593 66.0663C28.9593 68.2371 27.1729 70.0234 25.0021 70.0234C22.8312 70.0234 21.0449 68.2371 21.0449 66.0663" stroke="#1C3048" stroke-width="3" stroke-miterlimit="10" stroke-linecap="round" stroke-linejoin="round"/>
</g>
</g>
</g>
</g>
</g>
</g>
</g>
<defs>
<linearGradient id="paint0_linear_2321_168" x1="61.3071" y1="6.85256e-06" x2="14.5074" y2="1.60992" gradientUnits="userSpaceOnUse">
<stop stop-color="#5961F8"/>
<stop offset="1" stop-color="#15D8C5"/>
<stop offset="1" stop-color="#15D8C5"/>
</linearGradient>
</defs>
</svg>
