<svg width="20" height="20" viewBox="0 0 20 20" fill="none" xmlns="http://www.w3.org/2000/svg">
<g id="subscribe 1">
<g id="Ebene 2">
<path id="Vector" d="M9.37103 13.6664C9.51583 13.6925 9.66508 13.6604 9.78638 13.5771C9.90768 13.4939 9.99124 13.3661 10.0189 13.2216C10.0556 13.0328 10.0744 12.841 10.0752 12.6487C10.0752 11.3341 9.25072 10.193 8.05228 9.63776C8.3148 9.40782 8.52522 9.1245 8.66947 8.80672C8.81372 8.48894 8.88847 8.14404 8.88874 7.79505C8.88874 6.43255 7.76738 5.32422 6.38874 5.32422C5.01009 5.32422 3.88874 6.43255 3.88874 7.79505C3.88907 8.14721 3.9652 8.49516 4.11196 8.81528C4.25872 9.1354 4.47266 9.42018 4.73926 9.65026C3.55332 10.2091 2.73926 11.3435 2.73926 12.6497C2.74038 12.8411 2.75904 13.032 2.79499 13.2201C2.81867 13.3476 2.88619 13.4629 2.98586 13.5459C3.08554 13.6289 3.2111 13.6745 3.34082 13.6747C3.37473 13.675 3.40857 13.6718 3.44186 13.6654C3.51365 13.6521 3.58213 13.6249 3.64339 13.5852C3.70465 13.5455 3.75749 13.4941 3.79889 13.434C3.84029 13.3739 3.86945 13.3062 3.88468 13.2348C3.89992 13.1634 3.90094 13.0898 3.8877 13.018C3.86407 12.8966 3.85152 12.7734 3.85019 12.6497C3.85019 11.4039 4.99603 10.3909 6.40801 10.3909C7.81999 10.3909 8.9653 11.4039 8.9653 12.6497C8.96412 12.7732 8.95157 12.8963 8.9278 13.0174C8.91422 13.0892 8.91493 13.1629 8.92986 13.2343C8.9448 13.3058 8.97367 13.3736 9.01484 13.4338C9.05601 13.4941 9.10866 13.5457 9.16978 13.5856C9.2309 13.6255 9.29928 13.653 9.37103 13.6664ZM6.38874 6.43724C7.15436 6.43724 7.7778 7.04766 7.7778 7.79714C7.7778 8.54661 7.1528 9.15755 6.38874 9.15755C5.62467 9.15755 4.99967 8.54609 4.99967 7.79609C4.99967 7.04609 5.62467 6.4362 6.38874 6.4362V6.43724Z" fill="#ABB2C7"/>
<path id="Vector_2" d="M16.3572 6.2437L12.6869 9.82495L11.4067 8.54318C11.3017 8.44319 11.1618 8.38821 11.0168 8.38996C10.8718 8.39172 10.7332 8.45007 10.6307 8.55256C10.5281 8.65506 10.4697 8.79358 10.4678 8.93856C10.466 9.08355 10.5209 9.22352 10.6208 9.3286L12.6786 11.3864L17.1343 7.03901C17.2398 6.93617 17.3001 6.79565 17.3019 6.64835C17.3038 6.50106 17.2471 6.35906 17.1442 6.25359C17.0414 6.14813 16.9008 6.08784 16.7536 6.08598C16.6063 6.08413 16.4643 6.14086 16.3588 6.2437H16.3572Z" fill="#ABB2C7"/>
<path id="Vector_3" d="M19.4448 6.44479C19.5921 6.44465 19.7333 6.38604 19.8374 6.28184C19.9415 6.17763 20 6.03636 20 5.88906V4.2224C19.9994 3.63324 19.7652 3.06836 19.3486 2.65172C18.9321 2.23507 18.3673 2.00069 17.7781 2H2.2224C1.63319 2.00069 1.06832 2.23506 0.651686 2.65169C0.235055 3.06832 0.000689209 3.63319 0 4.2224V14.7781C0.00068946 15.3673 0.235072 15.9321 0.651718 16.3486C1.06836 16.7652 1.63324 16.9994 2.2224 17H6.50052C6.57358 16.9999 6.64594 17.0142 6.71343 17.0422C6.78092 17.0702 6.8422 17.1112 6.89375 17.163L9.21406 19.4833C9.31727 19.5865 9.4398 19.6684 9.57465 19.7243C9.7095 19.7801 9.85404 19.8089 10 19.8089C10.146 19.8089 10.2905 19.7801 10.4253 19.7243C10.5602 19.6684 10.6827 19.5865 10.7859 19.4833L13.1063 17.163C13.2106 17.0591 13.3517 17.0005 13.499 17H17.7781C18.3672 16.9993 18.9319 16.765 19.3485 16.3485C19.765 15.9319 19.9993 15.3672 20 14.7781V8.66667C19.9956 8.52229 19.9351 8.38531 19.8314 8.28475C19.7277 8.18419 19.589 8.12795 19.4445 8.12795C19.3001 8.12795 19.1613 8.18419 19.0576 8.28475C18.9539 8.38531 18.8935 8.52229 18.8891 8.66667V14.7781C18.8886 15.0726 18.7715 15.355 18.5632 15.5632C18.355 15.7715 18.0726 15.8886 17.7781 15.8891H13.499C13.2802 15.8882 13.0635 15.9307 12.8613 16.0141C12.6591 16.0975 12.4754 16.2202 12.3208 16.375L10 18.6979L7.67917 16.375C7.52472 16.2198 7.34103 16.0967 7.13871 16.013C6.9364 15.9292 6.71949 15.8864 6.50052 15.887H2.2224C1.92784 15.8867 1.64543 15.7696 1.43715 15.5613C1.22887 15.353 1.11173 15.0706 1.11146 14.776V4.2224C1.11173 3.92784 1.22887 3.64543 1.43715 3.43715C1.64543 3.22887 1.92784 3.11173 2.2224 3.11146H17.7781C18.0726 3.11187 18.355 3.22905 18.5632 3.4373C18.7715 3.64555 18.8886 3.92788 18.8891 4.2224V5.88906C18.8891 6.03645 18.9476 6.1778 19.0518 6.28202C19.156 6.38624 19.2974 6.44479 19.4448 6.44479Z" fill="#ABB2C7"/>
</g>
</g>
</svg>
