<svg width="20" height="20" viewBox="0 0 20 20" fill="none" xmlns="http://www.w3.org/2000/svg">
<g id="layout">
<path id="Union" fill-rule="evenodd" clip-rule="evenodd" d="M2.06563 2.40625C2.15 2.21875 2.20625 2.15937 2.39062 2.075L2.54688 2H5.67188C8.63125 2 8.80312 2.00312 8.92188 2.05937C9.08125 2.13125 9.2375 2.29062 9.2875 2.43437C9.31875 2.52187 9.32812 3.35312 9.32812 6.35937V10.1719L9.25 10.3125C9.20625 10.3875 9.10938 10.4937 9.0375 10.5469L8.9 10.6406L5.725 10.65L5.19326 10.6515C2.6654 10.6587 2.39777 10.6594 2.25514 10.5263C2.23825 10.5105 2.22312 10.4929 2.20619 10.4731C2.19658 10.4619 2.1864 10.4501 2.175 10.4375C2.11563 10.3719 2.05313 10.2625 2.03438 10.1969C2.0125 10.1156 2 8.87187 2 6.3125C2 2.59375 2.00313 2.54375 2.06563 2.40625ZM10.7125 2.43457C10.7625 2.29082 10.9187 2.13145 11.0781 2.05957C11.1969 2.00332 11.3687 2.0002 14.3281 2.0002C17.4031 2.0002 17.4563 2.00332 17.5938 2.06582C17.7812 2.1502 17.8406 2.20645 17.925 2.39082L18 2.54707V5.0002V7.45332L17.925 7.60957C17.8406 7.79395 17.7812 7.8502 17.5938 7.93457C17.4563 7.99707 17.4031 8.0002 14.3281 8.0002C11.3687 8.0002 11.1969 7.99707 11.0781 7.94082C10.9187 7.86895 10.7625 7.70957 10.7125 7.56582C10.6531 7.40332 10.6531 2.59707 10.7125 2.43457ZM11.0938 9.37832C10.9563 9.43457 10.8125 9.5627 10.7406 9.69707L10.6719 9.82832V13.6408C10.6719 16.6471 10.6812 17.4783 10.7125 17.5658C10.7625 17.7096 10.9187 17.8689 11.0781 17.9408C11.1969 17.9971 11.3687 18.0002 14.3281 18.0002C17.4031 18.0002 17.4563 17.9971 17.5938 17.9346C17.7812 17.8502 17.8406 17.7939 17.925 17.6096L18 17.4533V13.6877C18 11.1564 17.9875 9.88457 17.9656 9.80332C17.925 9.6502 17.7688 9.4752 17.6094 9.40332C17.4906 9.34707 17.3156 9.34395 14.3281 9.34707C12.3313 9.34707 11.1438 9.35957 11.0938 9.37832ZM2.06563 12.4064C2.15 12.2189 2.20625 12.1596 2.39062 12.0752L2.54688 12.0002H5.67188C8.63125 12.0002 8.80312 12.0033 8.92188 12.0596C9.08125 12.1314 9.2375 12.2908 9.2875 12.4346C9.34688 12.5971 9.34688 17.4033 9.2875 17.5658C9.2375 17.7096 9.08125 17.8689 8.92188 17.9408C8.80312 17.9971 8.63125 18.0002 5.67188 18.0002H2.54688L2.39062 17.9252C2.20625 17.8408 2.15 17.7814 2.06563 17.5939C2.00313 17.4564 2 17.4002 2 15.0002C2 12.6002 2.00313 12.5439 2.06563 12.4064Z" fill="url(#paint0_linear_1163_6456)"/>
</g>
<defs>
<linearGradient id="paint0_linear_1163_6456" x1="18.1092" y1="2" x2="1.46929" y2="2.57241" gradientUnits="userSpaceOnUse">
<stop stop-color="#21C2CE"/>
<stop offset="1" stop-color="#15D8C5"/>
<stop offset="1" stop-color="#15D7C5"/>
</linearGradient>
</defs>
</svg>
