<svg width="20" height="20" viewBox="0 0 20 20" fill="none" xmlns="http://www.w3.org/2000/svg">
<g id="layout">
<g id="Group">
<path id="Vector" d="M2.39062 2.07334C2.20625 2.15771 2.15 2.21709 2.06563 2.40459C2.00313 2.54209 2 2.59209 2 6.31084C2 8.87021 2.0125 10.114 2.03438 10.1952C2.05313 10.2608 2.11563 10.3702 2.175 10.4358C2.3875 10.6702 2.175 10.6577 5.725 10.6483L8.9 10.639L9.0375 10.5452C9.10938 10.4921 9.20625 10.3858 9.25 10.3108L9.32812 10.1702V6.35771C9.32812 3.35146 9.31875 2.52021 9.2875 2.43271C9.2375 2.28896 9.08125 2.12959 8.92188 2.05771C8.80312 2.00146 8.63125 1.99834 5.67188 1.99834H2.54688L2.39062 2.07334Z" fill="#ABB2C7"/>
<path id="Vector_2" d="M11.0781 2.05937C10.9188 2.13125 10.7625 2.29063 10.7125 2.43437C10.6531 2.59687 10.6531 7.40312 10.7125 7.56562C10.7625 7.70937 10.9188 7.86875 11.0781 7.94063C11.1969 7.99687 11.3688 8 14.3281 8C17.4031 8 17.4563 7.99687 17.5938 7.93437C17.7812 7.85 17.8406 7.79375 17.925 7.60938L18 7.45312V5V2.54688L17.925 2.39062C17.8406 2.20625 17.7812 2.15 17.5938 2.06562C17.4563 2.00312 17.4031 2 14.3281 2C11.3688 2 11.1969 2.00312 11.0781 2.05937Z" fill="#ABB2C7"/>
<path id="Vector_3" d="M11.0938 9.37813C10.9563 9.43437 10.8125 9.5625 10.7406 9.69687L10.6719 9.82812V13.6406C10.6719 16.6469 10.6813 17.4781 10.7125 17.5656C10.7625 17.7094 10.9188 17.8687 11.0781 17.9406C11.1969 17.9969 11.3688 18 14.3281 18C17.4031 18 17.4563 17.9969 17.5938 17.9344C17.7812 17.85 17.8406 17.7938 17.925 17.6094L18 17.4531V13.6875C18 11.1562 17.9875 9.88437 17.9656 9.80312C17.925 9.65 17.7688 9.475 17.6094 9.40312C17.4906 9.34688 17.3156 9.34375 14.3281 9.34688C12.3313 9.34688 11.1438 9.35938 11.0938 9.37813Z" fill="#ABB2C7"/>
<path id="Vector_4" d="M2.39062 12.075C2.20625 12.1594 2.15 12.2188 2.06563 12.4062C2.00313 12.5437 2 12.6 2 15C2 17.4 2.00313 17.4563 2.06563 17.5938C2.15 17.7812 2.20625 17.8406 2.39062 17.925L2.54688 18H5.67188C8.63125 18 8.80312 17.9969 8.92188 17.9406C9.08125 17.8687 9.2375 17.7094 9.2875 17.5656C9.34688 17.4031 9.34688 12.5969 9.2875 12.4344C9.2375 12.2906 9.08125 12.1312 8.92188 12.0594C8.80312 12.0031 8.63125 12 5.67188 12H2.54688L2.39062 12.075Z" fill="#ABB2C7" fill-opacity="0.5"/>
</g>
</g>
</svg>
