<svg width="50" height="50" viewBox="0 0 50 50" fill="none" xmlns="http://www.w3.org/2000/svg">
<g id="text 1" clip-path="url(#clip0_2321_163)">
<path id="Vector" d="M31.0943 17.5817V14.5325C31.0943 13.7203 30.4359 13.0619 29.6238 13.0619H14.6874C13.8752 13.0619 13.2168 13.7203 13.2168 14.5325V17.5817C13.2168 18.3938 13.8752 19.0523 14.6874 19.0523C15.4995 19.0523 16.158 18.3938 16.158 17.5817V16.0031H20.6849V28.3076H19.6562C18.8441 28.3076 18.1856 28.966 18.1856 29.7782C18.1856 30.5903 18.8441 31.2488 19.6562 31.2488H24.6547C25.4669 31.2488 26.1253 30.5903 26.1253 29.7782C26.1253 28.966 25.4669 28.3076 24.6547 28.3076H23.626V16.0031H28.153V17.5817C28.153 18.3938 28.8114 19.0523 29.6236 19.0523C30.4357 19.0523 31.0943 18.3938 31.0943 17.5817Z" fill="#1C3048"/>
<path id="Vector_2" d="M49.5693 42.9854L43.7872 37.2031L47.1116 33.8787C47.9595 33.0308 47.4871 31.5715 46.2986 31.3859L40.2443 30.4405V10.8736C42.5857 10.2278 44.3109 8.08059 44.3109 5.53667C44.3107 2.48373 41.827 0 38.774 0C36.2304 0 34.0833 1.72471 33.4373 4.06569H10.8734C10.2274 1.72471 8.08029 0 5.53667 0C2.48373 0 0 2.48373 0 5.53667C0 8.08029 1.72471 10.2274 4.06569 10.8734V33.4373C1.72471 34.0833 0 36.2304 0 38.774C0 41.827 2.48373 44.3107 5.53667 44.3107C8.08059 44.3107 10.2278 42.5856 10.8736 40.2441H30.4406L31.386 46.2984C31.5713 47.4853 33.0299 47.9606 33.8788 47.1114L37.2032 43.787L42.9855 49.5691C43.5597 50.1434 44.4909 50.1435 45.0652 49.5691L49.5693 45.065C50.1435 44.4908 50.1435 43.5597 49.5693 42.9854ZM38.774 2.94118C40.2052 2.94118 41.3695 4.10549 41.3695 5.53667C41.3695 6.96784 40.2052 8.13216 38.774 8.13216C37.3428 8.13216 36.1785 6.96784 36.1785 5.53667C36.1785 4.10549 37.3429 2.94118 38.774 2.94118ZM2.94118 5.53667C2.94118 4.10549 4.10559 2.94118 5.53667 2.94118C6.96775 2.94118 8.13216 4.10549 8.13216 5.53667C8.13216 6.96784 6.96784 8.13216 5.53667 8.13216C4.10549 8.13216 2.94118 6.96784 2.94118 5.53667ZM5.53667 41.3695C4.10559 41.3695 2.94118 40.2052 2.94118 38.774C2.94118 37.3428 4.10549 36.1785 5.53667 36.1785C6.96784 36.1785 8.13216 37.3428 8.13216 38.774C8.13216 40.2052 6.96784 41.3695 5.53667 41.3695ZM10.8733 37.3029C10.3566 35.4305 8.87941 33.9535 7.00686 33.4371V10.8736C8.87971 10.3571 10.357 8.87971 10.8736 7.00686H33.4371C33.9535 8.87941 35.4305 10.3566 37.3029 10.8733V29.9814L30.6173 28.9375C29.6341 28.7834 28.7838 29.6337 28.9375 30.6173L29.9814 37.3029H10.8733ZM44.0253 46.4497L38.243 40.6676C37.6688 40.0932 36.7377 40.0931 36.1633 40.6676L33.8454 42.9855L32.1541 32.1542L42.9854 33.8455L40.6675 36.1634C40.0931 36.7377 40.0931 37.6688 40.6675 38.2431L46.4496 44.0254L44.0253 46.4497Z" fill="#1C3048"/>
</g>
<defs>
<clipPath id="clip0_2321_163">
<rect width="50" height="50" fill="white"/>
</clipPath>
</defs>
</svg>
