<svg width="36" height="36" viewBox="0 0 36 36" fill="none" xmlns="http://www.w3.org/2000/svg">
<path d="M31.3452 7.45015L18.4424 3.1224C17.2215 2.71289 15.8953 3.37302 15.4858 4.59379L15.3156 5.10123C15.2315 5.35192 14.2471 9.13912 14.2471 9.88918C15.3156 10.222 16.1394 5.65655 16.2236 5.40574L16.3938 4.89829C16.6354 4.17809 17.4176 3.78867 18.1379 4.03028L31.0408 8.35797C31.761 8.59958 32.1503 9.38193 31.9088 10.1021L25.9055 28.0006C25.8214 28.2512 25.9565 28.5226 26.2073 28.6068C26.2578 28.6237 26.3091 28.6318 26.3596 28.6318C26.5597 28.6318 26.7463 28.5053 26.8135 28.3051L32.8168 10.4067C33.2262 9.186 32.5661 7.8596 31.3452 7.45015Z" fill="#1C3048" stroke="#1C3048" stroke-width="1.05"/>
<path d="M23.4445 9.45215H9.83528C8.54761 9.45215 7.5 10.4997 7.5 11.7874V30.6658C7.5 31.9534 8.54761 33.001 9.83528 33.001H23.4446C24.7322 33.001 25.7798 31.9534 25.7798 30.6658V11.7874C25.7798 10.4997 24.7322 9.45215 23.4445 9.45215ZM24.8221 30.6658C24.8221 31.4254 24.2041 32.0433 23.4445 32.0433H9.83528C9.07565 32.0433 8.45769 31.4253 8.45769 30.6658V11.7874C8.45769 11.0277 9.07571 10.4098 9.83528 10.4098H23.4446C24.2042 10.4098 24.8221 11.0278 24.8221 11.7874V30.6658H24.8221Z" fill="#1C3048" stroke="#1C3048" stroke-width="1.05"/>
<path d="M23.6949 22.668H9.58724C9.32279 22.668 9.1084 22.8824 9.1084 23.1468C9.1084 23.4113 9.32279 23.6257 9.58724 23.6257H23.695C23.9594 23.6257 24.1738 23.4113 24.1738 23.1468C24.1737 22.8824 23.9593 22.668 23.6949 22.668Z" fill="#1C3048" stroke="#1C3048" stroke-width="1.05"/>
<path d="M21.462 25.5723H15.5326C15.2681 25.5723 15.0537 25.7867 15.0537 26.0511C15.0537 26.3156 15.2681 26.53 15.5326 26.53H21.462C21.7265 26.53 21.9409 26.3156 21.9409 26.0511C21.9409 25.7867 21.7265 25.5723 21.462 25.5723Z" fill="#1C3048" stroke="#1C3048" stroke-width="1.05"/>
<path d="M21.4629 28.7793H11.8197C11.5552 28.7793 11.3408 28.9937 11.3408 29.2581C11.3408 29.5226 11.5552 29.737 11.8197 29.737H21.4629C21.7273 29.737 21.9417 29.5226 21.9417 29.2581C21.9417 28.9937 21.7273 28.7793 21.4629 28.7793Z" fill="#1C3048" stroke="#1C3048" stroke-width="1.05"/>
<path d="M21.9065 15.0073C21.8502 14.8339 21.7004 14.7076 21.52 14.6814L18.4473 14.2349L17.0731 11.4505C16.9924 11.2871 16.826 11.1836 16.6437 11.1836C16.4615 11.1836 16.295 11.2871 16.2143 11.4505L14.8401 14.2349L11.7673 14.6814C11.587 14.7076 11.4371 14.8339 11.3809 15.0073C11.3245 15.1806 11.3715 15.3709 11.502 15.4981L13.7255 17.6654L13.2006 20.7258C13.1698 20.9054 13.2437 21.087 13.3911 21.1941C13.4745 21.2547 13.5733 21.2855 13.6726 21.2855C13.7487 21.2855 13.8253 21.2673 13.8954 21.2306L16.6437 19.7856L19.3921 21.2306C19.5534 21.3154 19.7489 21.3012 19.8963 21.1941C20.0438 21.087 20.1176 20.9054 20.0868 20.7258L19.5619 17.6654L21.7854 15.4981C21.9158 15.3709 21.9628 15.1806 21.9065 15.0073Z" fill="#1C3048"/>
<path d="M14.7119 17.5792L14.3084 19.9315L16.4209 18.8208C16.5603 18.7476 16.7269 18.7476 16.8665 18.8208L18.9789 19.9315L18.5755 17.5792C18.5488 17.4239 18.6003 17.2654 18.7132 17.1554L20.4222 15.4896L18.0604 15.1463C17.9044 15.1237 17.7696 15.0257 17.6998 14.8844L16.6437 12.7442L15.5875 14.8844C15.5177 15.0257 15.3829 15.1237 15.227 15.1463L12.8652 15.4896M21.9065 15.0073C21.8502 14.8339 21.7004 14.7076 21.52 14.6814L18.4473 14.2349L17.0731 11.4505C16.9924 11.2871 16.826 11.1836 16.6437 11.1836C16.4615 11.1836 16.295 11.2871 16.2143 11.4505L14.8401 14.2349L11.7673 14.6814C11.587 14.7076 11.4371 14.8339 11.3809 15.0073C11.3245 15.1806 11.3715 15.3709 11.502 15.4981L13.7255 17.6654L13.2006 20.7258C13.1698 20.9054 13.2437 21.087 13.3911 21.1941C13.4745 21.2547 13.5733 21.2855 13.6726 21.2855C13.7487 21.2855 13.8253 21.2673 13.8954 21.2306L16.6437 19.7856L19.3921 21.2306C19.5534 21.3154 19.7489 21.3012 19.8963 21.1941C20.0438 21.087 20.1176 20.9054 20.0868 20.7258L19.5619 17.6654L21.7854 15.4981C21.9158 15.3709 21.9628 15.1806 21.9065 15.0073Z" stroke="#1C3048" stroke-width="0.45"/>
</svg>
