<svg width="743" height="200" viewBox="0 0 743 200" fill="none" xmlns="http://www.w3.org/2000/svg">
<g filter="url(#filter0_i_385_162)">
<path fill-rule="evenodd" clip-rule="evenodd" d="M0 99.8763C0 155.054 44.7668 199.89 99.9445 199.89C106.816 199.89 113.617 199.196 120.35 197.877L111.188 156.928C103.276 158.524 95.2249 158.385 87.382 156.65C56.08 149.64 36.2993 118.685 43.3093 87.3833C50.3193 56.0812 81.2743 36.37 112.576 43.3106L121.183 2.22229C114.173 0.76477 107.093 0.0013019 99.9445 0.0013019C86.5491 -0.0681039 73.2926 2.63873 61.0078 7.84416C24.0144 23.4605 0 59.7597 0 99.8763ZM157.967 181.358V199.89V199.959H199.889V93.5601H199.68C198.986 82.3857 196.418 71.4196 192.046 61.0781C186.979 49.2097 179.761 38.3824 170.599 29.2902C161.507 20.1287 150.68 12.8411 138.811 7.84383C135.133 6.3169 131.454 4.99819 127.637 3.8877L118.892 45.1148C142.212 53.2353 157.898 75.2369 157.898 99.9454C157.967 125.14 141.657 147.488 117.643 155.192L127.568 196.003C131.385 194.893 135.133 193.574 138.811 192.047C145.613 189.201 151.998 185.592 157.967 181.358Z" fill="url(#paint0_linear_385_162)"/>
</g>
<path d="M292.8 83.2003H278.397C277.843 80.1226 276.812 77.4143 275.304 75.0753C273.796 72.7363 271.949 70.7512 269.764 69.12C267.579 67.4889 265.132 66.2578 262.424 65.4268C259.746 64.5959 256.899 64.1804 253.883 64.1804C248.436 64.1804 243.558 65.55 239.249 68.2891C234.971 71.0282 231.586 75.0445 229.093 80.3381C226.631 85.6316 225.4 92.0947 225.4 99.7273C225.4 107.421 226.631 113.915 229.093 119.209C231.586 124.502 234.986 128.503 239.295 131.212C243.604 133.92 248.451 135.274 253.837 135.274C256.822 135.274 259.654 134.874 262.331 134.074C265.04 133.243 267.486 132.027 269.672 130.427C271.857 128.826 273.703 126.872 275.211 124.564C276.75 122.225 277.812 119.547 278.397 116.531L292.8 116.577C292.031 121.225 290.538 125.503 288.322 129.411C286.137 133.289 283.321 136.644 279.874 139.475C276.458 142.276 272.549 144.446 268.148 145.984C263.747 147.523 258.946 148.293 253.745 148.293C245.558 148.293 238.264 146.354 231.863 142.476C225.461 138.567 220.414 132.981 216.721 125.718C213.058 118.455 211.227 109.791 211.227 99.7273C211.227 89.6326 213.074 80.969 216.767 73.7365C220.46 66.4732 225.507 60.9027 231.909 57.0249C238.31 53.1162 245.589 51.1619 253.745 51.1619C258.761 51.1619 263.439 51.8852 267.779 53.3317C272.149 54.7474 276.073 56.8402 279.551 59.6101C283.029 62.3492 285.906 65.7038 288.184 69.674C290.461 73.6134 292 78.1222 292.8 83.2003ZM308.762 147V76.0909H322.103V87.3551H322.842C324.134 83.5388 326.412 80.5381 329.674 78.353C332.967 76.1371 336.691 75.0291 340.846 75.0291C341.708 75.0291 342.723 75.0599 343.893 75.1214C345.093 75.183 346.032 75.2599 346.709 75.3523V88.5554C346.155 88.4015 345.17 88.2322 343.754 88.0476C342.339 87.8321 340.923 87.7244 339.507 87.7244C336.245 87.7244 333.337 88.4169 330.782 89.8018C328.258 91.156 326.258 93.0488 324.781 95.4801C323.303 97.8807 322.565 100.62 322.565 103.697V147H308.762ZM378.655 148.57C374.162 148.57 370.099 147.739 366.468 146.077C362.836 144.384 359.958 141.937 357.835 138.737C355.742 135.536 354.695 131.612 354.695 126.964C354.695 122.964 355.465 119.67 357.004 117.085C358.543 114.5 360.62 112.453 363.236 110.945C365.852 109.437 368.776 108.299 372.007 107.529C375.239 106.76 378.532 106.175 381.887 105.775C386.134 105.282 389.581 104.882 392.227 104.575C394.874 104.236 396.798 103.697 397.998 102.959C399.198 102.22 399.798 101.02 399.798 99.358V99.0348C399.798 95.0031 398.66 91.8793 396.382 89.6633C394.136 87.4474 390.781 86.3395 386.318 86.3395C381.671 86.3395 378.009 87.3705 375.331 89.4325C372.684 91.4638 370.853 93.7259 369.838 96.2188L356.865 93.2642C358.404 88.9555 360.651 85.4777 363.605 82.831C366.591 80.1534 370.022 78.2145 373.9 77.0142C377.778 75.7831 381.856 75.1676 386.134 75.1676C388.965 75.1676 391.966 75.5062 395.136 76.1832C398.337 76.8295 401.322 78.0298 404.092 79.7841C406.892 81.5383 409.185 84.0466 410.97 87.3089C412.755 90.5405 413.648 94.7415 413.648 99.9119V147H400.168V137.305H399.614C398.721 139.09 397.383 140.845 395.597 142.568C393.812 144.292 391.52 145.723 388.719 146.862C385.918 148 382.564 148.57 378.655 148.57ZM381.656 137.49C385.472 137.49 388.734 136.736 391.443 135.228C394.182 133.72 396.259 131.75 397.675 129.319C399.121 126.857 399.845 124.225 399.845 121.425V112.284C399.352 112.777 398.398 113.238 396.982 113.669C395.597 114.069 394.012 114.423 392.227 114.731C390.442 115.008 388.704 115.269 387.011 115.516C385.318 115.731 383.902 115.916 382.764 116.07C380.086 116.408 377.639 116.978 375.423 117.778C373.238 118.578 371.484 119.732 370.161 121.24C368.868 122.717 368.222 124.687 368.222 127.149C368.222 130.565 369.484 133.151 372.007 134.905C374.531 136.628 377.747 137.49 381.656 137.49ZM465.779 76.0909V87.1705H425.708V76.0909H465.779ZM436.696 147V67.8736C436.696 63.4418 437.665 59.764 439.604 56.8402C441.543 53.8857 444.113 51.6851 447.314 50.2386C450.514 48.7614 453.992 48.0227 457.747 48.0227C460.517 48.0227 462.886 48.2535 464.856 48.7152C466.826 49.1461 468.288 49.5462 469.242 49.9155L466.01 61.0874C465.364 60.9027 464.533 60.6873 463.517 60.4411C462.502 60.1641 461.271 60.0256 459.824 60.0256C456.47 60.0256 454.069 60.8565 452.623 62.5185C451.207 64.1804 450.499 66.581 450.499 69.7202V147H436.696ZM513.121 76.0909V87.1705H474.389V76.0909H513.121ZM484.776 59.1023H498.58V126.18C498.58 128.857 498.98 130.873 499.78 132.227C500.58 133.551 501.611 134.459 502.873 134.951C504.165 135.413 505.566 135.643 507.074 135.643C508.182 135.643 509.151 135.567 509.982 135.413C510.813 135.259 511.46 135.136 511.921 135.043L514.414 146.446C513.614 146.754 512.475 147.062 510.998 147.369C509.521 147.708 507.674 147.893 505.458 147.923C501.826 147.985 498.441 147.339 495.302 145.984C492.163 144.63 489.624 142.537 487.685 139.706C485.746 136.875 484.776 133.32 484.776 129.042V59.1023ZM537.116 173.591C535.054 173.591 533.176 173.422 531.483 173.083C529.791 172.775 528.529 172.437 527.698 172.067L531.022 160.757C533.546 161.434 535.792 161.727 537.762 161.634C539.732 161.542 541.47 160.803 542.979 159.418C544.517 158.033 545.872 155.771 547.041 152.632L548.749 147.923L522.805 76.0909H537.577L555.535 131.119H556.274L574.232 76.0909H589.051L559.829 156.464C558.474 160.157 556.751 163.281 554.658 165.835C552.565 168.42 550.073 170.359 547.18 171.652C544.287 172.945 540.932 173.591 537.116 173.591Z" fill="#1C3048"/>
<path d="M660.854 99.2C661.881 99.76 662.394 100.6 662.394 101.72C662.301 101.813 662.114 102.233 661.834 102.98C661.554 103.727 661.041 104.94 660.294 106.62C659.547 108.207 658.427 110.353 656.934 113.06C655.534 115.767 653.667 119.127 651.334 123.14C648.627 127.807 646.247 131.587 644.194 134.48C642.141 137.28 640.367 139.427 638.874 140.92C637.474 142.413 636.214 143.393 635.094 143.86C634.067 144.327 633.181 144.56 632.434 144.56C630.754 144.56 629.354 143.487 628.234 141.34C627.114 139.1 626.134 135.973 625.294 131.96C624.547 127.947 623.847 123.14 623.194 117.54C622.541 111.847 621.841 105.593 621.094 98.78C617.361 100.087 614.141 100.973 611.434 101.44C608.821 101.813 606.581 102 604.714 102C603.967 102 603.314 102 602.754 102C602.287 101.907 601.821 101.813 601.354 101.72C598.834 110.773 596.874 118.1 595.474 123.7C594.074 129.3 592.954 133.64 592.114 136.72C591.274 139.8 590.574 141.9 590.014 143.02C589.454 144.047 588.754 144.56 587.914 144.56C587.074 144.56 586.374 144.28 585.814 143.72C585.254 143.067 584.974 142.367 584.974 141.62C584.974 141.527 585.021 141.48 585.114 141.48C585.114 141.387 585.114 141.247 585.114 141.06C585.207 140.967 585.627 139.567 586.374 136.86C587.027 134.153 587.914 130.607 589.034 126.22C590.154 121.74 591.461 116.7 592.954 111.1C594.447 105.5 596.034 99.76 597.714 93.88C599.861 86.32 601.774 79.5533 603.454 73.58C605.134 67.5133 606.721 62.38 608.214 58.18C609.707 53.98 611.107 50.76 612.414 48.52C613.721 46.28 615.027 45.16 616.334 45.16C618.387 45.16 620.161 46.5133 621.654 49.22C623.147 51.8333 624.454 55.2867 625.574 59.58C626.787 63.8733 627.767 68.82 628.514 74.42C629.354 79.9267 630.054 85.5733 630.614 91.36C631.174 97.0533 631.641 102.7 632.014 108.3C632.387 113.807 632.714 118.707 632.994 123C633.367 127.293 633.694 130.793 633.974 133.5C634.347 136.113 634.721 137.42 635.094 137.42C635.467 137.42 636.261 136.58 637.474 134.9C638.687 133.127 640.087 130.933 641.674 128.32C643.261 125.707 644.894 122.86 646.574 119.78C648.347 116.7 649.981 113.807 651.474 111.1C652.967 108.393 654.227 106.06 655.254 104.1C656.281 102.14 656.887 100.973 657.074 100.6C657.634 99.5733 658.521 99.06 659.734 99.06C660.201 99.06 660.574 99.1067 660.854 99.2ZM602.894 96.26C603.081 96.26 603.314 96.3067 603.594 96.4C603.967 96.4 604.341 96.4 604.714 96.4C606.301 96.4 608.354 96.1667 610.874 95.7C613.487 95.2333 616.661 94.3467 620.394 93.04C620.114 89.3067 619.787 85.5267 619.414 81.7C619.041 77.78 618.621 74.0933 618.154 70.64C617.781 67.1867 617.361 64.06 616.894 61.26C616.521 58.3667 616.147 56.1267 615.774 54.54C614.747 57.1533 613.067 62.1 610.734 69.38C608.401 76.66 605.787 85.62 602.894 96.26ZM711.62 98.78C712.554 99.34 713.02 100.133 713.02 101.16C713.02 101.533 712.927 102 712.74 102.56C712.18 103.587 711.2 105.36 709.8 107.88C708.494 110.307 706.907 113.06 705.04 116.14C703.267 119.127 701.354 122.253 699.3 125.52C697.247 128.787 695.194 131.82 693.14 134.62C691.087 137.327 689.174 139.567 687.4 141.34C685.627 143.02 684.134 143.86 682.92 143.86C681.52 143.86 680.4 142.927 679.56 141.06C678.814 139.1 678.207 136.673 677.74 133.78C677.274 130.793 676.947 127.527 676.76 123.98C676.574 120.34 676.434 116.84 676.34 113.48C676.247 110.027 676.2 106.947 676.2 104.24C676.2 101.533 676.107 99.5267 675.92 98.22C674.054 100.087 671.907 101.58 669.48 102.7C667.147 103.727 664.767 104.24 662.34 104.24C660.847 104.24 659.214 103.96 657.44 103.4C655.76 102.84 654.22 102 652.82 100.88C651.327 99.6667 650.114 98.1733 649.18 96.4C648.247 94.6267 647.78 92.5267 647.78 90.1C647.78 88.42 648.06 86.74 648.62 85.06C649.18 83.38 649.974 81.8867 651 80.58C651.934 79.18 653.1 78.1067 654.5 77.36C655.807 76.52 657.3 76.1 658.98 76.1C661.687 76.1 663.554 76.94 664.58 78.62C665.7 80.3 666.26 82.3067 666.26 84.64C666.26 87.0667 665.84 89.5867 665 92.2C664.254 94.8133 663.367 96.9133 662.34 98.5C663.367 98.5 664.394 98.4067 665.42 98.22C666.54 97.94 667.614 97.52 668.64 96.96C669.76 96.3067 670.787 95.42 671.72 94.3C672.747 93.18 673.68 91.6867 674.52 89.82C675.734 87.1133 677.227 85.76 679 85.76C679.654 85.76 680.354 85.9933 681.1 86.46C681.94 86.9267 682.687 87.6267 683.34 88.56C683.994 89.4 684.554 90.4733 685.02 91.78C685.487 93.0867 685.72 94.5333 685.72 96.12C685.72 98.64 685.627 102 685.44 106.2C685.254 110.4 685.16 114.787 685.16 119.36C685.16 122.347 685.207 125.24 685.3 128.04C685.394 130.747 685.674 133.267 686.14 135.6C686.7 134.76 687.587 133.407 688.8 131.54C690.107 129.58 691.507 127.34 693 124.82C694.494 122.3 696.08 119.687 697.76 116.98C699.44 114.273 700.98 111.707 702.38 109.28C703.78 106.853 704.947 104.8 705.88 103.12C706.907 101.44 707.56 100.367 707.84 99.9C708.307 98.9667 709.147 98.5 710.36 98.5C710.64 98.5 711.06 98.5933 711.62 98.78ZM660.1 81.98C658.234 81.98 656.834 82.7267 655.9 84.22C654.874 85.62 654.36 87.2067 654.36 88.98C654.36 90.2867 654.64 91.5467 655.2 92.76C655.667 93.9733 656.414 94.9533 657.44 95.7C657.907 95.2333 658.654 93.9733 659.68 91.92C660.707 89.7733 661.22 87.2067 661.22 84.22C661.22 83.66 661.127 83.1933 660.94 82.82C660.847 82.3533 660.567 82.0733 660.1 81.98ZM740.786 98.78C741.813 99.34 742.326 100.133 742.326 101.16C742.326 101.067 742.233 101.3 742.046 101.86C741.86 102.327 741.393 103.353 740.646 104.94C739.9 106.527 738.733 108.767 737.146 111.66C735.56 114.46 733.32 118.147 730.426 122.72C729.68 123.84 728.606 125.613 727.206 128.04C725.806 130.373 724.22 132.753 722.446 135.18C720.766 137.513 718.946 139.567 716.986 141.34C715.026 143.113 713.206 144 711.526 144C710.313 144 709.333 143.347 708.586 142.04C707.84 140.64 707.233 138.82 706.766 136.58C706.3 134.34 705.973 131.727 705.786 128.74C705.6 125.66 705.506 122.44 705.506 119.08C705.506 115.067 705.6 111.007 705.786 106.9C705.973 102.793 706.206 98.92 706.486 95.28C706.673 91.64 706.86 88.4667 707.046 85.76C707.326 82.96 707.466 80.9533 707.466 79.74C706.44 79.74 704.993 79.7867 703.126 79.88C701.166 79.88 699.3 79.8333 697.526 79.74C695.66 79.5533 694.073 79.2267 692.766 78.76C691.366 78.2933 690.666 77.5 690.666 76.38C690.666 75.54 690.993 74.8867 691.646 74.42C692.206 73.86 692.86 73.58 693.606 73.58C696.313 73.58 698.833 73.6733 701.166 73.86C703.406 74.0467 705.6 74.14 707.746 74.14C708.213 70.6867 708.446 67.2333 708.446 63.78C708.54 60.3267 708.726 57.2467 709.006 54.54C709.286 51.8333 709.893 49.64 710.826 47.96C711.76 46.28 713.3 45.44 715.446 45.44C717.033 45.44 718.153 45.9067 718.806 46.84C719.46 47.68 719.786 49.1267 719.786 51.18C719.786 54.54 719.646 58.2267 719.366 62.24C719.086 66.16 718.946 69.94 718.946 73.58C722.493 73.3 725.2 73.02 727.066 72.74C729.026 72.46 730.426 72.2267 731.266 72.04C732.106 71.8533 732.573 71.7133 732.666 71.62C732.853 71.4333 732.993 71.34 733.086 71.34C733.833 71.34 734.486 71.62 735.046 72.18C735.7 72.74 736.026 73.3933 736.026 74.14C736.026 75.3533 735.373 76.1 734.066 76.38C733.88 76.4733 732.48 76.8933 729.866 77.64C727.346 78.2933 723.613 78.8533 718.666 79.32C718.48 84.2667 718.153 89.3067 717.686 94.44C717.22 99.48 716.753 104.38 716.286 109.14C715.913 113.807 715.54 118.193 715.166 122.3C714.886 126.407 714.746 129.953 714.746 132.94C714.746 133.5 714.746 134.06 714.746 134.62C714.746 135.087 714.793 135.553 714.886 136.02C715.633 135.087 716.66 133.64 717.966 131.68C719.366 129.627 720.86 127.34 722.446 124.82C724.033 122.207 725.62 119.547 727.206 116.84C728.886 114.133 730.38 111.613 731.686 109.28C733.086 106.853 734.253 104.8 735.186 103.12C736.213 101.44 736.82 100.367 737.006 99.9C737.473 98.9667 738.266 98.5 739.386 98.5C739.76 98.5 740.226 98.5933 740.786 98.78Z" fill="#1C3048"/>
<defs>
<filter id="filter0_i_385_162" x="0" y="0" width="199.889" height="203.959" filterUnits="userSpaceOnUse" color-interpolation-filters="sRGB">
<feFlood flood-opacity="0" result="BackgroundImageFix"/>
<feBlend mode="normal" in="SourceGraphic" in2="BackgroundImageFix" result="shape"/>
<feColorMatrix in="SourceAlpha" type="matrix" values="0 0 0 0 0 0 0 0 0 0 0 0 0 0 0 0 0 0 127 0" result="hardAlpha"/>
<feOffset dy="4"/>
<feGaussianBlur stdDeviation="4.5"/>
<feComposite in2="hardAlpha" operator="arithmetic" k2="-1" k3="1"/>
<feColorMatrix type="matrix" values="0 0 0 0 0 0 0 0 0 0 0 0 0 0 0 0 0 0 0.25 0"/>
<feBlend mode="normal" in2="shape" result="effect1_innerShadow_385_162"/>
</filter>
<linearGradient id="paint0_linear_385_162" x1="201.253" y1="3.04496e-05" x2="-6.63033" y2="7.14868" gradientUnits="userSpaceOnUse">
<stop stop-color="#5961F8"/>
<stop offset="1" stop-color="#15D8C5"/>
<stop offset="1" stop-color="#15D8C5"/>
</linearGradient>
</defs>
</svg>
