<svg width="381" height="333" viewBox="0 0 381 333" fill="none" xmlns="http://www.w3.org/2000/svg">
<g clip-path="url(#clip0_1520_2636)">
<path d="M170.322 127.99H17.291V240.876H170.322V127.99Z" fill="#F5F9FF"/>
<path d="M170.322 127.99H17.291V142.078H170.322V127.99Z" fill="#D0DBF7"/>
<path d="M29.6309 135.357C29.6309 137.107 28.1577 138.58 26.4082 138.58C24.6588 138.58 23.1855 137.107 23.1855 135.357C23.1855 133.608 24.6588 132.135 26.4082 132.135C28.1577 132.135 29.6309 133.608 29.6309 135.357Z" fill="#F2F2F2"/>
<path d="M40.4961 135.357C40.4961 137.107 39.0229 138.58 37.2735 138.58C35.524 138.58 34.0508 137.107 34.0508 135.357C34.0508 133.608 35.524 132.135 37.2735 132.135C39.0229 132.135 40.4961 133.608 40.4961 135.357Z" fill="#F2F2F2"/>
<path d="M51.3614 135.357C51.3614 137.107 49.8882 138.58 48.1387 138.58C46.3892 138.58 44.916 137.107 44.916 135.357C44.916 133.608 46.3892 132.135 48.1387 132.135C49.8882 132.135 51.3614 133.608 51.3614 135.357Z" fill="#F2F2F2"/>
<path d="M119.957 172.74L112.315 165.098L93.8077 183.513L75.3924 165.098L67.75 172.74L86.1653 191.247L67.75 209.663L75.3924 217.305L93.8077 198.89L112.315 217.305L119.957 209.663L101.542 191.247L119.957 172.74Z" fill="#E3EBFC"/>
<path d="M358.25 56.8145H205.219V169.701H358.25V56.8145Z" fill="#F5F9FF"/>
<path d="M358.25 56.8145H205.219V70.9022H358.25V56.8145Z" fill="#D0DBF7"/>
<path d="M217.467 64.1817C217.467 65.9311 215.994 67.4044 214.244 67.4044C212.495 67.4044 211.021 65.9311 211.021 64.1817C211.021 62.4322 212.495 60.959 214.244 60.959C215.994 60.959 217.467 62.3401 217.467 64.1817Z" fill="#F2F2F2"/>
<path d="M228.332 64.1817C228.332 65.9311 226.859 67.4044 225.109 67.4044C223.36 67.4044 221.887 65.9311 221.887 64.1817C221.887 62.4322 223.36 60.959 225.109 60.959C226.859 60.959 228.332 62.3401 228.332 64.1817Z" fill="#F2F2F2"/>
<path d="M239.197 64.1817C239.197 65.9311 237.724 67.4044 235.975 67.4044C234.225 67.4044 232.752 65.9311 232.752 64.1817C232.752 62.4322 234.225 60.959 235.975 60.959C237.724 60.959 239.197 62.3401 239.197 64.1817Z" fill="#F2F2F2"/>
<path d="M307.791 101.566L300.149 93.9238L281.734 112.339L263.318 93.9238L255.584 101.566L273.999 119.982L255.584 138.489L263.318 146.131L281.734 127.716L300.149 146.131L307.791 138.489L289.376 119.982L307.791 101.566Z" fill="#E3EBFC"/>
<path d="M189.383 332.22C292.715 332.22 376.482 324.964 376.482 316.014C376.482 307.064 292.715 299.809 189.383 299.809C86.0505 299.809 2.2832 307.064 2.2832 316.014C2.2832 324.964 86.0505 332.22 189.383 332.22Z" fill="#EDF0FC"/>
<path d="M143.805 58.6601C142.424 55.7136 142.424 52.7672 143.989 50.0049L144.726 48.7158C145.462 47.5188 145.923 46.598 146.199 45.8614C146.383 45.2169 146.383 44.5724 146.015 43.8357C145.186 42.1784 143.345 41.9942 140.582 43.2833C139.293 43.9278 138.004 44.7565 136.715 45.7694C135.518 46.7822 134.413 47.8871 133.4 49.1762L130.178 42.4546C132.295 39.9685 134.966 37.8508 138.373 36.2854C141.964 34.536 145.186 33.9835 148.041 34.4439C150.895 34.9043 152.921 36.5617 154.21 39.2319C154.946 40.7051 155.13 42.0863 154.946 43.3754C154.67 44.6644 154.026 46.2297 153.013 48.0713C152.276 49.3603 151.816 50.3732 151.539 51.0177C151.263 51.6623 151.079 52.3068 151.079 52.9513C151.079 53.5959 151.263 54.3325 151.632 55.0691L152 55.8978L144.265 59.5809L143.805 58.6601ZM149.698 68.7885C148.593 68.4202 147.672 67.5915 147.12 66.4866C146.567 65.2896 146.475 64.1847 146.936 62.9877C147.304 61.8828 148.133 61.0541 149.33 60.4096C150.435 59.8571 151.632 59.765 152.829 60.2254C154.026 60.5937 154.854 61.4224 155.407 62.5273C155.959 63.6322 156.051 64.8292 155.591 65.9342C155.13 67.1312 154.394 67.9598 153.197 68.5123C152 69.0648 150.895 69.1568 149.698 68.7885Z" fill="#E2E6FF"/>
<path d="M181.281 32.8768C183.214 28.2729 186.529 25.5106 191.225 24.4057L193.527 23.9453C195.645 23.577 197.21 23.1166 198.131 22.7483C199.051 22.2879 199.788 21.5513 200.156 20.5385C201.261 17.9603 199.604 15.6584 195.276 13.909C193.251 13.0803 191.041 12.4357 188.647 12.0674C186.253 11.6991 183.859 11.607 181.557 11.7912L185.884 1.38652C190.857 1.20237 195.829 2.21522 200.985 4.33298C206.51 6.6349 210.469 9.67343 212.679 13.3565C214.981 17.0396 215.257 20.9068 213.507 25.0502C212.587 27.3522 211.206 29.0095 209.64 29.9303C207.983 30.9432 205.589 31.7719 202.366 32.5085C200.156 33.0609 198.591 33.4292 197.578 33.7975C196.565 34.1659 195.645 34.6262 194.908 35.2708C194.171 35.9153 193.619 36.8361 193.066 38.0331L192.514 39.3221L180.728 34.35L181.281 32.8768ZM175.94 49.6347C175.204 47.9774 175.296 46.2279 176.032 44.4784C176.769 42.6369 177.966 41.4399 179.715 40.7954C181.373 40.1508 183.122 40.1508 184.964 40.8874C186.713 41.6241 188.002 42.8211 188.739 44.5705C189.475 46.32 189.475 47.9774 188.739 49.8189C188.002 51.5684 186.805 52.7654 185.056 53.502C183.306 54.1465 181.557 54.1465 179.807 53.4099C177.874 52.5812 176.585 51.3842 175.94 49.6347Z" fill="#E2E6FF"/>
<path d="M374.273 198.618V193.277H370.682V198.618H365.434V202.117H370.682V207.365H374.273V202.117H379.521V198.618H374.273Z" fill="#CAD2F9"/>
<path d="M341.033 29.3801V21.2773H335.693V29.3801H327.59V34.7206H335.693V42.8233H341.033V34.7206H349.136V29.3801H341.033Z" fill="#CAD2F9"/>
<path d="M326.394 185.449V181.582H323.908V185.449H320.041V188.027H323.908V191.803H326.394V188.027H330.261V185.449H326.394Z" fill="#CAD2F9"/>
<path d="M106.883 51.4763V47.7012H104.304V51.4763H100.529V54.0545H104.304V57.9217H106.883V54.0545H110.75V51.4763H106.883Z" fill="#CAD2F9"/>
<path d="M77.2339 26.0648V20.8164H73.735V26.0648H68.3945V29.5637H73.735V34.9041H77.2339V29.5637H82.4822V26.0648H77.2339Z" fill="#CAD2F9"/>
<path d="M250.797 36.8382C250.797 37.9431 249.877 38.8639 248.772 38.8639C247.667 38.8639 246.746 37.9431 246.746 36.8382C246.746 35.7333 247.667 34.8125 248.772 34.8125C249.877 34.8125 250.797 35.7333 250.797 36.8382Z" fill="#EEF1FF"/>
<path d="M259.085 2.30889C259.085 3.41381 258.164 4.33458 257.059 4.33458C255.954 4.33458 255.033 3.41381 255.033 2.30889C255.033 1.20397 255.954 0.283203 257.059 0.283203C258.164 0.283203 259.085 1.20397 259.085 2.30889Z" fill="#EEF1FF"/>
<path d="M298.31 22.5659C300.395 22.5659 302.085 20.8757 302.085 18.7908C302.085 16.7058 300.395 15.0156 298.31 15.0156C296.225 15.0156 294.535 16.7058 294.535 18.7908C294.535 20.8757 296.225 22.5659 298.31 22.5659Z" fill="#EEF1FF"/>
<path d="M378.508 161.785C378.508 162.89 377.588 163.811 376.483 163.811C375.378 163.811 374.457 162.89 374.457 161.785C374.457 160.681 375.378 159.76 376.483 159.76C377.588 159.76 378.508 160.681 378.508 161.785Z" fill="#EEF1FF"/>
<path d="M376.481 224.582C376.481 225.687 375.56 226.608 374.455 226.608C373.35 226.608 372.43 225.687 372.43 224.582C372.43 223.477 373.35 222.557 374.455 222.557C375.56 222.557 376.481 223.477 376.481 224.582Z" fill="#EEF1FF"/>
<path d="M70.4186 114.826C70.4186 115.931 69.4978 116.852 68.3929 116.852C67.288 116.852 66.3672 115.931 66.3672 114.826C66.3672 113.722 67.288 112.801 68.3929 112.801C69.4978 112.801 70.4186 113.722 70.4186 114.826Z" fill="#EEF1FF"/>
<path d="M35.4314 35.1792C37.5163 35.1792 39.2065 33.489 39.2065 31.4041C39.2065 29.3191 37.5163 27.6289 35.4314 27.6289C33.3464 27.6289 31.6562 29.3191 31.6562 31.4041C31.6562 33.489 33.3464 35.1792 35.4314 35.1792Z" fill="#EEF1FF"/>
<path d="M110.473 9.95147C110.473 11.0564 109.552 11.9772 108.448 11.9772C107.343 11.9772 106.422 11.0564 106.422 9.95147C106.422 8.84655 107.343 7.92578 108.448 7.92578C109.645 7.92578 110.473 8.84655 110.473 9.95147Z" fill="#EEF1FF"/>
<path d="M4.40098 130.479C4.40098 131.584 3.48021 132.505 2.37529 132.505C1.27038 132.505 0.349609 131.584 0.349609 130.479C0.349609 129.374 1.27038 128.453 2.37529 128.453C3.48021 128.453 4.40098 129.374 4.40098 130.479Z" fill="#EEF1FF"/>
<path d="M4.40098 237.657C4.40098 238.761 3.48021 239.682 2.37529 239.682C1.27038 239.682 0.349609 238.761 0.349609 237.657C0.349609 236.552 1.27038 235.631 2.37529 235.631C3.48021 235.631 4.40098 236.552 4.40098 237.657Z" fill="#EEF1FF"/>
<path d="M297.481 298.149C297.481 298.149 264.149 231.578 354.476 187.381C354.476 187.381 361.474 282.22 297.481 298.149Z" fill="url(#paint0_linear_1520_2636)"/>
<path d="M301.256 289.679C301.256 280.195 303.189 270.711 305.952 261.595C306.32 260.49 306.596 259.293 306.965 258.188L308.162 254.782L309.359 251.375L310.74 248.06C312.489 243.64 314.791 239.405 316.909 235.077L320.5 228.908C321.697 226.79 322.986 224.857 324.275 222.831C325.656 220.897 326.945 218.872 328.326 216.938C329.8 215.004 331.181 213.163 332.654 211.229L334.864 208.375L337.258 205.705L342.046 200.364C342.782 199.443 343.703 198.615 344.532 197.786L347.11 195.3C348.859 193.643 350.517 191.985 352.266 190.42C350.793 192.261 349.228 194.103 347.755 195.945L345.453 198.615C344.716 199.536 343.887 200.364 343.243 201.377L338.915 206.994L336.705 209.756L334.68 212.61C333.299 214.544 332.009 216.478 330.628 218.411C329.339 220.345 328.142 222.371 326.853 224.396C324.183 228.263 322.065 232.499 319.671 236.55C315.251 244.837 311.384 253.4 308.162 262.24C305.307 271.171 302.637 280.287 301.256 289.679Z" fill="#B3C9F9"/>
<path opacity="0.1" d="M351.162 186.737C349.873 209.664 342.046 270.527 294.627 284.338C296.376 291.244 298.402 295.387 298.402 295.387C362.395 279.458 355.49 184.619 355.49 184.619C354.016 185.264 352.543 186 351.162 186.737Z" fill="#0046A0"/>
<path d="M289.287 319.604C289.287 319.604 293.983 299.347 313.872 274.763C335.602 247.876 363.961 238.116 375.655 251.099C387.072 263.621 377.404 281.024 347.94 289.863C318.567 298.702 301.994 302.57 289.287 319.604Z" fill="#FFCF74"/>
<path d="M366.355 258.098C359.633 260.768 353.096 263.806 346.743 267.121C340.389 270.436 334.128 274.027 328.235 277.986C322.25 281.946 316.634 286.365 311.293 291.153C306.045 296.033 301.257 301.374 297.113 307.359C298.771 304.136 300.796 301.097 302.914 298.151C305.124 295.297 307.426 292.442 310.004 289.864C315.068 284.616 320.869 280.104 326.854 276.053C329.893 274.027 333.023 272.185 336.154 270.344C339.376 268.594 342.599 266.937 345.914 265.464C352.543 262.425 359.357 259.939 366.355 258.098Z" fill="#F9AB43"/>
<path opacity="0.1" d="M375.655 251.098C375.01 250.361 374.366 249.809 373.629 249.164C364.053 272.552 336.246 289.402 303.283 289.494C292.234 306.896 289.287 319.603 289.287 319.603C301.994 302.569 318.567 298.701 347.94 289.862C377.404 281.023 387.072 263.62 375.655 251.098Z" fill="#0046A0"/>
<path d="M118.67 308.187C118.67 308.187 50.2567 337.559 11.4004 244.746C11.4004 244.746 106.515 243.457 118.67 308.187Z" fill="url(#paint1_linear_1520_2636)"/>
<path d="M113.237 304.964C103.753 304.411 94.3611 301.925 85.4296 298.61C84.3247 298.15 83.2198 297.782 82.1149 297.321L78.8001 295.94L75.4854 294.559L72.2627 292.994C67.9351 290.968 63.8837 288.482 59.7403 286.088L53.7553 282.129C51.7296 280.84 49.796 279.458 47.9545 277.985C46.1129 276.512 44.0872 275.131 42.3378 273.566C40.4963 272 38.7468 270.435 36.9053 268.87L34.2351 266.476L31.6569 263.99L26.5927 258.925C25.764 258.097 24.9353 257.176 24.1987 256.255L21.8968 253.585C20.3315 251.743 18.8583 249.994 17.293 248.152C19.0424 249.718 20.7919 251.375 22.5413 252.94L25.1195 255.334C25.9482 256.163 26.7769 256.992 27.6976 257.728L33.0381 262.332L35.7083 264.634L38.4706 266.844C40.3121 268.317 42.1536 269.79 43.9952 271.264C45.8367 272.737 47.7703 274.026 49.7039 275.407C53.4791 278.261 57.4384 280.655 61.3976 283.234C69.4083 288.114 77.6952 292.533 86.3504 296.216C95.0056 299.992 103.937 303.122 113.237 304.964Z" fill="#B3C9F9"/>
<path opacity="0.1" d="M13.334 249.258C36.0769 251.836 96.3871 263.253 107.436 311.318C114.434 310.028 118.67 308.187 118.67 308.187C106.515 243.457 11.4004 244.746 11.4004 244.746C12.0449 246.311 12.6895 247.785 13.334 249.258Z" fill="#0046A0"/>
<path d="M90.4948 283.233C90.4948 283.233 90.1265 262.424 76.0388 234.156C60.4778 203.219 34.8805 187.75 20.6087 197.878C6.79719 207.73 12.598 226.79 39.4844 241.615C66.3707 256.623 81.7475 263.897 90.4948 283.233Z" fill="#FFCF74"/>
<path d="M28.252 206.809C34.2369 210.86 39.9457 215.188 45.5623 219.791C51.0869 224.395 56.4274 229.183 61.3995 234.34C66.3717 239.496 70.9755 245.02 75.1189 250.821C79.1703 256.714 82.7613 262.975 85.6157 269.605C84.6949 266.106 83.4058 262.699 81.9326 259.384C80.3673 256.07 78.7099 252.847 76.6842 249.808C72.817 243.639 68.2132 237.931 63.149 232.682C60.5708 230.104 57.9927 227.526 55.2304 225.132C52.4681 222.738 49.7058 220.436 46.7593 218.318C40.8664 213.991 34.6973 210.031 28.252 206.809Z" fill="#F9AB43"/>
<path opacity="0.1" d="M20.6087 197.971C21.3453 197.419 22.174 196.958 23.0027 196.59C27.3303 221.451 50.9939 243.917 83.2207 250.915C90.3106 270.251 90.4948 283.326 90.4948 283.326C81.7475 263.99 66.2787 256.716 39.4844 241.8C12.598 226.791 6.79719 207.823 20.6087 197.971Z" fill="#0046A0"/>
<path d="M280.078 303.397C279.341 308.369 274.369 312.328 269.12 312.328H112.13C106.789 312.328 101.817 308.277 100.989 303.397L74.9309 145.762C74.1022 140.881 77.7853 136.83 83.1257 136.83H295.546C300.887 136.83 304.57 140.881 303.833 145.762L280.078 303.397Z" fill="#F9AB43"/>
<path d="M240.669 84.1621H108.539V270.341H270.133V113.995L240.669 84.1621Z" fill="#C2CEF2"/>
<path d="M240.668 84.1621L270.317 113.811H240.668V84.1621Z" fill="#7997F2"/>
<path d="M234.223 142.999L220.964 129.832L189.382 161.414L157.8 129.832L144.633 142.999L176.215 174.581L144.633 206.164L157.8 219.331L189.382 187.748L220.964 219.331L234.223 206.164L202.641 174.581L234.223 142.999Z" fill="#AFC2E8"/>
<path d="M204.761 190.879C200.618 190.879 196.198 187.657 194.909 183.605L188.832 163.993C187.635 160.034 183.215 156.719 178.98 156.719H71.2502C67.1068 156.719 64.2524 160.034 64.989 164.177L91.2308 312.328C91.9674 316.472 95.9267 319.787 100.162 319.787H286.709C290.853 319.787 294.812 316.38 295.457 312.328L313.688 198.245C314.332 194.102 311.478 190.787 307.335 190.787L204.761 190.879Z" fill="#FFCF74"/>
<path d="M179.901 127.899C179.901 122.098 182.203 117.678 186.807 114.455L189.017 112.89C191.134 111.509 192.608 110.404 193.344 109.575C194.173 108.654 194.541 107.642 194.541 106.353C194.541 103.038 191.779 101.472 186.346 101.472C183.768 101.472 181.19 101.841 178.428 102.485C175.758 103.13 173.179 104.143 170.693 105.34V92.2648C175.85 89.8708 181.743 88.6738 188.188 88.6738C195.094 88.6738 200.618 90.1471 204.762 93.0014C208.813 95.9479 210.839 99.9072 210.839 105.063C210.839 107.918 210.194 110.312 208.905 112.061C207.616 113.811 205.406 115.836 202.276 118.046C200.158 119.612 198.685 120.717 197.672 121.545C196.751 122.374 196.014 123.295 195.554 124.308C195.094 125.32 194.817 126.609 194.817 128.083V129.74H179.901V127.899ZM181.65 148.247C180.177 146.774 179.441 144.933 179.441 142.723C179.441 140.421 180.177 138.579 181.65 137.106C183.124 135.633 185.057 134.896 187.267 134.896C189.477 134.896 191.319 135.633 192.884 137.106C194.449 138.579 195.186 140.421 195.186 142.631C195.186 144.841 194.449 146.682 192.884 148.155C191.319 149.629 189.477 150.365 187.267 150.365C185.057 150.457 183.124 149.721 181.65 148.247Z" fill="white"/>
<path opacity="0.1" d="M307.335 190.787H295.641C295.917 193.457 296.009 196.22 296.009 198.89C296.009 260.029 230.543 309.658 149.792 309.658C128.154 309.658 107.621 306.067 89.1133 299.714L91.3231 312.328C92.0597 316.472 96.019 319.786 100.255 319.786H286.802C290.945 319.786 294.904 316.38 295.549 312.328L313.688 198.245C314.425 194.102 311.478 190.695 307.335 190.787Z" fill="url(#paint2_linear_1520_2636)"/>
<g opacity="0.3">
<path d="M83.2181 178.726C83.7706 182.409 84.323 186.185 84.8755 189.868C86.1646 198.707 87.5457 207.546 88.8348 216.386C90.4001 227.159 92.0575 237.932 93.6228 248.705C95.0039 257.912 96.3851 267.212 97.7662 276.42C98.2266 279.458 98.687 282.589 99.1474 285.627C99.3315 287.101 99.5157 288.574 99.7919 289.955C99.7919 290.047 99.7919 290.047 99.7919 290.139C99.9761 291.428 101.541 292.073 102.738 291.797C104.12 291.428 104.58 290.139 104.396 288.85C103.843 285.167 103.291 281.392 102.738 277.709C101.449 268.869 100.068 260.03 98.7791 251.191C97.2138 240.418 95.5564 229.645 93.9911 218.872C92.6099 209.664 91.2288 200.364 89.8476 191.157C89.3872 188.118 88.9269 184.988 88.4665 181.949C88.2823 180.476 88.0982 179.003 87.822 177.621C87.822 177.529 87.822 177.529 87.822 177.437C87.6378 176.148 86.0725 175.504 84.8755 175.78C83.5864 176.24 83.034 177.529 83.2181 178.726Z" fill="white"/>
</g>
<path d="M343.244 96.7793C328.696 96.7793 316.91 108.565 316.91 123.113C316.91 129.651 319.304 135.544 323.171 140.147L322.066 153.683L334.681 147.974C337.351 148.895 340.298 149.447 343.244 149.447C357.792 149.447 369.578 137.661 369.578 123.113C369.578 108.565 357.792 96.7793 343.244 96.7793Z" fill="url(#paint3_linear_1520_2636)"/>
<path d="M341.401 136.647C340.941 136.186 340.664 135.542 340.664 134.897C340.664 134.161 340.941 133.608 341.401 133.148C341.861 132.687 342.506 132.411 343.15 132.411C343.887 132.411 344.439 132.687 344.992 133.148C345.452 133.608 345.729 134.253 345.729 134.897C345.729 135.634 345.452 136.186 344.992 136.647C344.532 137.107 343.887 137.383 343.15 137.383C342.414 137.291 341.861 137.107 341.401 136.647ZM339.928 106.998H346.557L345.36 128.176H341.217L339.928 106.998Z" fill="white"/>
<path opacity="0.1" d="M328.789 137.11C325.935 137.11 323.172 136.834 320.41 136.373C321.239 137.754 322.068 139.043 323.08 140.148L321.975 153.684L334.59 147.975C337.26 148.896 340.207 149.448 343.153 149.448C357.701 149.448 369.487 137.662 369.487 123.114C369.487 119.615 368.75 116.208 367.553 113.17C362.305 127.074 346.928 137.11 328.789 137.11Z" fill="#0046A0"/>
<path d="M73.1832 89.5963V64.6435C73.1832 61.6049 70.6971 59.2109 67.7506 59.2109H22.1728C19.1342 59.2109 16.7402 61.697 16.7402 64.6435V96.1337C16.7402 99.1722 19.2263 101.566 22.1728 101.566H62.9627H67.7506H86.3501L73.1832 89.5963Z" fill="url(#paint4_linear_1520_2636)"/>
<path d="M37.3667 76.8901C37.3667 79.2841 35.9855 81.2177 34.2361 81.2177C32.4866 81.2177 31.1055 79.2841 31.1055 76.8901C31.1055 74.4961 32.4866 72.5625 34.2361 72.5625C35.9855 72.5625 37.3667 74.4961 37.3667 76.8901Z" fill="white"/>
<path d="M57.9917 76.8901C57.9917 79.2841 56.6105 81.2177 54.8611 81.2177C53.1116 81.2177 51.7305 79.2841 51.7305 76.8901C51.7305 74.4961 53.1116 72.5625 54.8611 72.5625C56.6105 72.5625 57.9917 74.4961 57.9917 76.8901Z" fill="white"/>
<path d="M37.4572 89.045C38.5621 87.8481 40.0354 86.9273 41.5086 86.4669C45.2837 85.0857 48.8747 86.559 51.7291 89.045C52.4657 89.6896 53.6627 88.5847 52.834 87.9401C49.7034 85.0857 45.56 83.4284 41.4165 84.8095C39.575 85.4541 37.7334 86.4669 36.3523 87.9401C35.6157 88.6767 36.7206 89.7817 37.4572 89.045Z" fill="white"/>
<path opacity="0.1" d="M73.1835 89.5963V64.6435C73.1835 61.6049 70.6975 59.2109 67.751 59.2109H63.0551C63.8838 62.1574 64.3442 65.288 64.3442 68.4186C64.3442 81.6777 56.7939 93.5556 44.916 101.658H62.963H67.751H86.3505L73.1835 89.5963Z" fill="#0046A0"/>
<path d="M280.015 272.782C270.664 266.231 258.186 268.194 252.147 277.166C246.059 286.146 248.697 298.698 258.038 305.2C267.39 311.751 279.868 309.788 285.907 300.815C291.956 291.892 289.319 279.34 280.015 272.782ZM259.799 302.602C251.977 297.122 249.77 286.622 254.862 279.111C259.955 271.599 270.393 269.957 278.216 275.436C286.038 280.916 288.245 291.416 283.153 298.928C278.061 306.439 267.622 308.082 259.799 302.602Z" fill="#EB725F"/>
<path opacity="0.3" d="M252.48 291.645C254.408 300.816 263.361 307.087 272.478 305.653C281.595 304.219 287.423 295.622 285.496 286.451C283.568 277.28 274.615 271.008 265.498 272.443C256.381 273.877 250.553 282.474 252.48 291.645Z" fill="white"/>
<path d="M260.905 304.244L257.91 302.146L240.285 328.144L243.28 330.242L260.905 304.244Z" fill="url(#paint5_linear_1520_2636)"/>
<path d="M260.889 304.219L257.895 302.121L251.397 311.706L254.391 313.803L260.889 304.219Z" fill="#EB725F"/>
<path d="M273.748 278.305C275.678 278.658 277.422 279.796 278.79 281.296C280.159 282.796 281.114 284.714 281.535 286.717C281.955 288.719 281.832 290.757 281.172 292.627C280.501 294.448 279.332 296.044 277.669 296.962C277.92 295.055 278.077 293.416 278.05 291.856C278.024 290.296 277.861 288.808 277.553 287.343C277.245 285.878 276.792 284.436 276.182 282.968C275.563 281.451 274.759 280.013 273.748 278.305Z" fill="white"/>
<path d="M138.336 180.046V206.832H133.444L121.791 189.973H121.595V206.832H115.932V180.046H120.902L132.464 196.892H132.699V180.046H138.336ZM151.987 207.224C149.956 207.224 148.199 206.793 146.716 205.93C145.243 205.058 144.105 203.846 143.303 202.294C142.501 200.733 142.1 198.924 142.1 196.866C142.1 194.791 142.501 192.977 143.303 191.425C144.105 189.864 145.243 188.652 146.716 187.789C148.199 186.917 149.956 186.481 151.987 186.481C154.019 186.481 155.772 186.917 157.245 187.789C158.727 188.652 159.87 189.864 160.672 191.425C161.474 192.977 161.875 194.791 161.875 196.866C161.875 198.924 161.474 200.733 160.672 202.294C159.87 203.846 158.727 205.058 157.245 205.93C155.772 206.793 154.019 207.224 151.987 207.224ZM152.013 202.908C152.938 202.908 153.709 202.647 154.328 202.124C154.948 201.592 155.414 200.868 155.728 199.952C156.051 199.037 156.212 197.995 156.212 196.827C156.212 195.658 156.051 194.616 155.728 193.701C155.414 192.785 154.948 192.061 154.328 191.53C153.709 190.998 152.938 190.732 152.013 190.732C151.081 190.732 150.296 190.998 149.659 191.53C149.031 192.061 148.556 192.785 148.234 193.701C147.92 194.616 147.763 195.658 147.763 196.827C147.763 197.995 147.92 199.037 148.234 199.952C148.556 200.868 149.031 201.592 149.659 202.124C150.296 202.647 151.081 202.908 152.013 202.908ZM114.911 224.715V220.046H136.91V224.715H128.71V246.832H123.112V224.715H114.911ZM146.671 247.224C144.604 247.224 142.825 246.806 141.334 245.969C139.852 245.123 138.71 243.928 137.908 242.385C137.106 240.833 136.704 238.998 136.704 236.879C136.704 234.812 137.106 232.999 137.908 231.438C138.71 229.877 139.839 228.661 141.295 227.789C142.76 226.917 144.478 226.481 146.448 226.481C147.774 226.481 149.007 226.695 150.15 227.122C151.301 227.54 152.303 228.173 153.158 229.018C154.021 229.864 154.693 230.928 155.172 232.21C155.652 233.483 155.891 234.974 155.891 236.683V238.213H138.928V234.76H150.647C150.647 233.958 150.472 233.247 150.124 232.628C149.775 232.009 149.291 231.525 148.672 231.176C148.061 230.819 147.351 230.64 146.54 230.64C145.694 230.64 144.944 230.836 144.29 231.229C143.645 231.612 143.139 232.131 142.773 232.785C142.407 233.43 142.219 234.15 142.211 234.943V238.226C142.211 239.22 142.394 240.079 142.76 240.803C143.135 241.526 143.662 242.084 144.343 242.477C145.023 242.869 145.829 243.065 146.762 243.065C147.381 243.065 147.948 242.978 148.463 242.804C148.977 242.629 149.417 242.368 149.783 242.019C150.15 241.67 150.429 241.243 150.621 240.737L155.774 241.077C155.512 242.315 154.976 243.397 154.165 244.321C153.363 245.236 152.325 245.951 151.052 246.466C149.788 246.972 148.327 247.224 146.671 247.224ZM159.527 246.832V226.743H164.838V230.287H165.073C165.491 229.11 166.189 228.181 167.166 227.501C168.142 226.821 169.311 226.481 170.671 226.481C172.048 226.481 173.221 226.825 174.189 227.514C175.157 228.194 175.802 229.119 176.125 230.287H176.334C176.744 229.136 177.485 228.216 178.557 227.527C179.639 226.83 180.916 226.481 182.39 226.481C184.264 226.481 185.786 227.078 186.954 228.273C188.131 229.459 188.72 231.142 188.72 233.321V246.832H183.161V234.42C183.161 233.304 182.865 232.467 182.272 231.909C181.679 231.351 180.938 231.072 180.048 231.072C179.037 231.072 178.248 231.394 177.681 232.04C177.114 232.676 176.831 233.518 176.831 234.564V246.832H171.429V234.302C171.429 233.317 171.146 232.532 170.579 231.948C170.021 231.364 169.284 231.072 168.369 231.072C167.75 231.072 167.192 231.229 166.695 231.543C166.206 231.848 165.818 232.279 165.531 232.837C165.243 233.387 165.099 234.032 165.099 234.773V246.832H159.527ZM193.121 254.366V226.743H198.614V230.117H198.863C199.107 229.576 199.46 229.027 199.922 228.469C200.393 227.902 201.003 227.431 201.753 227.056C202.512 226.673 203.453 226.481 204.578 226.481C206.043 226.481 207.395 226.865 208.633 227.632C209.871 228.391 210.861 229.537 211.602 231.072C212.343 232.598 212.713 234.512 212.713 236.813C212.713 239.054 212.352 240.946 211.628 242.49C210.913 244.024 209.936 245.188 208.698 245.982C207.469 246.767 206.091 247.159 204.565 247.159C203.484 247.159 202.564 246.98 201.805 246.623C201.056 246.265 200.441 245.816 199.961 245.276C199.482 244.726 199.116 244.173 198.863 243.615H198.693V254.366H193.121ZM198.575 236.787C198.575 237.982 198.741 239.024 199.072 239.913C199.403 240.803 199.883 241.496 200.511 241.993C201.138 242.481 201.901 242.725 202.8 242.725C203.706 242.725 204.474 242.477 205.101 241.98C205.729 241.474 206.204 240.776 206.527 239.887C206.858 238.989 207.024 237.956 207.024 236.787C207.024 235.628 206.863 234.607 206.54 233.727C206.218 232.846 205.742 232.157 205.115 231.66C204.487 231.163 203.715 230.915 202.8 230.915C201.893 230.915 201.125 231.155 200.498 231.634C199.879 232.114 199.403 232.794 199.072 233.674C198.741 234.555 198.575 235.593 198.575 236.787ZM222 220.046V246.832H216.428V220.046H222ZM232.191 247.211C230.91 247.211 229.767 246.989 228.765 246.544C227.762 246.091 226.969 245.424 226.384 244.543C225.809 243.654 225.521 242.546 225.521 241.221C225.521 240.105 225.726 239.168 226.136 238.409C226.546 237.651 227.104 237.04 227.81 236.578C228.516 236.116 229.318 235.767 230.217 235.532C231.123 235.296 232.074 235.131 233.068 235.035C234.236 234.913 235.178 234.799 235.893 234.695C236.608 234.581 237.127 234.416 237.449 234.198C237.772 233.98 237.933 233.657 237.933 233.23V233.151C237.933 232.323 237.672 231.682 237.148 231.229C236.634 230.775 235.902 230.549 234.951 230.549C233.948 230.549 233.151 230.771 232.558 231.216C231.965 231.652 231.572 232.201 231.381 232.864L226.227 232.445C226.489 231.224 227.003 230.169 227.771 229.28C228.538 228.382 229.528 227.693 230.74 227.213C231.96 226.725 233.373 226.481 234.977 226.481C236.093 226.481 237.161 226.612 238.182 226.873C239.211 227.135 240.122 227.54 240.915 228.09C241.717 228.639 242.35 229.345 242.812 230.209C243.274 231.063 243.505 232.088 243.505 233.282V246.832H238.221V244.046H238.064C237.741 244.674 237.31 245.228 236.769 245.707C236.229 246.178 235.579 246.549 234.82 246.819C234.062 247.081 233.185 247.211 232.191 247.211ZM233.787 243.366C234.607 243.366 235.33 243.205 235.958 242.882C236.586 242.551 237.079 242.106 237.436 241.548C237.794 240.99 237.972 240.358 237.972 239.652V237.52C237.798 237.633 237.558 237.738 237.253 237.834C236.957 237.921 236.621 238.004 236.246 238.082C235.871 238.152 235.496 238.217 235.121 238.278C234.746 238.331 234.406 238.379 234.101 238.422C233.447 238.518 232.876 238.671 232.388 238.88C231.899 239.089 231.52 239.373 231.25 239.73C230.979 240.079 230.844 240.515 230.844 241.038C230.844 241.797 231.119 242.376 231.668 242.778C232.226 243.17 232.933 243.366 233.787 243.366ZM258.513 226.743V230.928H246.415V226.743H258.513ZM249.162 221.929H254.733V240.659C254.733 241.173 254.812 241.574 254.969 241.862C255.126 242.141 255.344 242.337 255.623 242.451C255.91 242.564 256.242 242.621 256.617 242.621C256.878 242.621 257.14 242.599 257.401 242.555C257.663 242.503 257.863 242.464 258.003 242.437L258.879 246.584C258.6 246.671 258.208 246.771 257.702 246.884C257.196 247.006 256.582 247.081 255.858 247.107C254.515 247.159 253.338 246.98 252.327 246.57C251.324 246.161 250.544 245.524 249.986 244.661C249.427 243.798 249.153 242.708 249.162 241.391V221.929ZM271.082 247.224C269.016 247.224 267.237 246.806 265.746 245.969C264.264 245.123 263.121 243.928 262.319 242.385C261.517 240.833 261.116 238.998 261.116 236.879C261.116 234.812 261.517 232.999 262.319 231.438C263.121 229.877 264.25 228.661 265.707 227.789C267.171 226.917 268.889 226.481 270.86 226.481C272.185 226.481 273.419 226.695 274.561 227.122C275.712 227.54 276.715 228.173 277.569 229.018C278.433 229.864 279.104 230.928 279.583 232.21C280.063 233.483 280.303 234.974 280.303 236.683V238.213H263.339V234.76H275.058C275.058 233.958 274.884 233.247 274.535 232.628C274.186 232.009 273.702 231.525 273.083 231.176C272.473 230.819 271.762 230.64 270.951 230.64C270.105 230.64 269.356 230.836 268.702 231.229C268.056 231.612 267.551 232.131 267.185 232.785C266.818 233.43 266.631 234.15 266.622 234.943V238.226C266.622 239.22 266.805 240.079 267.171 240.803C267.546 241.526 268.074 242.084 268.754 242.477C269.434 242.869 270.241 243.065 271.174 243.065C271.793 243.065 272.359 242.978 272.874 242.804C273.388 242.629 273.829 242.368 274.195 242.019C274.561 241.67 274.84 241.243 275.032 240.737L280.185 241.077C279.924 242.315 279.387 243.397 278.576 244.321C277.774 245.236 276.737 245.951 275.464 246.466C274.199 246.972 272.739 247.224 271.082 247.224ZM115.932 287.832V261.046H133.667V265.715H121.595V272.098H132.49V276.767H121.595V287.832H115.932ZM144.974 288.224C142.942 288.224 141.185 287.793 139.703 286.93C138.229 286.058 137.091 284.846 136.289 283.294C135.487 281.733 135.086 279.924 135.086 277.866C135.086 275.791 135.487 273.977 136.289 272.425C137.091 270.864 138.229 269.652 139.703 268.789C141.185 267.917 142.942 267.481 144.974 267.481C147.005 267.481 148.758 267.917 150.231 268.789C151.714 269.652 152.856 270.864 153.658 272.425C154.46 273.977 154.861 275.791 154.861 277.866C154.861 279.924 154.46 281.733 153.658 283.294C152.856 284.846 151.714 286.058 150.231 286.93C148.758 287.793 147.005 288.224 144.974 288.224ZM145 283.908C145.924 283.908 146.696 283.647 147.315 283.124C147.934 282.592 148.4 281.868 148.714 280.952C149.037 280.037 149.198 278.995 149.198 277.827C149.198 276.658 149.037 275.616 148.714 274.701C148.4 273.785 147.934 273.061 147.315 272.53C146.696 271.998 145.924 271.732 145 271.732C144.067 271.732 143.282 271.998 142.646 272.53C142.018 273.061 141.543 273.785 141.22 274.701C140.906 275.616 140.749 276.658 140.749 277.827C140.749 278.995 140.906 280.037 141.22 280.952C141.543 281.868 142.018 282.592 142.646 283.124C143.282 283.647 144.067 283.908 145 283.908ZM171.367 279.278V267.743H176.939V287.832H171.59V284.183H171.38C170.927 285.36 170.173 286.306 169.118 287.021C168.071 287.736 166.794 288.094 165.285 288.094C163.943 288.094 162.761 287.788 161.741 287.178C160.721 286.568 159.923 285.7 159.348 284.575C158.781 283.451 158.493 282.103 158.484 280.534V267.743H164.056V279.54C164.065 280.726 164.383 281.663 165.011 282.352C165.639 283.041 166.48 283.385 167.535 283.385C168.206 283.385 168.834 283.233 169.418 282.927C170.003 282.613 170.473 282.151 170.831 281.541C171.197 280.931 171.376 280.176 171.367 279.278ZM186.967 276.218V287.832H181.396V267.743H186.706V271.287H186.941C187.386 270.119 188.131 269.194 189.178 268.514C190.224 267.825 191.493 267.481 192.984 267.481C194.379 267.481 195.595 267.786 196.633 268.397C197.67 269.007 198.477 269.879 199.052 271.012C199.628 272.137 199.916 273.48 199.916 275.041V287.832H194.344V276.035C194.353 274.805 194.039 273.846 193.402 273.157C192.766 272.46 191.889 272.111 190.773 272.111C190.023 272.111 189.361 272.272 188.785 272.595C188.219 272.918 187.774 273.388 187.451 274.007C187.137 274.618 186.976 275.355 186.967 276.218ZM211.71 288.159C210.184 288.159 208.802 287.767 207.564 286.982C206.334 286.188 205.358 285.024 204.634 283.49C203.919 281.946 203.561 280.054 203.561 277.813C203.561 275.512 203.932 273.598 204.673 272.072C205.414 270.537 206.4 269.391 207.629 268.632C208.867 267.865 210.223 267.481 211.697 267.481C212.821 267.481 213.759 267.673 214.509 268.056C215.267 268.431 215.877 268.902 216.34 269.469C216.81 270.027 217.168 270.576 217.412 271.117H217.582V261.046H223.141V287.832H217.648V284.615H217.412C217.151 285.173 216.78 285.726 216.3 286.276C215.83 286.816 215.215 287.265 214.456 287.623C213.706 287.98 212.791 288.159 211.71 288.159ZM213.475 283.725C214.373 283.725 215.132 283.481 215.751 282.993C216.379 282.496 216.858 281.803 217.19 280.913C217.53 280.024 217.7 278.982 217.7 277.787C217.7 276.593 217.534 275.555 217.203 274.674C216.871 273.794 216.392 273.114 215.764 272.634C215.136 272.155 214.373 271.915 213.475 271.915C212.56 271.915 211.788 272.163 211.16 272.66C210.533 273.157 210.057 273.846 209.735 274.727C209.412 275.607 209.251 276.628 209.251 277.787C209.251 278.956 209.412 279.989 209.735 280.887C210.066 281.776 210.541 282.474 211.16 282.98C211.788 283.477 212.56 283.725 213.475 283.725Z" fill="white"/>
</g>
<defs>
<linearGradient id="paint0_linear_1520_2636" x1="355.133" y1="187.381" x2="289.321" y2="188.673" gradientUnits="userSpaceOnUse">
<stop stop-color="#5961F8"/>
<stop offset="1" stop-color="#15D8C5"/>
<stop offset="1" stop-color="#15D8C5"/>
</linearGradient>
<linearGradient id="paint1_linear_1520_2636" x1="119.402" y1="244.744" x2="8.03966" y2="250.8" gradientUnits="userSpaceOnUse">
<stop stop-color="#5961F8"/>
<stop offset="1" stop-color="#15D8C5"/>
<stop offset="1" stop-color="#15D8C5"/>
</linearGradient>
<linearGradient id="paint2_linear_1520_2636" x1="315.334" y1="190.785" x2="82.2209" y2="204.752" gradientUnits="userSpaceOnUse">
<stop stop-color="#5961F8"/>
<stop offset="1" stop-color="#15D8C5"/>
<stop offset="1" stop-color="#15D8C5"/>
</linearGradient>
<linearGradient id="paint3_linear_1520_2636" x1="369.937" y1="96.7793" x2="315.154" y2="98.5236" gradientUnits="userSpaceOnUse">
<stop stop-color="#5961F8"/>
<stop offset="1" stop-color="#15D8C5"/>
<stop offset="1" stop-color="#15D8C5"/>
</linearGradient>
<linearGradient id="paint4_linear_1520_2636" x1="86.8251" y1="59.2109" x2="14.5766" y2="63.2956" gradientUnits="userSpaceOnUse">
<stop stop-color="#5961F8"/>
<stop offset="1" stop-color="#15D8C5"/>
<stop offset="1" stop-color="#15D8C5"/>
</linearGradient>
<linearGradient id="paint5_linear_1520_2636" x1="260.925" y1="304.258" x2="257.766" y2="302.135" gradientUnits="userSpaceOnUse">
<stop stop-color="#5961F8"/>
<stop offset="1" stop-color="#15D8C5"/>
<stop offset="1" stop-color="#15D8C5"/>
</linearGradient>
<clipPath id="clip0_1520_2636">
<rect width="380" height="331.937" fill="white" transform="translate(0.349609 0.28125)"/>
</clipPath>
</defs>
</svg>
