<svg width="36" height="36" viewBox="0 0 36 36" fill="none" xmlns="http://www.w3.org/2000/svg">
<g clip-path="url(#clip0_2185_157)">
<path d="M30.9023 0.0712891H5.09766C2.32559 0.0712891 0.0703125 2.32656 0.0703125 5.09863V23.5205C0.0703125 26.2926 2.32559 28.5479 5.09766 28.5479H13.5207C15.2119 32.8652 19.4186 35.9307 24.3281 35.9307C30.7252 35.9307 35.9297 30.7262 35.9297 24.3291V5.09863C35.9297 2.32656 33.6744 0.0712891 30.9023 0.0712891ZM12.9193 26.4385H5.09766C3.4887 26.4385 2.17969 25.1295 2.17969 23.5205V21.165H13.1652C12.8796 22.1712 12.7266 23.2326 12.7266 24.3291C12.7266 25.0493 12.7931 25.7542 12.9193 26.4385ZM25.3828 24.3291C25.3828 24.9116 24.9106 25.3838 24.3281 25.3838H19.0547C18.4722 25.3838 18 24.9116 18 24.3291C18 23.7466 18.4722 23.2744 19.0547 23.2744H23.2734V19.0557C23.2734 18.4732 23.7457 18.001 24.3281 18.001C24.9106 18.001 25.3828 18.4732 25.3828 19.0557V24.3291ZM33.8203 17.6664C31.719 14.6817 28.2477 12.7275 24.3281 12.7275C19.8287 12.7275 15.9193 15.3022 13.9958 19.0557H2.17969V5.09863C2.17969 3.48967 3.4887 2.18066 5.09766 2.18066H30.9023C32.5113 2.18066 33.8203 3.48967 33.8203 5.09863V17.6664Z" fill="#1C3048"/>
<path d="M7.45312 5.34473H6.39844C5.81597 5.34473 5.34375 5.81695 5.34375 6.39941C5.34375 6.98188 5.81597 7.4541 6.39844 7.4541H7.45312C8.03559 7.4541 8.50781 6.98188 8.50781 6.39941C8.50781 5.81695 8.03559 5.34473 7.45312 5.34473Z" fill="#1C3048"/>
<path d="M12.7266 5.34473H11.6719C11.0894 5.34473 10.6172 5.81695 10.6172 6.39941C10.6172 6.98188 11.0894 7.4541 11.6719 7.4541H12.7266C13.309 7.4541 13.7812 6.98188 13.7812 6.39941C13.7812 5.81695 13.309 5.34473 12.7266 5.34473Z" fill="#1C3048"/>
<path d="M29.6016 5.34473H19.0547C18.4722 5.34473 18 5.81695 18 6.39941C18 6.98188 18.4722 7.4541 19.0547 7.4541H29.6016C30.184 7.4541 30.6562 6.98188 30.6562 6.39941C30.6562 5.81695 30.184 5.34473 29.6016 5.34473Z" fill="#1C3048"/>
</g>
<defs>
<clipPath id="clip0_2185_157">
<rect width="36" height="36" fill="white" transform="translate(0 0.000976562)"/>
</clipPath>
</defs>
</svg>
