<svg width="321" height="220" viewBox="0 0 321 220" fill="none" xmlns="http://www.w3.org/2000/svg">
<g clip-path="url(#clip0_2321_254)">
<path d="M261.674 109.996L268.607 95.1835C268.724 94.9262 268.764 94.6408 268.724 94.3612C268.683 94.0815 268.563 93.8194 268.378 93.606L257.572 81.3255L260.041 65.1487C260.083 64.8647 260.041 64.5746 259.921 64.314C259.8 64.0534 259.606 63.8336 259.363 63.6816L245.521 55.0056L243.32 38.7973C243.282 38.5128 243.162 38.2455 242.974 38.0284C242.786 37.8112 242.539 37.6536 242.263 37.5747L226.489 33.1027L219.832 18.1563C219.706 17.9017 219.513 17.6859 219.274 17.5318C219.035 17.3777 218.759 17.291 218.475 17.2808L202.149 17.3518L191.548 4.88985C191.36 4.66579 191.11 4.50268 190.829 4.42122C190.548 4.33977 190.249 4.34365 189.971 4.43238L174.315 9.16475L160.646 0.244236C160.411 0.0930651 160.137 0.0126953 159.857 0.0126953C159.578 0.0126953 159.304 0.0930651 159.069 0.244236L145.345 9.1963L129.689 4.46393C129.41 4.37412 129.111 4.3697 128.83 4.45122C128.549 4.53274 128.298 4.69648 128.111 4.92139L117.511 17.3518L101.152 17.2256C100.867 17.2277 100.587 17.3112 100.347 17.4662C100.107 17.6212 99.9156 17.8414 99.7959 18.101L93.139 33.0869L77.3645 37.559C77.088 37.6369 76.8405 37.7943 76.6526 38.0116C76.4647 38.2289 76.3448 38.4966 76.3077 38.7815L74.1308 54.9425L60.2887 63.6186C60.0451 63.7705 59.8512 63.9903 59.7307 64.2509C59.6102 64.5115 59.5684 64.8016 59.6104 65.0856L62.0791 81.2624L51.2972 93.5823C51.1128 93.7962 50.9934 94.0583 50.9528 94.3377C50.9123 94.6172 50.9524 94.9024 51.0685 95.1598L58.0092 109.972L51.0685 124.792C50.9524 125.05 50.9123 125.335 50.9528 125.614C50.9934 125.894 51.1128 126.156 51.2972 126.37L62.1106 138.65L59.6419 154.819C59.6003 155.104 59.6423 155.395 59.7627 155.657C59.883 155.919 60.0767 156.14 60.3202 156.294L74.1308 165.057L76.3313 181.265C76.3694 181.55 76.4897 181.817 76.6774 182.034C76.8652 182.251 77.1122 182.409 77.3882 182.488L93.1627 186.96L99.8195 201.946C99.9363 202.206 100.126 202.427 100.365 202.582C100.604 202.737 100.883 202.82 101.168 202.821L117.526 202.695L128.127 215.149C128.317 215.371 128.567 215.532 128.847 215.613C129.128 215.694 129.425 215.692 129.704 215.606L145.361 210.874L159.053 219.826C159.286 219.984 159.56 220.069 159.841 220.071C160.123 220.068 160.397 219.983 160.63 219.826L174.322 210.874L189.979 215.606C190.258 215.691 190.555 215.693 190.835 215.612C191.115 215.53 191.366 215.37 191.556 215.149L202.157 202.687L218.515 202.821C218.8 202.819 219.078 202.736 219.317 202.581C219.556 202.426 219.746 202.205 219.863 201.946L226.512 186.96L242.287 182.488C242.563 182.409 242.81 182.251 242.998 182.034C243.185 181.817 243.306 181.55 243.344 181.265L245.544 165.057L259.386 156.341C259.63 156.187 259.824 155.966 259.944 155.704C260.064 155.443 260.106 155.152 260.065 154.867L257.596 138.698L268.402 126.417C268.587 126.204 268.707 125.942 268.747 125.662C268.788 125.382 268.747 125.097 268.63 124.84L261.674 109.996Z" fill="#FFFF00"/>
<path d="M59.6428 109.996L52.4102 125.439L63.6731 138.24L61.1019 155.095L75.5356 164.173L77.8229 181.068L94.2205 185.729L101.161 201.307L118.206 201.173L129.263 214.155L145.574 209.194L159.842 218.525L174.11 209.194L190.421 214.155L201.471 201.173L218.523 201.307L225.456 185.729L241.862 181.068L244.149 164.173L258.583 155.095L256.012 138.24L267.275 125.439L260.042 109.996L267.275 94.5523L256.012 81.7591L258.583 64.904L244.149 55.8258L241.862 38.9312L225.456 34.2698L218.523 18.6924L201.471 18.8265L190.421 5.84404L174.11 10.8051L159.842 1.47449L145.574 10.8051L129.263 5.84404L118.206 18.8265L101.161 18.6924L94.2205 34.2698L77.8229 38.9312L75.5356 55.8258L61.1019 64.904L63.6731 81.7591L52.4102 94.5523L59.6428 109.996Z" fill="#FFC500"/>
<path d="M256.011 138.24L267.274 125.439L260.184 110.303L155.078 215.409L159.842 218.525L174.11 209.194L187.029 213.122L256.792 143.359L256.011 138.24Z" fill="#FFDC0E"/>
<path d="M241.86 38.9312L225.455 34.2698L218.522 18.6924L201.47 18.8265L190.42 5.84399L174.109 10.8051L170.339 8.33638L52.7949 125.881L63.6714 138.24L61.1002 155.095L75.5339 164.173L77.8212 181.068L94.2187 185.729L98.2412 194.744L243.311 49.6736L241.86 38.9312Z" fill="#FFDC0E"/>
<path d="M258.582 64.9042L250.576 59.8721L109.205 201.244L118.204 201.173L120.815 204.241L258.298 66.7577L258.582 64.9042Z" fill="#FFDC0E"/>
<path d="M254.433 121.584C260.829 69.3444 223.665 21.8112 171.426 15.4155C119.187 9.01983 71.6538 46.1835 65.2581 98.423C58.8624 150.662 96.026 198.196 148.265 204.591C200.504 210.987 248.037 173.823 254.433 121.584Z" fill="#FFE600"/>
<path d="M251.474 127.844C261.329 77.2371 228.294 28.2225 177.687 18.3671C127.08 8.51174 78.0652 41.5476 68.2099 92.1549C58.3546 142.762 91.3903 191.777 141.997 201.632C192.604 211.487 241.619 178.452 251.474 127.844Z" fill="#FFC700"/>
<path d="M171.008 195.912C218.45 189.742 251.908 146.28 245.738 98.8373C239.568 51.3946 196.106 17.9366 148.664 24.1068C101.221 30.2769 67.7636 73.7387 73.9337 121.181C80.1038 168.624 123.565 202.082 171.008 195.912Z" fill="#FFD523"/>
<path d="M159.841 23.3699H159.312C182.285 23.3699 204.317 32.4957 220.561 48.7397C236.804 64.9838 245.93 87.0154 245.93 109.988C245.93 132.961 236.804 154.992 220.561 171.236C204.317 187.48 182.285 196.606 159.312 196.606H159.833C182.665 196.388 204.489 187.165 220.557 170.943C236.626 154.72 245.64 132.81 245.64 109.976C245.64 87.1426 236.626 65.2323 220.557 49.0097C204.489 32.7871 182.665 23.5641 159.833 23.3462L159.841 23.3699Z" fill="#FFFFAA"/>
<path opacity="0.5" d="M129.539 180.059C138.774 183.957 148.698 185.961 158.722 185.95" stroke="#FFFFBC" stroke-width="9.46472" stroke-linecap="round" stroke-linejoin="round"/>
<path opacity="0.5" d="M83.7285 110.942C83.721 122.844 86.5486 134.576 91.9774 145.168C97.4061 155.759 105.28 164.905 114.946 171.848" stroke="#FFFFBC" stroke-width="9.46472" stroke-linecap="round" stroke-linejoin="round"/>
<path opacity="0.5" d="M228.404 78.3677C232.306 87.6019 234.312 97.526 234.304 107.551" stroke="#FFFFBC" stroke-width="9.46472" stroke-linecap="round" stroke-linejoin="round"/>
<path opacity="0.5" d="M205.105 48.1672C210.862 52.6142 215.945 57.8718 220.194 63.7762" stroke="#FFFFBC" stroke-width="9.46472" stroke-linecap="round" stroke-linejoin="round"/>
<path d="M115.376 56.2452V60.1069H126.998V60.1826L116.625 80.8535H121.509L131.92 59.2361V56.2452H115.376ZM144.192 80.7778C145.745 80.9671 147.789 81.1185 150.477 81.1185C155.437 81.1185 159.487 79.9449 162.024 77.6355C164.447 75.4397 165.999 72.0703 165.999 67.4893C165.999 63.1734 164.485 60.1069 161.986 58.1003C159.639 56.1317 156.383 55.1473 151.613 55.1473C148.849 55.1473 146.275 55.3745 144.192 55.6774V80.7778ZM148.849 59.0468C149.531 58.8954 150.553 58.7818 152.029 58.7818C157.86 58.7818 161.115 62.0377 161.078 67.6408C161.078 74.1146 157.481 77.4841 151.424 77.4462C150.477 77.4462 149.493 77.4462 148.849 77.3326V59.0468ZM184.157 69.7987C184.157 65.7478 182.453 61.9998 176.547 61.9998C173.632 61.9998 171.247 62.7948 169.884 63.6277L170.793 66.6564C172.042 65.8614 173.935 65.2935 175.752 65.2935C179.008 65.2935 179.5 67.3 179.5 68.5115V68.8144C172.686 68.7765 168.559 71.1616 168.559 75.7804C168.559 78.582 170.641 81.27 174.352 81.27C176.774 81.27 178.705 80.2478 179.803 78.8091H179.917L180.257 80.8535H184.46C184.233 79.7177 184.157 78.0898 184.157 76.424V69.7987ZM179.614 74.3796C179.614 74.7204 179.614 75.0611 179.5 75.4018C179.046 76.7269 177.721 77.9384 175.828 77.9384C174.352 77.9384 173.178 77.1055 173.178 75.2883C173.178 72.4867 176.32 71.8052 179.614 71.8431V74.3796ZM186.506 62.4162L193.283 79.3392C193.472 79.7935 193.51 80.0585 193.51 80.2478C193.51 80.4749 193.434 80.7399 193.245 81.0807C192.601 82.33 191.579 83.4279 190.67 83.9958C189.724 84.6773 188.778 85.0937 187.982 85.283L189.043 89.1825C190.178 89.031 192.071 88.4253 193.926 86.8352C196.084 84.9423 197.788 81.8757 200.324 74.9854L204.943 62.4162H199.984L197.106 72.2596C196.728 73.4332 196.387 74.834 196.122 75.8561H196.009C195.744 74.834 195.327 73.4332 194.949 72.2974L191.655 62.4162H186.506Z" fill="#FAFBFC"/>
<path d="M100.291 114.611H102.889V108.712H104.21C105.7 108.755 106.361 109.351 106.786 111.225C107.17 113.014 107.532 114.185 107.745 114.611H110.428C110.151 114.057 109.768 112.396 109.299 110.608C108.959 109.223 108.341 108.222 107.298 107.839V107.775C108.66 107.307 109.917 106.05 109.917 104.198C109.917 102.962 109.47 101.961 108.682 101.301C107.702 100.492 106.318 100.151 104.252 100.151C102.74 100.151 101.292 100.279 100.291 100.471V114.611ZM102.889 102.26C103.145 102.196 103.677 102.132 104.508 102.132C106.211 102.132 107.298 102.877 107.298 104.432C107.298 105.859 106.211 106.796 104.444 106.796H102.889V102.26ZM121.167 110.16C121.209 109.926 121.252 109.543 121.252 109.053C121.252 106.774 120.144 104.006 116.78 104.006C113.458 104.006 111.711 106.71 111.711 109.585C111.711 112.758 113.692 114.824 117.057 114.824C118.547 114.824 119.782 114.547 120.677 114.164L120.294 112.375C119.484 112.652 118.632 112.844 117.419 112.844C115.736 112.844 114.288 112.034 114.224 110.16H121.167ZM114.224 108.329C114.331 107.264 115.012 105.795 116.631 105.795C118.377 105.795 118.803 107.371 118.782 108.329H114.224ZM126.27 114.611V106.199H128.506V104.24H126.248V103.708C126.248 102.43 126.674 101.344 127.973 101.344C128.463 101.344 128.804 101.429 129.102 101.536L129.272 99.5125C128.868 99.3847 128.314 99.2569 127.611 99.2569C126.696 99.2569 125.673 99.5338 124.907 100.258C124.012 101.11 123.65 102.451 123.65 103.793V104.24H122.245V106.199H123.65V114.611H126.27ZM139.437 104.24H136.818V110.501C136.818 110.799 136.776 111.097 136.669 111.31C136.413 111.992 135.732 112.716 134.667 112.716C133.283 112.716 132.729 111.608 132.729 109.883V104.24H130.11V110.331C130.11 113.717 131.835 114.845 133.709 114.845C135.583 114.845 136.605 113.781 137.052 113.057H137.116L137.244 114.611H139.523C139.48 113.759 139.437 112.737 139.437 111.502V104.24ZM142.277 114.611H144.896V108.499C144.896 108.201 144.939 107.882 145.024 107.669C145.301 106.881 146.025 106.135 147.068 106.135C148.495 106.135 149.049 107.264 149.049 108.755V114.611H151.668V108.457C151.668 105.177 149.794 104.006 147.984 104.006C146.259 104.006 145.131 104.985 144.662 105.795H144.598L144.47 104.24H142.192C142.234 105.135 142.277 106.135 142.277 107.328V114.611ZM161.406 99.4912V105.347H161.363C160.895 104.581 159.873 104.006 158.446 104.006C155.954 104.006 153.782 106.072 153.804 109.543C153.804 112.737 155.763 114.845 158.254 114.845C159.745 114.845 161.001 114.121 161.619 112.971H161.662L161.789 114.611H164.111C164.068 113.908 164.025 112.758 164.025 111.694V99.4912H161.406ZM161.406 110.118C161.406 110.395 161.385 110.65 161.321 110.884C161.065 112.013 160.128 112.737 159.064 112.737C157.402 112.737 156.465 111.353 156.465 109.436C156.465 107.52 157.402 106.029 159.085 106.029C160.277 106.029 161.108 106.859 161.342 107.86C161.385 108.073 161.406 108.35 161.406 108.563V110.118ZM171.353 114.611H173.951V109.181C174.313 109.266 174.739 109.287 175.229 109.287C177.081 109.287 178.7 108.776 179.765 107.733C180.553 106.966 180.979 105.859 180.979 104.496C180.979 103.154 180.425 102.025 179.573 101.323C178.657 100.556 177.273 100.151 175.357 100.151C173.61 100.151 172.311 100.279 171.353 100.449V114.611ZM173.951 102.302C174.228 102.238 174.739 102.174 175.463 102.174C177.273 102.174 178.38 103.005 178.38 104.602C178.38 106.263 177.188 107.243 175.229 107.243C174.696 107.243 174.292 107.222 173.951 107.115V102.302ZM187.308 104.006C184.177 104.006 181.941 106.093 181.941 109.5C181.941 112.844 184.22 114.845 187.137 114.845C189.778 114.845 192.461 113.142 192.461 109.33C192.461 106.178 190.396 104.006 187.308 104.006ZM187.244 105.901C189.033 105.901 189.757 107.775 189.757 109.394C189.757 111.502 188.713 112.95 187.222 112.95C185.647 112.95 184.646 111.438 184.646 109.436C184.646 107.711 185.391 105.901 187.244 105.901ZM194.622 114.611H197.241V99.4912H194.622V114.611ZM202.711 114.611V104.24H200.091V114.611H202.711ZM201.412 99.9171C200.538 99.9171 199.942 100.535 199.942 101.344C199.942 102.111 200.517 102.749 201.39 102.749C202.306 102.749 202.881 102.111 202.881 101.344C202.86 100.535 202.306 99.9171 201.412 99.9171ZM212.802 112.354C212.291 112.567 211.63 112.758 210.736 112.758C208.947 112.758 207.563 111.545 207.563 109.415C207.542 107.52 208.734 106.05 210.736 106.05C211.673 106.05 212.291 106.242 212.717 106.455L213.185 104.474C212.589 104.219 211.609 104.006 210.651 104.006C207.009 104.006 204.88 106.412 204.88 109.521C204.88 112.737 206.988 114.824 210.225 114.824C211.524 114.824 212.61 114.547 213.164 114.292L212.802 112.354ZM214.204 104.24L218.016 113.759C218.122 114.015 218.144 114.164 218.144 114.27C218.144 114.398 218.101 114.547 217.994 114.739C217.632 115.442 217.057 116.059 216.546 116.379C216.014 116.762 215.482 116.996 215.034 117.103L215.631 119.296C216.27 119.211 217.334 118.87 218.378 117.976C219.592 116.911 220.55 115.186 221.977 111.31L224.575 104.24H221.785L220.167 109.777C219.954 110.437 219.762 111.225 219.613 111.8H219.549C219.4 111.225 219.166 110.437 218.953 109.798L217.1 104.24H214.204Z" fill="#FCFCFC"/>
<path d="M320.102 168.583L309.06 148.036L320.102 127.482H256.334V168.583H320.102Z" fill="#FFE000"/>
<path d="M306.828 162.107L299.264 148.036L306.828 133.965H256.334V162.107H306.828Z" fill="#FFE000"/>
<g style="mix-blend-mode:screen">
<path d="M309.296 132.498H256.869V133.547H307.34L299.792 147.595L307.34 161.65H256.869V162.699H309.296L301.188 147.595L309.296 132.498Z" fill="#EA6F00"/>
</g>
<path d="M308.768 132.932H256.334V133.981H306.804L299.256 148.036L306.804 162.084H256.334V163.14H308.768L300.652 148.036L308.768 132.932Z" fill="#DB9C00"/>
<path style="mix-blend-mode:multiply" d="M284.05 127.482H256.334V168.567H284.05V127.482Z" fill="url(#paint0_linear_2321_254)" fill-opacity="0.5"/>
<path d="M269.308 133.965L256.334 127.482V133.965H269.308Z" fill="#DDB612"/>
<path d="M-0.00976562 168.583L11.0324 148.036L-0.00976562 127.482H63.7586V168.583H-0.00976562Z" fill="#FFE000"/>
<path d="M13.2637 162.107L20.8354 148.036L13.2637 133.965H63.7578V162.107H13.2637Z" fill="#FFE000"/>
<g style="mix-blend-mode:screen">
<path d="M10.7949 132.498H63.2215V133.547H12.751L20.2991 147.595L12.751 161.65H63.2215V162.699H10.7949L18.903 147.595L10.7949 132.498Z" fill="#DB9C00"/>
</g>
<path d="M11.3242 132.932H63.7586V133.981H13.2881L20.8362 148.036L13.2881 162.084H63.7586V163.14H11.3242L19.4402 148.036L11.3242 132.932Z" fill="#DB9C00"/>
<path style="mix-blend-mode:multiply" d="M63.7607 127.482H36.0449V168.567H63.7607V127.482Z" fill="url(#paint1_linear_2321_254)" fill-opacity="0.5"/>
<path d="M50.7852 133.965L63.7597 127.482V133.965H50.7852Z" fill="#DDB612"/>
<path d="M269.301 133.902H51.0684V175.002H269.301V133.902Z" fill="#FFC500"/>
<path d="M269.301 140.385H51.0684V168.527H269.301V140.385Z" fill="#FFE000"/>
<path d="M269.301 139.352H51.0684V140.401H269.301V139.352Z" fill="#DB9C00"/>
<g style="mix-blend-mode:screen">
<path d="M269.301 168.819H51.0684V169.552H269.301V168.819Z" fill="#FFE000"/>
</g>
<g style="mix-blend-mode:screen">
<path d="M269.301 139.644H51.0684V140.693H269.301V139.644Z" fill="#DB9C00"/>
</g>
<path d="M269.301 168.504H51.0684V169.42H269.301V168.504Z" fill="#DB9C00"/>
<path d="M98.0587 152.982H90.9255V155.889H94.4921V160.955C94.0126 161.164 93.0535 161.344 91.7048 161.344C87.5087 161.344 84.6914 158.617 84.6914 154.031C84.6914 149.326 87.7185 146.778 92.0345 146.778C94.1624 146.778 95.5112 147.138 96.6201 147.647L97.4293 144.68C96.5002 144.23 94.5521 143.721 92.0644 143.721C85.3808 143.721 80.855 147.797 80.8251 154.211C80.8251 157.268 81.8441 159.936 83.6424 161.644C85.5606 163.472 88.1681 164.341 91.5849 164.341C94.2524 164.341 96.77 163.682 98.0587 163.202V152.982ZM112.266 158.407L114.094 164.132H118.08L111.516 143.931H106.811L100.337 164.132H104.143L105.882 158.407H112.266ZM106.481 155.62L108.04 150.644C108.369 149.446 108.699 148.037 108.999 146.868H109.059C109.359 148.037 109.688 149.416 110.078 150.644L111.666 155.62H106.481ZM119.894 143.931V155.5C119.894 161.854 122.921 164.461 127.597 164.461C132.452 164.461 135.659 161.704 135.659 155.47V143.931H131.973V155.71C131.973 159.666 130.384 161.494 127.717 161.494C125.229 161.494 123.581 159.666 123.581 155.71V143.931H119.894ZM139.886 164.132H143.542V155.829H145.4C147.498 155.889 148.427 156.729 149.027 159.366C149.566 161.884 150.076 163.532 150.376 164.132H154.152C153.762 163.352 153.223 161.015 152.564 158.497C152.084 156.549 151.215 155.14 149.746 154.601V154.511C151.664 153.851 153.433 152.083 153.433 149.475C153.433 147.737 152.803 146.328 151.694 145.399C150.316 144.26 148.368 143.781 145.46 143.781C143.332 143.781 141.294 143.961 139.886 144.23V164.132ZM143.542 146.748C143.902 146.658 144.651 146.568 145.82 146.568C148.218 146.568 149.746 147.617 149.746 149.805C149.746 151.813 148.218 153.132 145.73 153.132H143.542V146.748ZM167.584 158.407L169.413 164.132H173.399L166.835 143.931H162.13L155.656 164.132H159.462L161.201 158.407H167.584ZM161.8 155.62L163.358 150.644C163.688 149.446 164.018 148.037 164.318 146.868H164.377C164.677 148.037 165.007 149.416 165.397 150.644L166.985 155.62H161.8ZM179.595 164.132V156.908C179.595 153.582 179.535 150.914 179.386 148.307L179.505 148.277C180.494 150.554 181.813 153.012 183.102 155.23L188.377 164.132H192.213V143.931H188.797V150.974C188.797 154.061 188.857 156.669 189.126 159.366H189.066C188.137 157.178 186.938 154.84 185.62 152.593L180.405 143.931H176.179V164.132H179.595ZM200.329 164.132H204.016V147.018H209.83V143.931H194.575V147.018H200.329V164.132ZM223.509 152.173H215.896V146.958H223.958V143.931H212.21V164.132H224.408V161.104H215.896V155.17H223.509V152.173ZM238.934 152.173H231.321V146.958H239.383V143.931H227.634V164.132H239.833V161.104H231.321V155.17H238.934V152.173Z" fill="#FCFCFC"/>
</g>
<defs>
<linearGradient id="paint0_linear_2321_254" x1="256.437" y1="148.02" x2="283.742" y2="148.02" gradientUnits="userSpaceOnUse">
<stop stop-color="#893F00"/>
<stop offset="0.22" stop-color="#A87243"/>
<stop offset="0.5" stop-color="#CDAE93"/>
<stop offset="0.74" stop-color="#E8DACD"/>
<stop offset="0.91" stop-color="#F9F5F1"/>
<stop offset="1" stop-color="white"/>
</linearGradient>
<linearGradient id="paint1_linear_2321_254" x1="63.6582" y1="148.02" x2="36.3525" y2="148.02" gradientUnits="userSpaceOnUse">
<stop stop-color="#893F00"/>
<stop offset="0.22" stop-color="#A87243"/>
<stop offset="0.5" stop-color="#CDAE93"/>
<stop offset="0.74" stop-color="#E8DACD"/>
<stop offset="0.91" stop-color="#F9F5F1"/>
<stop offset="1" stop-color="white"/>
</linearGradient>
<clipPath id="clip0_2321_254">
<rect width="320.112" height="220" fill="white"/>
</clipPath>
</defs>
</svg>
