<svg width="36" height="36" viewBox="0 0 36 36" fill="none" xmlns="http://www.w3.org/2000/svg">
<path d="M27 7.876H21.375C21.0766 7.876 20.7905 7.99452 20.5795 8.2055C20.3685 8.41648 20.25 8.70263 20.25 9.001C20.25 9.29936 20.3685 9.58551 20.5795 9.79649C20.7905 10.0075 21.0766 10.126 21.375 10.126H24.2887L18.3263 16.0885C17.8737 15.8693 17.3779 15.754 16.875 15.751H5.625C4.72989 15.751 3.87145 16.1066 3.23851 16.7395C2.60558 17.3724 2.25 18.2309 2.25 19.126V30.376C2.25 31.2711 2.60558 32.1295 3.23851 32.7625C3.87145 33.3954 4.72989 33.751 5.625 33.751H16.875C17.7701 33.751 18.6286 33.3954 19.2615 32.7625C19.8944 32.1295 20.25 31.2711 20.25 30.376V19.126C20.2492 18.6265 20.1338 18.1338 19.9125 17.686L25.875 11.7122V14.626C25.875 14.9244 25.9935 15.2105 26.2045 15.4215C26.4155 15.6325 26.7016 15.751 27 15.751C27.2984 15.751 27.5845 15.6325 27.7955 15.4215C28.0065 15.2105 28.125 14.9244 28.125 14.626V9.001C28.1209 8.70313 28.0043 8.41783 27.7987 8.20225C27.6936 8.09798 27.569 8.01549 27.4319 7.9595C27.2948 7.90352 27.1481 7.87514 27 7.876Z" fill="#1C3048"/>
<path d="M3.375 13.501C3.67337 13.501 3.95952 13.3825 4.1705 13.1715C4.38147 12.9605 4.5 12.6743 4.5 12.376V10.126C4.5 9.82761 4.38147 9.54146 4.1705 9.33048C3.95952 9.1195 3.67337 9.00098 3.375 9.00098C3.07663 9.00098 2.79048 9.1195 2.5795 9.33048C2.36853 9.54146 2.25 9.82761 2.25 10.126V12.376C2.25 12.6743 2.36853 12.9605 2.5795 13.1715C2.79048 13.3825 3.07663 13.501 3.375 13.501Z" fill="#1C3048"/>
<path d="M32.625 9.00098C32.3266 9.00098 32.0405 9.1195 31.8295 9.33048C31.6185 9.54146 31.5 9.82761 31.5 10.126V12.376C31.5 12.6743 31.6185 12.9605 31.8295 13.1715C32.0405 13.3825 32.3266 13.501 32.625 13.501C32.9234 13.501 33.2095 13.3825 33.4205 13.1715C33.6315 12.9605 33.75 12.6743 33.75 12.376V10.126C33.75 9.82761 33.6315 9.54146 33.4205 9.33048C33.2095 9.1195 32.9234 9.00098 32.625 9.00098Z" fill="#1C3048"/>
<path d="M32.625 22.501C32.3266 22.501 32.0405 22.6195 31.8295 22.8305C31.6185 23.0415 31.5 23.3276 31.5 23.626V25.876C31.5 26.1743 31.6185 26.4605 31.8295 26.6715C32.0405 26.8825 32.3266 27.001 32.625 27.001C32.9234 27.001 33.2095 26.8825 33.4205 26.6715C33.6315 26.4605 33.75 26.1743 33.75 25.876V23.626C33.75 23.3276 33.6315 23.0415 33.4205 22.8305C33.2095 22.6195 32.9234 22.501 32.625 22.501Z" fill="#1C3048"/>
<path d="M32.625 15.751C32.3266 15.751 32.0405 15.8695 31.8295 16.0805C31.6185 16.2915 31.5 16.5776 31.5 16.876V19.126C31.5 19.4243 31.6185 19.7105 31.8295 19.9215C32.0405 20.1325 32.3266 20.251 32.625 20.251C32.9234 20.251 33.2095 20.1325 33.4205 19.9215C33.6315 19.7105 33.75 19.4243 33.75 19.126V16.876C33.75 16.5776 33.6315 16.2915 33.4205 16.0805C33.2095 15.8695 32.9234 15.751 32.625 15.751Z" fill="#1C3048"/>
<path d="M23.625 4.50098H25.875C26.1734 4.50098 26.4595 4.38245 26.6705 4.17147C26.8815 3.96049 27 3.67435 27 3.37598C27 3.07761 26.8815 2.79146 26.6705 2.58048C26.4595 2.3695 26.1734 2.25098 25.875 2.25098H23.625C23.3266 2.25098 23.0405 2.3695 22.8295 2.58048C22.6185 2.79146 22.5 3.07761 22.5 3.37598C22.5 3.67435 22.6185 3.96049 22.8295 4.17147C23.0405 4.38245 23.3266 4.50098 23.625 4.50098Z" fill="#1C3048"/>
<path d="M10.125 4.50098H12.375C12.6734 4.50098 12.9595 4.38245 13.1705 4.17147C13.3815 3.96049 13.5 3.67435 13.5 3.37598C13.5 3.07761 13.3815 2.79146 13.1705 2.58048C12.9595 2.3695 12.6734 2.25098 12.375 2.25098H10.125C9.82663 2.25098 9.54048 2.3695 9.32951 2.58048C9.11853 2.79146 9 3.07761 9 3.37598C9 3.67435 9.11853 3.96049 9.32951 4.17147C9.54048 4.38245 9.82663 4.50098 10.125 4.50098Z" fill="#1C3048"/>
<path d="M16.875 4.50098H19.125C19.4234 4.50098 19.7095 4.38245 19.9205 4.17147C20.1315 3.96049 20.25 3.67435 20.25 3.37598C20.25 3.07761 20.1315 2.79146 19.9205 2.58048C19.7095 2.3695 19.4234 2.25098 19.125 2.25098H16.875C16.5766 2.25098 16.2905 2.3695 16.0795 2.58048C15.8685 2.79146 15.75 3.07761 15.75 3.37598C15.75 3.67435 15.8685 3.96049 16.0795 4.17147C16.2905 4.38245 16.5766 4.50098 16.875 4.50098Z" fill="#1C3048"/>
<path d="M25.875 31.501H23.625C23.3266 31.501 23.0405 31.6195 22.8295 31.8305C22.6185 32.0415 22.5 32.3276 22.5 32.626C22.5 32.9243 22.6185 33.2105 22.8295 33.4215C23.0405 33.6325 23.3266 33.751 23.625 33.751H25.875C26.1734 33.751 26.4595 33.6325 26.6705 33.4215C26.8815 33.2105 27 32.9243 27 32.626C27 32.3276 26.8815 32.0415 26.6705 31.8305C26.4595 31.6195 26.1734 31.501 25.875 31.501Z" fill="#1C3048"/>
<path d="M32.625 29.251C32.3266 29.251 32.0405 29.3695 31.8295 29.5805C31.6185 29.7915 31.5 30.0776 31.5 30.376C31.5 30.6743 31.3815 30.9605 31.1705 31.1715C30.9595 31.3825 30.6734 31.501 30.375 31.501C30.0766 31.501 29.7905 31.6195 29.5795 31.8305C29.3685 32.0415 29.25 32.3276 29.25 32.626C29.25 32.9243 29.3685 33.2105 29.5795 33.4215C29.7905 33.6325 30.0766 33.751 30.375 33.751C31.2701 33.751 32.1286 33.3954 32.7615 32.7625C33.3944 32.1295 33.75 31.2711 33.75 30.376C33.75 30.0776 33.6315 29.7915 33.4205 29.5805C33.2095 29.3695 32.9234 29.251 32.625 29.251Z" fill="#1C3048"/>
<path d="M30.375 4.50098C30.6734 4.50098 30.9595 4.6195 31.1705 4.83048C31.3815 5.04146 31.5 5.32761 31.5 5.62598C31.5 5.92435 31.6185 6.21049 31.8295 6.42147C32.0405 6.63245 32.3266 6.75098 32.625 6.75098C32.9234 6.75098 33.2095 6.63245 33.4205 6.42147C33.6315 6.21049 33.75 5.92435 33.75 5.62598C33.75 4.73087 33.3944 3.87243 32.7615 3.23949C32.1286 2.60656 31.2701 2.25098 30.375 2.25098C30.0766 2.25098 29.7905 2.3695 29.5795 2.58048C29.3685 2.79146 29.25 3.07761 29.25 3.37598C29.25 3.67435 29.3685 3.96049 29.5795 4.17147C29.7905 4.38245 30.0766 4.50098 30.375 4.50098Z" fill="#1C3048"/>
<path d="M3.375 6.75098C3.67337 6.75098 3.95952 6.63245 4.1705 6.42147C4.38147 6.21049 4.5 5.92435 4.5 5.62598C4.5 5.32761 4.61853 5.04146 4.8295 4.83048C5.04048 4.6195 5.32663 4.50098 5.625 4.50098C5.92337 4.50098 6.20952 4.38245 6.4205 4.17147C6.63147 3.96049 6.75 3.67435 6.75 3.37598C6.75 3.07761 6.63147 2.79146 6.4205 2.58048C6.20952 2.3695 5.92337 2.25098 5.625 2.25098C4.72989 2.25098 3.87145 2.60656 3.23851 3.23949C2.60558 3.87243 2.25 4.73087 2.25 5.62598C2.25 5.92435 2.36853 6.21049 2.5795 6.42147C2.79048 6.63245 3.07663 6.75098 3.375 6.75098Z" fill="#1C3048"/>
</svg>
