<svg width="36" height="36" viewBox="0 0 36 36" fill="none" xmlns="http://www.w3.org/2000/svg">
<g clip-path="url(#clip0_2185_174)">
<path d="M8.4375 23.3447H27.5625V25.4541H8.4375V23.3447Z" fill="#1C3048"/>
<path d="M8.4375 27.5635H27.5625V29.6729H8.4375V27.5635Z" fill="#1C3048"/>
<path d="M14.8359 19.125V21.2344H21.1641V19.125H19.0547V8.4375H21.1641V6.32812H14.8359V8.4375H16.9453V19.125H14.8359Z" fill="#1C3048"/>
<path d="M2.10938 19.126H4.21875V21.2354H2.10938V19.126Z" fill="#1C3048"/>
<path d="M14.8359 31.7822H16.9453V33.8916H14.8359V31.7822Z" fill="#1C3048"/>
<path d="M19.0547 31.7822H21.1641V33.8916H19.0547V31.7822Z" fill="#1C3048"/>
<path d="M2.10938 14.9072H4.21875V17.0166H2.10938V14.9072Z" fill="#1C3048"/>
<path d="M31.7812 14.9072H33.8906V17.0166H31.7812V14.9072Z" fill="#1C3048"/>
<path d="M31.7812 19.126H33.8906V21.2354H31.7812V19.126Z" fill="#1C3048"/>
<path d="M14.8359 2.10938H16.9453V4.21875H14.8359V2.10938Z" fill="#1C3048"/>
<path d="M19.0547 2.10938H21.1641V4.21875H19.0547V2.10938Z" fill="#1C3048"/>
<path d="M33.8906 23.3447H31.7812V29.6729H29.6719V31.7822H23.2734V33.8916H29.6719V36.001H36V29.6729H33.8906V23.3447Z" fill="#1C3048"/>
<path d="M6.32812 33.8916H12.7266V31.7822H6.32812V29.6729H4.21875V23.3447H2.10938V29.6729H0V36.001H6.32812V33.8916Z" fill="#1C3048"/>
<path d="M2.10938 12.7969H4.21875V6.32812H6.32812V4.21875H12.7266V2.10938H6.32812V0H0V6.32812H2.10938V12.7969Z" fill="#1C3048"/>
<path d="M29.6719 2.10938H23.2734V4.21875H29.6719V6.32812H31.7812V12.7969H33.8906V6.32812H36V0H29.6719V2.10938Z" fill="#1C3048"/>
<path d="M6.32812 10.5469H14.8359V17.0156H6.32812V10.5469Z" fill="#1C3048"/>
<path d="M21.1641 10.5469H29.6719V17.0156H21.1641V10.5469Z" fill="#1C3048"/>
</g>
<defs>
<clipPath id="clip0_2185_174">
<rect width="36" height="36" fill="white" transform="translate(0 0.000976562)"/>
</clipPath>
</defs>
</svg>
