<svg width="29" height="29" viewBox="0 0 29 29" fill="none" xmlns="http://www.w3.org/2000/svg">
<path d="M27.9076 14.4921C27.9076 18.0746 26.4845 21.5104 23.9512 24.0436C21.418 26.5768 17.9822 28 14.3997 28C-3.47053 27.269 -3.47053 1.70718 14.4235 1C18.006 1 21.4418 2.42315 23.9751 4.95639C26.5083 7.48962 27.9314 10.9254 27.9314 14.5079L27.9076 14.4921Z" stroke="white" stroke-width="1.19188" stroke-miterlimit="10" stroke-dasharray="1.57 1.57"/>
<path d="M14.4235 25.0362C20.2469 25.0362 24.9677 20.3154 24.9677 14.492C24.9677 8.66865 20.2469 3.94788 14.4235 3.94788C8.60016 3.94788 3.87939 8.66865 3.87939 14.492C3.87939 20.3154 8.60016 25.0362 14.4235 25.0362Z" stroke="white" stroke-width="1.19188" stroke-miterlimit="10"/>
<path d="M6.66516 16.535V12.2506H7.63137V15.7214H9.33496V16.535H6.66516ZM11.5513 12.1744C12.8671 12.1744 13.5854 13.1596 13.5854 14.3483C13.5854 15.7595 12.74 16.605 11.4813 16.605C10.2164 16.605 9.46626 15.6451 9.46626 14.4183C9.46626 13.1342 10.2926 12.1744 11.5513 12.1744ZM11.5322 12.9435C10.8711 12.9435 10.4897 13.5665 10.4897 14.3992C10.4897 15.2446 10.8838 15.8358 11.5322 15.8358C12.1869 15.8358 12.562 15.2128 12.562 14.3801C12.562 13.6046 12.1996 12.9435 11.5322 12.9435ZM17.7986 14.0814V16.338C17.4998 16.4397 16.9341 16.5795 16.3683 16.5795C15.5865 16.5795 15.0207 16.3825 14.6266 16.0074C14.2388 15.6324 14.0227 15.073 14.0227 14.4437C14.0291 13.0198 15.0652 12.2061 16.47 12.2061C17.0231 12.2061 17.449 12.3142 17.6587 12.4096L17.4553 13.1914C17.2201 13.0834 16.9341 13.0071 16.4637 13.0071C15.6564 13.0071 15.0398 13.4584 15.0398 14.3928C15.0398 15.2828 15.5992 15.7977 16.3938 15.7977C16.6099 15.7977 16.7879 15.7722 16.8641 15.7404V14.8378H16.2031V14.0814H17.7986ZM20.4407 12.1744C21.7565 12.1744 22.4748 13.1596 22.4748 14.3483C22.4748 15.7595 21.6294 16.605 20.3707 16.605C19.1058 16.605 18.3557 15.6451 18.3557 14.4183C18.3557 13.1342 19.182 12.1744 20.4407 12.1744ZM20.4216 12.9435C19.7605 12.9435 19.3791 13.5665 19.3791 14.3992C19.3791 15.2446 19.7732 15.8358 20.4216 15.8358C21.0763 15.8358 21.4514 15.2128 21.4514 14.3801C21.4514 13.6046 21.0891 12.9435 20.4216 12.9435Z" fill="white"/>
</svg>
