<svg width="30" height="30" viewBox="0 0 30 30" fill="none" xmlns="http://www.w3.org/2000/svg">
<g id="Layer_1">
<g id="Group 36242">
<path id="Vector" d="M22.25 4.85938H24.49C24.9781 4.85937 25.4613 4.95566 25.9121 5.14273C26.3629 5.3298 26.7723 5.60398 27.1169 5.94954C27.4616 6.29511 27.7346 6.70527 27.9205 7.15655C28.1063 7.60782 28.2013 8.09133 28.2 8.57937V17.9294C28.1987 18.1532 28.153 18.3745 28.0654 18.5805C27.9779 18.7865 27.8503 18.9731 27.69 19.1294L18.76 27.7294C18.4472 28.0279 18.0324 28.1959 17.6 28.1994H4.71001C3.72606 28.1994 2.78241 27.8085 2.08665 27.1127C1.39089 26.417 1.00001 25.4733 1.00001 24.4894V8.57937C0.998698 8.09133 1.09369 7.60782 1.27954 7.15655C1.4654 6.70527 1.73847 6.29511 2.08311 5.94954C2.42774 5.60398 2.83717 5.3298 3.28795 5.14273C3.73872 4.95566 4.22197 4.85937 4.71001 4.85938H6.14001" stroke="white" stroke-width="2" stroke-miterlimit="10"/>
<path id="Vector_2" d="M9.45996 4.85938H18.76" stroke="white" stroke-width="2" stroke-miterlimit="10"/>
<path id="Vector_3" d="M7.75977 2V8.44" stroke="white" stroke-width="2" stroke-miterlimit="10" stroke-linecap="round"/>
<path id="Vector_4" d="M20.5098 2V8.44" stroke="white" stroke-width="2" stroke-miterlimit="10" stroke-linecap="round"/>
<path id="Vector_5" d="M3.9999 5.00002H25.1899C25.8768 5.00002 26.5356 5.2729 27.0213 5.75861C27.507 6.24433 27.7799 6.90311 27.7799 7.59002V10.1H1.3999V7.54002C1.41303 6.86008 1.69305 6.21258 2.17952 5.73734C2.66598 5.26211 3.31984 4.99727 3.9999 5.00002Z" fill="white"/>
<path id="Vector_6" d="M7.27992 13.6094H5.67992C5.26019 13.6094 4.91992 13.9496 4.91992 14.3694V15.9694C4.91992 16.3891 5.26019 16.7294 5.67992 16.7294H7.27992C7.69966 16.7294 8.03992 16.3891 8.03992 15.9694V14.3694C8.03992 13.9496 7.69966 13.6094 7.27992 13.6094Z" fill="white"/>
<path id="Vector_7" d="M7.27992 19.8398H5.67992C5.26019 19.8398 4.91992 20.1801 4.91992 20.5998V22.1998C4.91992 22.6196 5.26019 22.9598 5.67992 22.9598H7.27992C7.69966 22.9598 8.03992 22.6196 8.03992 22.1998V20.5998C8.03992 20.1801 7.69966 19.8398 7.27992 19.8398Z" fill="white"/>
<path id="Vector_8" d="M13.8903 13.6094H12.2903C11.8705 13.6094 11.5303 13.9496 11.5303 14.3694V15.9694C11.5303 16.3891 11.8705 16.7294 12.2903 16.7294H13.8903C14.31 16.7294 14.6503 16.3891 14.6503 15.9694V14.3694C14.6503 13.9496 14.31 13.6094 13.8903 13.6094Z" fill="white"/>
<path id="Vector_9" d="M13.8903 19.8398H12.2903C11.8705 19.8398 11.5303 20.1801 11.5303 20.5998V22.1998C11.5303 22.6196 11.8705 22.9598 12.2903 22.9598H13.8903C14.31 22.9598 14.6503 22.6196 14.6503 22.1998V20.5998C14.6503 20.1801 14.31 19.8398 13.8903 19.8398Z" fill="white"/>
<path id="Vector_10" d="M20.7501 13.6094H19.1501C18.7304 13.6094 18.3901 13.9496 18.3901 14.3694V15.9694C18.3901 16.3891 18.7304 16.7294 19.1501 16.7294H20.7501C21.1699 16.7294 21.5101 16.3891 21.5101 15.9694V14.3694C21.5101 13.9496 21.1699 13.6094 20.7501 13.6094Z" fill="white"/>
<path id="Vector_11" d="M20.7501 19.8398H19.1501C18.7304 19.8398 18.3901 20.1801 18.3901 20.5998V22.1998C18.3901 22.6196 18.7304 22.9598 19.1501 22.9598H20.7501C21.1699 22.9598 21.5101 22.6196 21.5101 22.1998V20.5998C21.5101 20.1801 21.1699 19.8398 20.7501 19.8398Z" fill="white"/>
<path id="Vector_12" d="M28.7799 16.5C28.378 16.9858 27.8539 17.3558 27.2617 17.572C26.6694 17.7882 26.0302 17.8427 25.4099 17.73C17.8599 16.83 18.8599 22.05 18.9999 24.28C19.0848 24.8569 19.0251 25.4458 18.8261 25.9938C18.6271 26.5419 18.2951 27.032 17.8599 27.42L27.3599 19.42L28.7799 16.5Z" fill="white"/>
</g>
</g>
</svg>
