<svg width="30" height="30" viewBox="0 0 30 30" fill="none" xmlns="http://www.w3.org/2000/svg">
<g id="Flyer">
<g id="Group">
<path id="Vector" d="M22.9287 18.75H14.5718C14.054 18.75 13.6343 19.1697 13.6343 19.6875C13.6343 20.2053 14.054 20.625 14.5718 20.625H22.9287C23.4464 20.625 23.8662 20.2053 23.8662 19.6875C23.8662 19.1697 23.4464 18.75 22.9287 18.75Z" fill="white"/>
<path id="Vector_2" d="M18.2383 22.5H14.5718C14.054 22.5 13.6343 22.9197 13.6343 23.4375C13.6343 23.9553 14.054 24.375 14.5718 24.375H18.2383C18.7561 24.375 19.1758 23.9553 19.1758 23.4375C19.1758 22.9197 18.7561 22.5 18.2383 22.5Z" fill="white"/>
<path id="Vector_3" d="M18.2383 4.6875H14.5718C14.054 4.6875 13.6343 5.10723 13.6343 5.625C13.6343 6.14277 14.054 6.5625 14.5718 6.5625H18.2383C18.7561 6.5625 19.1758 6.14277 19.1758 5.625C19.1758 5.10723 18.7561 4.6875 18.2383 4.6875Z" fill="white"/>
<path id="Vector_4" d="M24.375 29.0625H13.125C10.5403 29.0625 8.4375 26.9597 8.4375 24.375V5.625C8.4375 3.04031 10.5403 0.9375 13.125 0.9375H24.375C26.9597 0.9375 29.0625 3.04031 29.0625 5.625V24.375C29.0625 26.9597 26.9597 29.0625 24.375 29.0625ZM13.125 2.8125C11.5744 2.8125 10.3125 4.07437 10.3125 5.625V24.375C10.3125 25.9256 11.5744 27.1875 13.125 27.1875H24.375C25.9256 27.1875 27.1875 25.9256 27.1875 24.375V5.625C27.1875 4.07437 25.9256 2.8125 24.375 2.8125H13.125Z" fill="white"/>
<path id="Vector_5" d="M7.98766 26.7835C7.04828 26.7835 6.13234 26.5004 5.34203 25.9566C4.30984 25.2469 3.61609 24.1791 3.38828 22.9482L1.34172 11.8847C0.872032 9.34317 2.55766 6.89348 5.09922 6.42286L8.78641 5.74036L9.12672 7.58442L5.43953 8.26692C3.91516 8.54911 2.90359 10.0191 3.18578 11.5444L5.23234 22.6069C5.51547 24.1313 6.98828 25.1419 8.50891 24.8597L9.55047 24.6675L9.89078 26.5116L8.85016 26.7038C8.56234 26.7572 8.27359 26.7835 7.98766 26.7835Z" fill="white"/>
<path id="Vector_6" d="M12.886 16.0237C12.4228 15.7921 12.2353 15.2287 12.4669 14.7656L14.6063 10.4887C15.0047 9.69277 15.8185 9.18933 16.7082 9.18933C17.5997 9.18933 18.4153 9.69277 18.8138 10.4906L20.9513 14.7656C21.1828 15.2287 20.9953 15.7921 20.5322 16.0237C20.0691 16.2553 19.5057 16.0678 19.2741 15.6046L17.1366 11.3287C17.0175 11.0906 16.7982 11.0643 16.7091 11.0643C16.62 11.0643 16.4016 11.0906 16.2825 11.3278L14.1441 15.6046C13.9125 16.0678 13.3491 16.2553 12.886 16.0237Z" fill="white"/>
<path id="Vector_7" d="M24.6143 16.0238C24.1512 16.2554 23.5877 16.0679 23.3562 15.6047L21.2187 11.3288C21.0996 11.0907 20.8802 11.0644 20.7912 11.0644C20.7021 11.0644 20.4837 11.0907 20.3646 11.3279L19.5893 12.8794L17.9121 12.0404L18.6884 10.4879C19.0868 9.69098 19.9005 9.18848 20.7912 9.18848C21.6827 9.18848 22.4984 9.69191 22.8968 10.4897L25.0343 14.7647C25.2659 15.2279 25.0784 15.7913 24.6152 16.0229L24.6143 16.0238Z" fill="white"/>
</g>
</g>
</svg>
