<svg width="30" height="30" viewBox="0 0 30 30" fill="none" xmlns="http://www.w3.org/2000/svg">
<g id="Layer_1">
<g id="Group 36253">
<path id="Vector" d="M7.2998 24.91L13.2998 19.2C13.7462 18.8156 14.3157 18.6042 14.9048 18.6042C15.4939 18.6042 16.0634 18.8156 16.5098 19.2L23.1398 24.71" stroke="white" stroke-width="2" stroke-miterlimit="10" stroke-linecap="round"/>
<path id="Vector_2" d="M11.9 20.25L3.20001 12.25C3.18271 12.2346 3.16129 12.2244 3.13835 12.2209C3.11541 12.2173 3.09194 12.2205 3.07077 12.2301C3.0496 12.2396 3.03165 12.255 3.01909 12.2746C3.00653 12.2941 2.99991 12.3168 3.00001 12.34V25.34C2.9987 25.7808 3.08438 26.2175 3.25214 26.6251C3.41991 27.0327 3.66646 27.4032 3.97766 27.7153C4.28887 28.0275 4.65862 28.2751 5.06571 28.4441C5.47281 28.6131 5.90924 28.7 6.35001 28.7H23.75C24.1908 28.7 24.6272 28.6131 25.0343 28.4441C25.4414 28.2751 25.8112 28.0275 26.1224 27.7153C26.4336 27.4032 26.6801 27.0327 26.8479 26.6251C27.0156 26.2175 27.1013 25.7808 27.1 25.34V12.68C27.1001 12.6568 27.0935 12.6341 27.0809 12.6146C27.0684 12.595 27.0504 12.5796 27.0293 12.5701C27.0081 12.5605 26.9846 12.5573 26.9617 12.5609C26.9387 12.5644 26.9173 12.5746 26.9 12.59L18.4 20.36" stroke="white" stroke-width="2" stroke-miterlimit="10" stroke-linecap="round"/>
<path id="Vector_3" d="M6.31982 14.2V3.73C6.32246 3.00677 6.61093 2.31391 7.12233 1.80251C7.63374 1.29111 8.32659 1.00263 9.04982 1H19.0498L23.7998 5.95V15.22" stroke="white" stroke-width="2" stroke-miterlimit="10" stroke-linecap="round"/>
<path id="Vector_4" d="M23.0498 6.41996L20.3798 6.26996C20.0662 6.25337 19.759 6.17489 19.4759 6.03904C19.1927 5.90319 18.9393 5.71264 18.7302 5.47839C18.521 5.24414 18.3603 4.97082 18.2572 4.67417C18.1542 4.37753 18.1109 4.06342 18.1298 3.74996L18.2698 1.07996" stroke="white" stroke-width="2" stroke-miterlimit="10" stroke-linecap="round"/>
<path id="Vector_5" d="M15.0501 14.77L12.1801 11.77C11.9478 11.4706 11.8083 11.1097 11.7788 10.732C11.7493 10.3543 11.8311 9.97614 12.014 9.64433C12.1969 9.31251 12.473 9.04153 12.8082 8.86482C13.1433 8.68812 13.5229 8.61342 13.9001 8.64997C14.3292 8.7094 14.7302 8.8977 15.0501 9.18997C15.365 8.8963 15.7633 8.70762 16.1901 8.64997C16.581 8.59171 16.9805 8.65429 17.3349 8.82933C17.6894 9.00436 17.9819 9.28349 18.1733 9.62936C18.3647 9.97522 18.4459 10.3713 18.406 10.7646C18.3661 11.1579 18.207 11.5296 17.9501 11.83L15.0501 14.77Z" fill="white"/>
</g>
</g>
</svg>
