<svg width="24" height="28" viewBox="0 0 24 28" fill="none" xmlns="http://www.w3.org/2000/svg">
<g id="Layer_1" clip-path="url(#clip0_2409_473)">
<path id="Vector" d="M22.9067 6.56651V17.1575C22.9067 18.2177 22.4856 19.2344 21.7359 19.9841C20.9863 20.7337 19.9695 21.1549 18.9093 21.1549H12.9806L7.8872 26.0596L7.34822 21.1549H4.89587C3.83568 21.1549 2.81892 20.7337 2.06926 19.9841C1.31959 19.2344 0.898438 18.2177 0.898438 17.1575V4.90466C0.898437 3.84448 1.31959 2.82771 2.06926 2.07805C2.81892 1.32838 3.83568 0.907227 4.89587 0.907227H13.7621" stroke="white" stroke-width="1.7966" stroke-miterlimit="10"/>
<path id="Vector_2" d="M7.68927 12.8008C8.35902 12.8008 8.90197 12.2578 8.90197 11.5881C8.90197 10.9183 8.35902 10.3754 7.68927 10.3754C7.01951 10.3754 6.47656 10.9183 6.47656 11.5881C6.47656 12.2578 7.01951 12.8008 7.68927 12.8008Z" fill="white"/>
<path id="Vector_3" d="M15.7112 12.8008C16.381 12.8008 16.9239 12.2578 16.9239 11.5881C16.9239 10.9183 16.381 10.3754 15.7112 10.3754C15.0415 10.3754 14.4985 10.9183 14.4985 11.5881C14.4985 12.2578 15.0415 12.8008 15.7112 12.8008Z" fill="white"/>
<path id="Vector_4" d="M11.6956 12.8008C12.3654 12.8008 12.9083 12.2578 12.9083 11.5881C12.9083 10.9183 12.3654 10.3754 11.6956 10.3754C11.0259 10.3754 10.4829 10.9183 10.4829 11.5881C10.4829 12.2578 11.0259 12.8008 11.6956 12.8008Z" fill="white"/>
<path id="Vector_5" d="M18.7206 2.52422C18.721 2.63278 18.6997 2.74032 18.6581 2.84057C18.6164 2.94082 18.5552 3.03177 18.4781 3.10812L16.5198 4.9676L16.7443 3.83574C16.7685 3.71886 16.7661 3.59806 16.7375 3.4822C16.7089 3.36633 16.6547 3.25835 16.5789 3.16618C16.503 3.074 16.4076 2.99996 16.2994 2.9495C16.1913 2.89904 16.0732 2.87343 15.9538 2.87456C15.8481 2.87457 15.7434 2.85359 15.6458 2.81285C15.5482 2.77212 15.4597 2.71242 15.3853 2.63723C15.311 2.56204 15.2523 2.47284 15.2126 2.3748C15.173 2.27676 15.1532 2.17183 15.1543 2.06609V0.808469C15.1532 0.702726 15.173 0.597798 15.2126 0.499761C15.2523 0.401724 15.311 0.312524 15.3853 0.237331C15.4597 0.162138 15.5482 0.102444 15.6458 0.0617053C15.7434 0.0209668 15.8481 -6.67393e-06 15.9538 1.59303e-09H17.966C18.0718 -6.67393e-06 18.1765 0.0209668 18.2741 0.0617053C18.3717 0.102444 18.4602 0.162138 18.5345 0.237331C18.6089 0.312524 18.6676 0.401724 18.7072 0.499761C18.7469 0.597798 18.7667 0.702726 18.7655 0.808469L18.7206 2.52422Z" fill="white"/>
<path id="Vector_6" d="M23.805 2.52422C23.8058 2.63366 23.7838 2.74206 23.7405 2.84257C23.6972 2.94308 23.6335 3.0335 23.5535 3.10812L21.5593 4.9676L21.7928 3.83574C21.8153 3.71905 21.8117 3.59885 21.7824 3.4837C21.7531 3.36854 21.6988 3.26125 21.6233 3.16948C21.5478 3.07771 21.4531 3.0037 21.3457 2.95272C21.2384 2.90175 21.1211 2.87506 21.0023 2.87456C20.7879 2.87456 20.5823 2.78938 20.4306 2.63776C20.279 2.48615 20.1938 2.28051 20.1938 2.06609V0.808469C20.1938 0.59405 20.279 0.388414 20.4306 0.236796C20.5823 0.0851789 20.7879 0 21.0023 0H22.9965C23.211 0 23.4166 0.0851789 23.5682 0.236796C23.7198 0.388414 23.805 0.59405 23.805 0.808469V2.52422Z" fill="white"/>
</g>
<defs>
<clipPath id="clip0_2409_473">
<rect width="23.8049" height="28" fill="white"/>
</clipPath>
</defs>
</svg>
