<svg width="30" height="30" viewBox="0 0 30 30" fill="none" xmlns="http://www.w3.org/2000/svg">
<g id="Layer_1">
<g id="Group 36241">
<path id="Vector" d="M10.7333 28.87H20.5339C21.5657 28.87 22.5552 28.4601 23.2848 27.7305C24.0144 27.0009 24.4243 26.0114 24.4243 24.9796V5.89043C24.4243 4.85862 24.0144 3.86908 23.2848 3.13948C22.5552 2.40988 21.5657 2 20.5339 2H8.87183C7.84325 2.00492 6.85848 2.41698 6.1329 3.14604C5.40732 3.8751 4.99999 4.86184 5 5.89043V23.1181L10.7333 28.87Z" stroke="white" stroke-width="1.86145" stroke-miterlimit="10" stroke-linecap="round"/>
<path id="Vector_2" d="M5.55859 22.9122H9.28151C9.48563 22.9122 9.68774 22.9524 9.87632 23.0305C10.0649 23.1087 10.2362 23.2231 10.3806 23.3675C10.5249 23.5118 10.6394 23.6832 10.7175 23.8717C10.7956 24.0603 10.8358 24.2624 10.8358 24.4665V27.5938" stroke="white" stroke-width="1.86145" stroke-miterlimit="10" stroke-linecap="round"/>
<path id="Vector_3" d="M8.86279 19.851H20.1991" stroke="white" stroke-width="1.86145" stroke-miterlimit="10" stroke-linecap="round"/>
<path id="Vector_4" d="M20.199 23.4175H13.749" stroke="white" stroke-width="1.86145" stroke-miterlimit="10" stroke-linecap="round"/>
<path id="Vector_5" d="M10.8357 15.5437V14.399C10.831 14.0541 10.8952 13.7118 11.0247 13.3921C11.1541 13.0724 11.3462 12.7819 11.5896 12.5375L11.7385 12.3886C11.9829 12.1452 12.2734 11.9531 12.5931 11.8237C12.9128 11.6942 13.2551 11.63 13.6 11.6347H15.8151C16.16 11.63 16.5023 11.6942 16.822 11.8237C17.1416 11.9531 17.4322 12.1452 17.6766 12.3886C17.9212 12.6325 18.1147 12.9228 18.2458 13.2424C18.3768 13.562 18.4428 13.9046 18.4398 14.25V15.5344" stroke="white" stroke-width="1.86145" stroke-miterlimit="10" stroke-linecap="round"/>
<path id="Vector_6" d="M14.9033 9.88237C16.2346 9.88237 17.3139 8.80312 17.3139 7.47179C17.3139 6.14047 16.2346 5.06122 14.9033 5.06122C13.5719 5.06122 12.4927 6.14047 12.4927 7.47179C12.4927 8.80312 13.5719 9.88237 14.9033 9.88237Z" stroke="white" stroke-width="1.86145" stroke-miterlimit="10" stroke-linecap="round"/>
</g>
</g>
</svg>
