<svg width="40" height="42" viewBox="0 0 40 42" fill="none" xmlns="http://www.w3.org/2000/svg">
<g id="earth">
<circle id="Ellipse 81" opacity="0.5" cx="12.5" cy="12.5" r="12.5" fill="url(#paint0_linear_15_2453)"/>
<g id="Group 35793">
<g id="Vector" filter="url(#filter0_b_15_2453)">
<path d="M25 41.5116C16.7157 41.5116 10 34.79 10 26.4987C10 18.2073 16.7157 11.4858 25 11.4858C33.2842 11.4858 40 18.2073 40 26.4987C40 34.79 33.2842 41.5116 25 41.5116Z" fill="white" fill-opacity="0.1"/>
</g>
<path id="Vector_2" d="M21.279 38.9679L23.4234 39.6079L22.4697 37.5835C21.0797 34.633 20.2273 31.3785 20.0395 27.9454L19.9877 27H19.041H13.0928H11.9605L12.1005 28.1236C12.7444 33.2919 16.414 37.5159 21.279 38.9679ZM22.046 27H20.9825L21.0479 28.0615C21.2829 31.8749 22.3717 35.4584 24.1254 38.6216L25 40.199L25.8746 38.6216C27.6283 35.4584 28.7171 31.8749 28.9521 28.0615L29.0175 27H27.954H22.046ZM37.8995 28.1236L38.0395 27H36.9072H30.959H30.0123L29.9605 27.9454C29.7727 31.3785 28.9204 34.633 27.5304 37.5835L26.5766 39.6079L28.721 38.9679C33.586 37.5159 37.2556 33.2919 37.8995 28.1236ZM12.1005 24.8738L11.9605 25.9974H13.0928H19.041H19.9878L20.0395 25.0521C20.2273 21.6189 21.0797 18.3644 22.4697 15.4139L23.4234 13.3894L21.279 14.0295C16.414 15.4816 12.7444 19.7055 12.1005 24.8738ZM21.0479 24.9359L20.9825 25.9974H22.046H27.954H29.0175L28.9521 24.9359C28.7171 21.1226 27.6283 17.5389 25.8746 14.3758L25 12.7984L24.1254 14.3758C22.3717 17.5389 21.2829 21.1226 21.0479 24.9359ZM28.721 14.0295L26.5766 13.3894L27.5304 15.4139C28.9204 18.3644 29.7727 21.6189 29.9605 25.052L30.0123 25.9974H30.959H36.9072H38.0395L37.8995 24.8738C37.2556 19.7055 33.586 15.4816 28.721 14.0295ZM25 40.5116C17.2688 40.5116 11 34.2385 11 26.4987C11 18.7588 17.2688 12.4858 25 12.4858C32.7311 12.4858 39 18.7588 39 26.4987C39 34.2385 32.7311 40.5116 25 40.5116Z" fill="white" stroke="#1C3048" stroke-width="2"/>
</g>
</g>
<defs>
<filter id="filter0_b_15_2453" x="5" y="6.48584" width="40" height="40.0258" filterUnits="userSpaceOnUse" color-interpolation-filters="sRGB">
<feFlood flood-opacity="0" result="BackgroundImageFix"/>
<feGaussianBlur in="BackgroundImageFix" stdDeviation="2.5"/>
<feComposite in2="SourceAlpha" operator="in" result="effect1_backgroundBlur_15_2453"/>
<feBlend mode="normal" in="SourceGraphic" in2="effect1_backgroundBlur_15_2453" result="shape"/>
</filter>
<linearGradient id="paint0_linear_15_2453" x1="25.1706" y1="3.80698e-06" x2="-0.829232" y2="0.894398" gradientUnits="userSpaceOnUse">
<stop stop-color="#5961F8"/>
<stop offset="1" stop-color="#15D8C5"/>
<stop offset="1" stop-color="#15D8C5"/>
</linearGradient>
</defs>
</svg>
