<svg width="30" height="42" viewBox="0 0 30 42" fill="none" xmlns="http://www.w3.org/2000/svg">
<g id="like">
<circle id="Ellipse 81" opacity="0.5" cx="12.5" cy="12.5" r="12.5" fill="url(#paint0_linear_15_2428)"/>
<g id="Vector" filter="url(#filter0_b_15_2428)">
<path d="M18.6974 41.8135H19.9051H21.1128C22.2503 41.8135 23.1778 40.8866 23.1785 39.7461V38.9887C23.8891 38.6614 24.3869 37.9467 24.3869 37.1136V34.55C24.5081 34.2867 24.5804 33.9973 24.5804 33.6885C24.5804 32.9884 24.736 32.3103 25.0424 31.6714C25.346 31.0381 25.7901 30.4641 26.3258 30.0113C28.9051 27.8302 30.2567 24.5058 29.9407 21.1152C29.4587 16.0328 25.2496 12.0262 20.1186 11.7946L19.9051 11.7877L19.6614 11.7953C14.5606 12.0262 10.3515 16.0328 9.86885 21.1166C9.5535 24.5051 10.9051 27.8302 13.4844 30.0106C14.0201 30.4641 14.4642 31.0381 14.7679 31.6714C15.0743 32.3103 15.2299 32.9884 15.2299 33.6885C15.2299 33.9966 15.3022 34.2867 15.4234 34.55V37.1142C15.4234 37.9474 15.9205 38.6627 16.6318 38.9894V39.7474C16.6325 40.8866 17.5599 41.8135 18.6974 41.8135ZM21.8014 39.7461C21.8014 40.1265 21.4922 40.4352 21.1128 40.4352H19.9051H18.6974C18.318 40.4352 18.0089 40.1258 18.0089 39.7461V39.181H19.9051H21.8014V39.7461ZM23.0098 37.1142C23.0098 37.494 22.7013 37.8034 22.3212 37.8034H19.9051H17.489C17.1089 37.8034 16.8005 37.494 16.8005 37.1142V35.6891C16.9602 35.7291 17.1241 35.7559 17.2955 35.7559H19.9051H22.5147C22.6862 35.7559 22.85 35.7291 23.0098 35.6891V37.1142Z" fill="white" fill-opacity="0.1"/>
<path d="M23.3869 34.5639L22.767 34.719C22.6605 34.7457 22.5811 34.7559 22.5147 34.7559H19.9051H17.2955C17.2291 34.7559 17.1498 34.7457 17.0432 34.719L16.4234 34.5639V34.55V34.3308L16.3317 34.1318C16.2644 33.9855 16.2299 33.8374 16.2299 33.6885C16.2299 32.8364 16.0397 32.0107 15.6695 31.239C15.3047 30.4782 14.7734 29.7915 14.1305 29.2473L14.13 29.2469C11.8029 27.2797 10.5795 24.2758 10.8645 21.2102C11.3002 16.6252 15.1004 13.0062 19.6997 12.7946L19.9045 12.7882L20.0797 12.7939C24.7114 13.006 28.5101 16.6268 28.9451 21.2087C29.2308 24.2763 28.0075 27.2795 25.6803 29.2475C25.0369 29.7913 24.5055 30.4782 24.1407 31.239L23.3869 34.5639ZM23.3869 34.5639V34.55V34.3308L23.4785 34.1318C23.5459 33.9854 23.5804 33.8379 23.5804 33.6885C23.5804 32.8365 23.7705 32.0108 24.1407 31.2391L23.3869 34.5639Z" stroke="#1C3048" stroke-width="2"/>
</g>
</g>
<defs>
<filter id="filter0_b_15_2428" x="4.82373" y="6.78773" width="30.1621" height="40.0257" filterUnits="userSpaceOnUse" color-interpolation-filters="sRGB">
<feFlood flood-opacity="0" result="BackgroundImageFix"/>
<feGaussianBlur in="BackgroundImageFix" stdDeviation="2.5"/>
<feComposite in2="SourceAlpha" operator="in" result="effect1_backgroundBlur_15_2428"/>
<feBlend mode="normal" in="SourceGraphic" in2="effect1_backgroundBlur_15_2428" result="shape"/>
</filter>
<linearGradient id="paint0_linear_15_2428" x1="25.1706" y1="3.80698e-06" x2="-0.829232" y2="0.894398" gradientUnits="userSpaceOnUse">
<stop stop-color="#5961F8"/>
<stop offset="1" stop-color="#15D8C5"/>
<stop offset="1" stop-color="#15D8C5"/>
</linearGradient>
</defs>
</svg>
