<svg width="41" height="36" viewBox="0 0 41 36" fill="none" xmlns="http://www.w3.org/2000/svg">
<g id="like">
<circle id="Ellipse 81" opacity="0.5" cx="12.5" cy="12.5" r="12.5" fill="url(#paint0_linear_15_2435)"/>
<g id="Group 35792">
<path id="Vector" d="M31.2373 21.6514C33.9954 21.6514 36.2387 19.4057 36.2387 16.6452C36.2387 13.8848 33.9954 11.639 31.2373 11.639C28.4792 11.639 26.2349 13.8848 26.2349 16.6452C26.2349 19.4057 28.4792 21.6514 31.2373 21.6514ZM34.0958 16.6452C34.0958 18.2229 32.813 19.5067 31.2373 19.5067C29.6605 19.5067 28.3777 18.2229 28.3777 16.6452C28.3777 15.0676 29.6605 13.7837 31.2373 13.7837C32.813 13.7837 34.0958 15.0676 34.0958 16.6452Z" fill="#1C3048"/>
<path id="Vector_2" d="M31.2413 23.26C30.2327 23.26 29.268 23.4218 28.3734 23.7407C27.8168 23.9391 27.5259 24.5528 27.7236 25.1104C27.9052 25.6196 28.4304 25.8868 28.9464 25.7818C28.9956 25.7718 29.0446 25.778 29.0933 25.7608C29.7556 25.5246 30.4786 25.4047 31.2413 25.4047C33.0619 25.4047 34.7716 26.1121 36.0544 27.396C37.3372 28.6804 38.0445 30.3915 38.0445 32.2142C38.0445 32.6127 37.8896 32.9865 37.6082 33.2687C37.3267 33.5499 36.9574 33.7049 36.566 33.7049H30.8019C30.7265 33.7049 30.6604 33.733 30.5894 33.7478C30.1029 33.8494 29.7305 34.2604 29.7305 34.7772C29.7305 35.3694 30.2097 35.8496 30.8019 35.8496H36.566C37.5297 35.8496 38.4379 35.471 39.1232 34.7851C39.8096 34.0987 40.1873 33.186 40.1873 32.2142C40.1873 29.8187 39.2572 27.5693 37.5695 25.8796C35.8817 24.1905 33.6343 23.26 31.2413 23.26Z" fill="#1C3048"/>
<g id="Vector_3" filter="url(#filter0_b_15_2435)">
<path d="M19.1376 21.6514C21.8957 21.6514 24.14 19.4057 24.14 16.6452C24.14 13.8848 21.8957 11.639 19.1376 11.639C16.3795 11.639 14.1362 13.8848 14.1362 16.6452C14.1362 19.4057 16.3795 21.6514 19.1376 21.6514Z" fill="white" fill-opacity="0.1"/>
<path d="M23.14 16.6452C23.14 18.8541 21.3427 20.6514 19.1376 20.6514C16.9328 20.6514 15.1362 18.8543 15.1362 16.6452C15.1362 14.4361 16.9328 12.639 19.1376 12.639C21.3427 12.639 23.14 14.4364 23.14 16.6452Z" stroke="#1C3048" stroke-width="2"/>
</g>
<path id="Vector_4" d="M13.8119 35.8459H24.4645C26.4629 35.8459 28.0889 34.2186 28.0889 32.2184C28.0889 27.2787 24.0731 23.26 19.1377 23.26C14.2022 23.26 10.1875 27.2787 10.1875 32.2184C10.1875 34.2186 11.8135 35.8459 13.8119 35.8459ZM19.1377 25.4047C22.8919 25.4047 25.946 28.4615 25.946 32.2184C25.946 33.0363 25.2816 33.7012 24.4645 33.7012H13.8119C12.9948 33.7012 12.3304 33.0363 12.3304 32.2184C12.3304 28.4615 15.3845 25.4047 19.1377 25.4047Z" fill="#1C3048"/>
</g>
</g>
<defs>
<filter id="filter0_b_15_2435" x="9.13623" y="6.63904" width="20.0039" height="20.0124" filterUnits="userSpaceOnUse" color-interpolation-filters="sRGB">
<feFlood flood-opacity="0" result="BackgroundImageFix"/>
<feGaussianBlur in="BackgroundImageFix" stdDeviation="2.5"/>
<feComposite in2="SourceAlpha" operator="in" result="effect1_backgroundBlur_15_2435"/>
<feBlend mode="normal" in="SourceGraphic" in2="effect1_backgroundBlur_15_2435" result="shape"/>
</filter>
<linearGradient id="paint0_linear_15_2435" x1="25.1706" y1="3.80698e-06" x2="-0.829232" y2="0.894398" gradientUnits="userSpaceOnUse">
<stop stop-color="#5961F8"/>
<stop offset="1" stop-color="#15D8C5"/>
<stop offset="1" stop-color="#15D8C5"/>
</linearGradient>
</defs>
</svg>
